<svg xmlns="http://www.w3.org/2000/svg" width="91" height="77" viewBox="0 0 91 77"><g transform="translate(-536 -1542)"><circle cx="38.5" cy="38.5" r="38.5" transform="translate(550 1542)" fill="#f7e8de"/><g transform="translate(946.584 39.189)"><path d="M-350.053,1557.928v6.6a1.753,1.753,0,0,1-1.751,1.751h-12.259a1.752,1.752,0,0,1-1.751-1.752v-5.254" fill="#236fe9" stroke="#000" stroke-linecap="round" stroke-miterlimit="10" stroke-width="2"/><path d="M-396.307,1559.273h42.751a5.253,5.253,0,0,0,5.254-5.252v-10.509a5.912,5.912,0,0,0-.294-2.193l-1.83-2.744a1.751,1.751,0,0,1,.486-2.429,1.743,1.743,0,0,1,.547-.242l4.594-1.153a1.753,1.753,0,0,0,1.751-1.751v-3.5a1.753,1.753,0,0,0-1.751-1.749h-7.816a1.75,1.75,0,0,0-1.457.779l-2.315,3.474c-.338.464-3.76,2.751-5.921,2.751H-382.13Z" fill="#93c0ff" stroke="#000" stroke-linecap="round" stroke-miterlimit="10" stroke-width="2"/><path d="M-353.555,1541.761h0a11.959,11.959,0,0,1-8.457,3.5h-3.8" fill="none" stroke="#000" stroke-linecap="round" stroke-miterlimit="10" stroke-width="2"/><line x2="26.26" transform="translate(-392.074 1552.268)" fill="none" stroke="#000" stroke-linecap="round" stroke-miterlimit="10" stroke-width="2"/><path d="M-380.085,1531.247h-9.869l4.338-18.437H-405.9l-3.687,31.343,10.4-2.393-1.177,24.518Z" fill="#236fe9" stroke="#000" stroke-linecap="round" stroke-linejoin="round" stroke-width="2"/><path d="M-355.547,1530.74l-.84,1.26c-.34.47-3.76,2.75-5.92,2.75h-19.81l2.03-3.5h-9.87l3.3-14.01h5.08a115.318,115.318,0,0,1,17.31,1.46,6.927,6.927,0,0,1,3.71,2.05C-359.757,1521.7-355.547,1530.74-355.547,1530.74Z" fill="#93c0ff" stroke="#000" stroke-linecap="round" stroke-miterlimit="10" stroke-width="2"/></g></g></svg>