<svg xmlns="http://www.w3.org/2000/svg" width="50.482" height="32.74" viewBox="0 0 50.482 32.74"><g transform="translate(-528.322 -342.702)"><path d="M583.607,374.941l-12.4-3.954V343.2l12.4,3.954Z" transform="translate(-36.358 0)" fill="#93c0ff"/><path d="M583.607,374.941l-12.4-3.954V343.2l12.4,3.954Z" transform="translate(-11.273 0)" fill="#93c0ff"/><path d="M571.2,374.941l12.4-3.954V343.2l-12.4,3.954Z" transform="translate(-23.815 0)" fill="#f7e8de"/><path d="M626.16,349.337a15.541,15.541,0,0,1-1.026,4.839c-1.066,2.96-2.958,5.939-5.109,5.939-3.388,0-6.135-7.389-6.135-10.778a6.135,6.135,0,0,1,6.135-6.135h0A6.136,6.136,0,0,1,626.16,349.337Z" transform="translate(-47.856 0)" fill="#236fe9" stroke="#000" stroke-miterlimit="10" stroke-width="1"/><circle cx="2.733" cy="2.733" r="2.733" transform="translate(569.435 346.603)" fill="#fff" stroke="#000" stroke-miterlimit="10" stroke-width="1"/><g transform="translate(528.822 358.029)"><path d="M541.092,383.231a15.543,15.543,0,0,1-1.026,4.839c-1.065,2.96-2.958,5.939-5.109,5.939-3.388,0-6.135-7.389-6.135-10.778a6.135,6.135,0,0,1,6.135-6.135h0A6.136,6.136,0,0,1,541.092,383.231Z" transform="translate(-528.822 -377.096)" fill="#236fe9" stroke="#000" stroke-miterlimit="10" stroke-width="1"/><path d="M2.733,0A2.733,2.733,0,1,1,0,2.733,2.733,2.733,0,0,1,2.733,0Z" transform="translate(3.401 3.401)" fill="#fff" stroke="#000" stroke-width="1"/></g><path d="M542.847,355.035V343.2l12.4,3.954v27.786l-6.269-2" transform="translate(-7.89 0)" fill="none" stroke="#000" stroke-linecap="round" stroke-linejoin="round" stroke-width="1"/><path d="M611.963,362.246v12.7l-12.4-3.954V343.2l5.289,1.686" transform="translate(-39.794 0)" fill="none" stroke="#000" stroke-linecap="round" stroke-linejoin="round" stroke-width="1"/><path d="M571.2,374.942l12.4-3.954V343.2l-12.4,3.954Z" transform="translate(-23.842 0)" fill="none" stroke="#000" stroke-linecap="round" stroke-linejoin="round" stroke-width="1"/><path d="M571.2,374.942l12.4-3.954V343.2l-12.4,3.954Z" transform="translate(-23.841 0)" fill="none" stroke="#000" stroke-linecap="round" stroke-linejoin="round" stroke-width="1"/></g></svg>