<svg xmlns="http://www.w3.org/2000/svg" width="51.5" height="31.856" viewBox="0 0 51.5 31.856"><g transform="translate(-2736.821 583.583)"><circle cx="4.785" cy="4.785" r="4.785" transform="translate(2774.831 -574.593)" fill="#236fe9" stroke="#000" stroke-miterlimit="10" stroke-width="1"/><path d="M2850.911-506.92V-515.3a1.312,1.312,0,0,1,1.312-1.312h13.785a1.312,1.312,0,0,1,1.312,1.312v8.376" transform="translate(-79.499 -45.538)" fill="#236fe9" stroke="#000" stroke-miterlimit="10" stroke-width="1"/><circle cx="4.785" cy="4.785" r="4.785" transform="translate(2740.74 -574.593)" fill="#e9b890" stroke="#000" stroke-miterlimit="10" stroke-width="1"/><path d="M2736.321-506.92V-515.3a1.312,1.312,0,0,1,1.312-1.312h13.785a1.312,1.312,0,0,1,1.312,1.312v8.376" transform="translate(1 -45.538)" fill="#e9b890" stroke="#000" stroke-miterlimit="10" stroke-width="1"/><circle cx="5.74" cy="5.74" r="5.74" transform="translate(2756.831 -583.083)" fill="#93c0ff" stroke="#000" stroke-miterlimit="10" stroke-width="1"/><path d="M2788.42-519.254v-14.853a1.574,1.574,0,0,1,1.574-1.574h16.535a1.574,1.574,0,0,1,1.573,1.574v14.853" transform="translate(-35.69 -32.473)" fill="#93c0ff" stroke="#000" stroke-miterlimit="10" stroke-width="1"/></g></svg>