<svg xmlns="http://www.w3.org/2000/svg" width="95.332" height="61.866" viewBox="0 0 95.332 61.866"><g transform="translate(-527.822 -342.202)"><path d="M637.034,354.773A29.311,29.311,0,0,1,635.1,363.9c-2.01,5.582-5.58,11.2-9.637,11.2-6.391,0-11.572-13.937-11.572-20.328A11.571,11.571,0,0,1,625.461,343.2h0A11.573,11.573,0,0,1,637.034,354.773Z" transform="translate(-14.879 0)" fill="none" stroke="#000" stroke-miterlimit="10" stroke-width="2"/><circle cx="5.156" cy="5.156" r="5.156" transform="translate(605.425 349.618)" fill="#fff" stroke="#000" stroke-miterlimit="10" stroke-width="2"/><g transform="translate(528.822 371.168)"><path d="M551.966,388.667a29.319,29.319,0,0,1-1.935,9.127c-2.009,5.583-5.579,11.2-9.637,11.2-6.389,0-11.572-13.937-11.572-20.328A11.572,11.572,0,0,1,540.394,377.1h0A11.573,11.573,0,0,1,551.966,388.667Z" transform="translate(-528.822 -377.096)" fill="none" stroke="#000" stroke-miterlimit="10" stroke-width="2"/><path d="M5.156,0A5.156,5.156,0,1,1,0,5.156,5.156,5.156,0,0,1,5.156,0Z" transform="translate(6.415 6.416)" fill="#fff" stroke="#000" stroke-width="2"/></g><path d="M542.847,365.521V343.2l23.4,7.457v52.409L554.419,399.3" transform="translate(-2.453 0)" fill="none" stroke="#000" stroke-linecap="round" stroke-linejoin="round" stroke-width="2"/><path d="M622.955,379.122v23.946l-23.4-7.457V343.2l9.975,3.179" transform="translate(-12.373 0)" fill="none" stroke="#000" stroke-linecap="round" stroke-linejoin="round" stroke-width="2"/><path d="M571.2,403.068l23.4-7.457V343.2l-23.4,7.457Z" transform="translate(-7.413 0)" fill="none" stroke="#000" stroke-linecap="round" stroke-linejoin="round" stroke-width="2"/><path d="M571.2,403.068l23.4-7.457V343.2l-23.4,7.457Z" transform="translate(-7.412 0)" fill="none" stroke="#000" stroke-linecap="round" stroke-linejoin="round" stroke-width="2"/></g></svg>