<svg xmlns="http://www.w3.org/2000/svg" width="47.294" height="47.294" viewBox="0 0 47.294 47.294"><g transform="translate(23.634 0.692) rotate(45)"><g transform="translate(0.021)"><path d="M31.474,22.388,18.944,9.859V4.3a6.133,6.133,0,0,0-.579-2.586l-.285-.541a2.027,2.027,0,0,0-3.664-.031l-.315.6A6.106,6.106,0,0,0,13.537,4.3V9.859L1.01,22.385a3.354,3.354,0,0,0-.989,2.388v1.584a.676.676,0,0,0,1.041.568L13.8,18.763c.126,2.045.3,3.752.5,5.83l.215,2.129L9.786,29.848a.678.678,0,0,0-.3.565v1.352a.677.677,0,0,0,.822.661L16.24,31.1l5.936,1.321a.673.673,0,0,0,.569-.132A.683.683,0,0,0,23,31.764V30.413a.672.672,0,0,0-.3-.564l-4.732-3.122.215-2.136c.208-2.075.378-3.78.5-5.825l12.738,8.16a.676.676,0,0,0,1.041-.568V24.774A3.35,3.35,0,0,0,31.474,22.388Z" transform="translate(-0.021)" fill="#93c0ff" stroke="#000" stroke-miterlimit="10" stroke-width="1"/></g></g></svg>