<svg xmlns="http://www.w3.org/2000/svg" width="278" height="88" viewBox="0 0 278 88">
  <g id="App_Store" data-name="App Store" transform="translate(-1765 7035)">
    <g id="Group_53" data-name="Group 53" transform="translate(1765 -7035.459)">
      <rect id="Rectangle_20" data-name="Rectangle 20" width="278" height="88" rx="10" transform="translate(0 0.458)"/>
      <path id="Path_4472" data-name="Path 4472" d="M-68.935,0V-11.22H-65.6a6.233,6.233,0,0,1,4.446,1.555A5.285,5.285,0,0,1-59.5-5.627a5.332,5.332,0,0,1-1.666,4.046A6.18,6.18,0,0,1-65.6,0Zm1.326-1.19h1.989a4.766,4.766,0,0,0,3.459-1.241,4.25,4.25,0,0,0,1.284-3.2,4.2,4.2,0,0,0-1.275-3.188A4.819,4.819,0,0,0-65.62-10.03h-1.989Zm9.775-2.958a4.052,4.052,0,0,1,1.267-3.06A4.091,4.091,0,0,1-53.5-8.466a4.084,4.084,0,0,1,3.077,1.258,4.064,4.064,0,0,1,1.258,3.06A4.046,4.046,0,0,1-50.439-1.1,4.105,4.105,0,0,1-53.516.17,4.052,4.052,0,0,1-56.576-1.1,4.071,4.071,0,0,1-57.834-4.148Zm7.327.017a3.1,3.1,0,0,0-.859-2.227,2.827,2.827,0,0,0-2.133-.9,2.84,2.84,0,0,0-2.133.893,3.1,3.1,0,0,0-.859,2.235,3.053,3.053,0,0,0,.859,2.2,2.821,2.821,0,0,0,2.116.893,2.862,2.862,0,0,0,2.134-.9A3.029,3.029,0,0,0-50.507-4.131ZM-36.04-8.279h1.394L-38.131.187h-.476l-2.822-6.256-2.8,6.256h-.459l-3.519-8.466h1.394l2.4,6.137,2.754-6.324h.493l2.788,6.273ZM-25.891-5.2V0H-27.2V-5.049a2.293,2.293,0,0,0-.552-1.6,1.925,1.925,0,0,0-1.5-.612,2.1,2.1,0,0,0-1.564.621,2.168,2.168,0,0,0-.612,1.589V0h-1.309V-8.279h1.224V-7.4a3.275,3.275,0,0,1,2.55-1.071,2.916,2.916,0,0,1,2.253.893A3.357,3.357,0,0,1-25.891-5.2ZM-23.12,0V-12.75h1.309V0Zm3.587-4.148a4.052,4.052,0,0,1,1.267-3.06A4.091,4.091,0,0,1-15.2-8.466a4.084,4.084,0,0,1,3.077,1.258,4.064,4.064,0,0,1,1.258,3.06A4.046,4.046,0,0,1-12.138-1.1,4.105,4.105,0,0,1-15.215.17,4.052,4.052,0,0,1-18.275-1.1,4.071,4.071,0,0,1-19.533-4.148Zm7.327.017a3.1,3.1,0,0,0-.859-2.227,2.827,2.827,0,0,0-2.134-.9,2.84,2.84,0,0,0-2.133.893,3.1,3.1,0,0,0-.858,2.235,3.053,3.053,0,0,0,.858,2.2,2.821,2.821,0,0,0,2.116.893,2.862,2.862,0,0,0,2.134-.9A3.029,3.029,0,0,0-12.206-4.131ZM-2.363-5.1V0H-3.587V-1.071A3.28,3.28,0,0,1-6.375.187,3.252,3.252,0,0,1-8.466-.451a2.056,2.056,0,0,1-.8-1.691,2.017,2.017,0,0,1,.816-1.683A3.442,3.442,0,0,1-6.29-4.454h2.618v-.714a2.112,2.112,0,0,0-.536-1.547,1.969,1.969,0,0,0-1.47-.544A2.986,2.986,0,0,0-8.092-5.933l-.867-.714A3.672,3.672,0,0,1-5.593-8.466a3.175,3.175,0,0,1,2.363.876A3.389,3.389,0,0,1-2.363-5.1ZM-3.672-3.179v-.2H-6.137q-1.785,0-1.785,1.173a1.119,1.119,0,0,0,.484.961A2.059,2.059,0,0,0-6.205-.9,2.6,2.6,0,0,0-4.42-1.564,2.079,2.079,0,0,0-3.672-3.179ZM6.97-12.75H8.279V0H7.038V-1.309A3.232,3.232,0,0,1,5.72-.213a4.168,4.168,0,0,1-1.811.4A3.846,3.846,0,0,1,.986-1.062,4.315,4.315,0,0,1-.187-4.131,4.319,4.319,0,0,1,.994-7.217,3.853,3.853,0,0,1,3.91-8.466a4.152,4.152,0,0,1,1.751.374A3.317,3.317,0,0,1,6.97-7.055Zm.017,8.619a3.072,3.072,0,0,0-.841-2.312A2.833,2.833,0,0,0,4.1-7.259,2.779,2.779,0,0,0,2-6.375a3.1,3.1,0,0,0-.842,2.227A3.131,3.131,0,0,0,2-1.913a2.767,2.767,0,0,0,2.1.893,2.833,2.833,0,0,0,2.049-.816A3.049,3.049,0,0,0,6.987-4.131Zm8.3-1.479a5.412,5.412,0,0,1,1.683-4.114A5.549,5.549,0,0,1,21.1-11.407a5.584,5.584,0,0,1,4.131,1.683,5.387,5.387,0,0,1,1.7,4.114,5.387,5.387,0,0,1-1.7,4.114A5.584,5.584,0,0,1,21.1.187,5.472,5.472,0,0,1,16.975-1.5,5.432,5.432,0,0,1,15.283-5.61Zm10.268-.017a4.363,4.363,0,0,0-1.275-3.247,4.141,4.141,0,0,0-3.162-1.309,4.271,4.271,0,0,0-3.179,1.3A4.463,4.463,0,0,0,16.66-5.627a4.521,4.521,0,0,0,1.275,3.273,4.243,4.243,0,0,0,3.179,1.317,4.128,4.128,0,0,0,3.162-1.317A4.412,4.412,0,0,0,25.551-5.627ZM36.04-5.2V0H34.731V-5.049a2.293,2.293,0,0,0-.552-1.6,1.925,1.925,0,0,0-1.5-.612,2.1,2.1,0,0,0-1.564.621A2.168,2.168,0,0,0,30.5-5.049V0H29.189V-8.279h1.224V-7.4a3.275,3.275,0,0,1,2.55-1.071,2.916,2.916,0,0,1,2.252.893A3.357,3.357,0,0,1,36.04-5.2Zm9.5,5.2V-10.03H41.6v-1.19H50.83v1.19H46.869V0ZM59.449-5.2V0H58.14V-5.032a2.311,2.311,0,0,0-.552-1.624,1.939,1.939,0,0,0-1.5-.6,2.088,2.088,0,0,0-1.564.629,2.2,2.2,0,0,0-.612,1.6V0H52.6V-12.75h1.309v5.406a3.009,3.009,0,0,1,2.482-1.122,2.9,2.9,0,0,1,2.236.893A3.357,3.357,0,0,1,59.449-5.2ZM69.53-3.74H62.985a2.894,2.894,0,0,0,.969,1.972,3.029,3.029,0,0,0,2.074.748,3.5,3.5,0,0,0,2.533-1.122l.765.884A4.45,4.45,0,0,1,66.011.187a4.269,4.269,0,0,1-3.119-1.25,4.143,4.143,0,0,1-1.267-3.069A4.238,4.238,0,0,1,62.858-7.2a4.029,4.029,0,0,1,3-1.266,3.7,3.7,0,0,1,2.695,1.054,3.593,3.593,0,0,1,1.079,2.686A5.025,5.025,0,0,1,69.53-3.74ZM63.036-4.9h5.253a2.3,2.3,0,0,0-.714-1.734,2.476,2.476,0,0,0-1.751-.646,2.684,2.684,0,0,0-1.8.655A2.992,2.992,0,0,0,63.036-4.9Z" transform="translate(163 32.458)" fill="#fff"/>
      <path id="Path_4471" data-name="Path 4471" d="M-51.94,0l-1.036-2.408h-7.56L-61.572,0h-4.06l8.26-18.816h1.26L-47.88,0Zm-2.352-5.516-2.464-6.244L-59.22-5.516Zm21.406-6.594a7.283,7.283,0,0,1,1.918,5.166A7.383,7.383,0,0,1-32.886-1.75a6.251,6.251,0,0,1-4.8,2.086,5.347,5.347,0,0,1-4.144-1.68V5.04h-3.78v-18.9h3.472v1.736a5.055,5.055,0,0,1,4.452-2.044A6.29,6.29,0,0,1-32.886-12.11ZM-34.8-6.916a3.865,3.865,0,0,0-1.008-2.772,3.393,3.393,0,0,0-2.576-1.064,3.373,3.373,0,0,0-2.506,1.008,3.815,3.815,0,0,0-.994,2.8,3.865,3.865,0,0,0,.994,2.814,3.349,3.349,0,0,0,2.506,1.022,3.4,3.4,0,0,0,2.562-1.064A3.8,3.8,0,0,0-34.8-6.916Zm19.53-5.194a7.283,7.283,0,0,1,1.918,5.166A7.383,7.383,0,0,1-15.274-1.75a6.251,6.251,0,0,1-4.8,2.086,5.347,5.347,0,0,1-4.144-1.68V5.04H-28v-18.9h3.472v1.736a5.055,5.055,0,0,1,4.452-2.044A6.29,6.29,0,0,1-15.274-12.11Zm-1.918,5.194A3.865,3.865,0,0,0-18.2-9.688a3.393,3.393,0,0,0-2.576-1.064,3.373,3.373,0,0,0-2.506,1.008,3.815,3.815,0,0,0-.994,2.8,3.865,3.865,0,0,0,.994,2.814,3.349,3.349,0,0,0,2.506,1.022,3.4,3.4,0,0,0,2.562-1.064A3.8,3.8,0,0,0-17.192-6.916ZM-3.584-3.752l2.6-1.96A5.591,5.591,0,0,0,3.556-3.024,3.068,3.068,0,0,0,5.488-3.57a1.8,1.8,0,0,0,.7-1.5,1.565,1.565,0,0,0-.476-1.218A8.081,8.081,0,0,0,3.836-7.364l-1.988-.9q-4.48-1.988-4.48-5.32A4.691,4.691,0,0,1-.9-17.374a6.648,6.648,0,0,1,4.4-1.442,6.954,6.954,0,0,1,3.64.938A6.7,6.7,0,0,1,9.6-15.316L7.028-13.328A4.17,4.17,0,0,0,3.5-15.456a2.707,2.707,0,0,0-1.652.476A1.545,1.545,0,0,0,1.2-13.664a1.484,1.484,0,0,0,.462,1.134,6.666,6.666,0,0,0,1.694.994l2.1.924A10.027,10.027,0,0,1,8.932-8.3a4.526,4.526,0,0,1,1.092,3.094A4.987,4.987,0,0,1,8.2-1.19,6.988,6.988,0,0,1,3.556.336,8.119,8.119,0,0,1-.63-.756,8.054,8.054,0,0,1-3.584-3.752Zm25.452.588V0a10.723,10.723,0,0,1-2.6.336,5.872,5.872,0,0,1-4.1-1.316A5.006,5.006,0,0,1,13.72-4.872v-5.8H11.536V-13.86H13.72v-3.5H17.5v3.5h3.92v3.192H17.5v5.46a2.035,2.035,0,0,0,.6,1.666,3.141,3.141,0,0,0,1.974.49Q20.552-3.052,21.868-3.164Zm1.68-3.78A6.724,6.724,0,0,1,25.7-12.068a7.084,7.084,0,0,1,5.264-2.1,7.129,7.129,0,0,1,5.278,2.1,6.7,6.7,0,0,1,2.17,5.124,6.728,6.728,0,0,1-2.184,5.138A7.152,7.152,0,0,1,30.94.308a7.016,7.016,0,0,1-5.25-2.114A6.787,6.787,0,0,1,23.548-6.944ZM33.53-4.228a3.724,3.724,0,0,0,1.022-2.688A3.822,3.822,0,0,0,33.53-9.632a3.362,3.362,0,0,0-2.562-1.092,3.371,3.371,0,0,0-2.576,1.078,3.84,3.84,0,0,0-1.008,2.73,3.753,3.753,0,0,0,1.008,2.688,3.393,3.393,0,0,0,2.576,1.064A3.4,3.4,0,0,0,33.53-4.228ZM49.868-13.86v3.332H48.86a3.853,3.853,0,0,0-2.73.924,3.491,3.491,0,0,0-.994,2.688V0h-3.78V-13.86h3.472v1.652a4.644,4.644,0,0,1,3.808-1.82A4.1,4.1,0,0,1,49.868-13.86Zm14.812,8.2H54.964a3.407,3.407,0,0,0,1.358,2.03,4.317,4.317,0,0,0,2.534.714,6.233,6.233,0,0,0,3.864-1.4l1.568,2.576A8.461,8.461,0,0,1,58.744.336,7.326,7.326,0,0,1,53.326-1.75a6.725,6.725,0,0,1-2.17-5.166,6.838,6.838,0,0,1,2.1-5.152,6.838,6.838,0,0,1,5.152-2.1A6.325,6.325,0,0,1,63.1-12.32a6.259,6.259,0,0,1,1.834,4.592A8.976,8.976,0,0,1,64.68-5.656Zm-9.716-2.66h6.3a2.688,2.688,0,0,0-.882-2.03,3.041,3.041,0,0,0-2.114-.77,3.156,3.156,0,0,0-2.1.756A3.716,3.716,0,0,0,54.964-8.316Z" transform="translate(159 65.458)" fill="#fff"/>
    </g>
    <g id="apple" transform="translate(1794.013 -7012.99)">
      <path id="Path_2590" data-name="Path 2590" d="M57.857,151.453c-6.477-.037-11.835-13.26-11.835-19.994,0-11,8.252-13.408,11.432-13.408a13.155,13.155,0,0,1,4.313,1.061,9.641,9.641,0,0,0,2.463.706A7.665,7.665,0,0,0,66,119.245a14.161,14.161,0,0,1,5.326-1.287h.012a10.916,10.916,0,0,1,9.135,4.613l.666,1-.959.723c-1.37,1.033-3.869,2.919-3.869,6.653a7.509,7.509,0,0,0,4.19,6.942c.6.361,1.222.733,1.222,1.548,0,.532-4.244,11.949-10.406,11.949a8.368,8.368,0,0,1-3.514-.853,7.125,7.125,0,0,0-3.128-.753,8.046,8.046,0,0,0-2.477.67,12.13,12.13,0,0,1-4.3,1Z" transform="translate(-46.022 -107.931)" fill="#fff"/>
      <path id="Path_2591" data-name="Path 2591" d="M263.331,0c.16,5.787-3.978,9.8-8.111,9.549C254.538,4.931,259.352,0,263.331,0Z" transform="translate(-237.377)" fill="#fff"/>
    </g>
  </g>
</svg>
