<svg id="apple" xmlns="http://www.w3.org/2000/svg" width="25.454" height="31.033" viewBox="0 0 25.454 31.033">
  <path id="Path_2590" data-name="Path 2590" d="M54.461,141.842c-4.619-.027-8.439-9.455-8.439-14.256,0-7.843,5.884-9.561,8.151-9.561a9.38,9.38,0,0,1,3.076.756,6.875,6.875,0,0,0,1.756.5,5.465,5.465,0,0,0,1.26-.408,10.1,10.1,0,0,1,3.8-.918h.009a7.783,7.783,0,0,1,6.513,3.29l.475.714-.684.516a5.753,5.753,0,0,0-2.759,4.744,5.354,5.354,0,0,0,2.988,4.95c.428.257.871.523.871,1.1,0,.379-3.026,8.52-7.42,8.52a5.967,5.967,0,0,1-2.506-.608,5.081,5.081,0,0,0-2.23-.537,5.737,5.737,0,0,0-1.766.478,8.649,8.649,0,0,1-3.063.715Z" transform="translate(-46.022 -110.808)"/>
  <path id="Path_2591" data-name="Path 2591" d="M260.984,0c.114,4.126-2.836,6.989-5.784,6.809C254.715,3.516,258.148,0,260.984,0Z" transform="translate(-242.478)"/>
</svg>
