<svg xmlns="http://www.w3.org/2000/svg" width="66.484" height="74.805" viewBox="0 0 66.484 74.805"><g transform="translate(-314.477 -54.12)"><path d="M352.6,55.146a14.259,14.259,0,0,1,4.851,1.2l7.655,3.341q3.257,1.311,2.153,4.476l-3.383,7.976-.214.2a23.932,23.932,0,0,1-3.512,2.923,22.826,22.826,0,0,1-24.883-.011,24.162,24.162,0,0,1-3.491-2.912l-.2-.193-.011-.011h.011l-3.415-7.976q-1.106-3.166,2.152-4.476l7.666-3.341a13.741,13.741,0,0,1,6.424-1.2Zm-21.029,17v-.011h32.3m-31.415,6.828c-.027.156-.055.314-.081.473a26.089,26.089,0,0,0-.027,7.264c.014.109.028.219.045.33q.18,1.075.455,2.133a26.871,26.871,0,0,0,3.052,7.219q.489.822,1.044,1.633v-.009c.147.216.3.429.455.642a.741.741,0,0,1,.1.134,14.137,14.137,0,0,0,1.454,1.633,8.2,8.2,0,0,0,3.123,1.955c.251.093.506.177.767.249q.559.145,1.169.259l.017.009a21.2,21.2,0,0,0,3.123.357l.349.009.045.009h.17l.206-.009.356-.009a21.322,21.322,0,0,0,3.123-.357l.009-.009q.614-.113,1.178-.259c.258-.072.511-.156.758-.249a9.774,9.774,0,0,0,4.578-3.587.529.529,0,0,1,.089-.116q.238-.32.464-.642v-.009a27.647,27.647,0,0,0,4.113-8.852q.267-1.057.446-2.133c.019-.11.036-.221.053-.33a25.206,25.206,0,0,0-.124-7.754M334.164,67.009h27.067m7.045,57.807q4.859-.391,9.723-1v-.01q2.308-.948,1.884-2.581t-2.344-6.874a35.027,35.027,0,0,0-3.03-6.8c-.068-.1-.135-.188-.2-.278l-.064-.075a3.587,3.587,0,0,0-2.184-1.392l-11.575-1.466a.039.039,0,0,1-.021.01v.01l-2.27,10.814m-27.12,12.388a19.224,19.224,0,0,1,3.329-4.4,18.882,18.882,0,0,1,26.714,0,19.2,19.2,0,0,1,3.329,4.4m-18.427-14.722-3.929-2.474.91-2.087c.409.076.829.144,1.264.2l.31.043q1.1.128,2.313.182h.043l.428.01h.011l.278.011.289-.011h.01l.428-.01h.033q1.212-.055,2.313-.182l.321-.043c.439-.059.863-.127,1.275-.2l.888,2.087-3.908,2.474m-22.132,11.97q-4.859-.391-9.722-1v-.01q-2.308-.948-1.884-2.581t2.344-6.874a34.956,34.956,0,0,1,3.031-6.8c.067-.1.134-.188.2-.278l.064-.075a3.592,3.592,0,0,1,2.184-1.392l11.575-1.466a.039.039,0,0,0,.021.01v.01l2.259,10.825m14.091,7.538.61,2.912-1.478.054q-1.236.045-2.473.085h-.675q-1.237-.04-2.474-.085l-1.477-.054.6-2.869" fill="none" stroke="#000" stroke-linecap="round" stroke-linejoin="round" stroke-width="2" fill-rule="evenodd"/></g></svg>