<svg xmlns="http://www.w3.org/2000/svg" width="126.733" height="27" viewBox="0 0 126.733 27"><g transform="translate(-1277.267 -26)"><text transform="translate(1307 48)" font-size="20" font-family="SegoeUI, Segoe UI"><tspan x="0" y="0">Contact Us</tspan></text><g transform="translate(-2097.793 490.029)"><path d="M3395.325-449.284a9.746,9.746,0,0,1-9.741,9.746,9.7,9.7,0,0,1-5.434-1.654l-4.312,1.654,1.43-4.669a9.678,9.678,0,0,1-1.43-5.077,9.744,9.744,0,0,1,9.746-9.746A9.743,9.743,0,0,1,3395.325-449.284Z" transform="translate(0 0)" fill="none" stroke="#000" stroke-miterlimit="10" stroke-width="1"/><g transform="translate(3378.89 -450.731)"><circle cx="1.448" cy="1.448" r="1.448" transform="translate(5.303)" fill="none" stroke="#000" stroke-miterlimit="10" stroke-width="1"/><circle cx="1.448" cy="1.448" r="1.448" transform="translate(10.606)" fill="none" stroke="#000" stroke-miterlimit="10" stroke-width="1"/><circle cx="1.448" cy="1.448" r="1.448" transform="translate(0)" fill="none" stroke="#000" stroke-miterlimit="10" stroke-width="1"/></g></g></g></svg>