<svg xmlns="http://www.w3.org/2000/svg" width="20.766" height="20.826" viewBox="0 0 20.766 20.826">
  <g id="contact-us" transform="translate(1538.778 12073.501)">
    <path id="Path_2621" data-name="Path 2621" d="M3395.325-449.284a9.746,9.746,0,0,1-9.741,9.746,9.7,9.7,0,0,1-5.434-1.654l-4.312,1.654,1.43-4.669a9.678,9.678,0,0,1-1.43-5.077,9.744,9.744,0,0,1,9.746-9.746A9.743,9.743,0,0,1,3395.325-449.284Z" transform="translate(-4913.838 -11613.971)" fill="none" stroke="#000" stroke-miterlimit="10" stroke-width="1"/>
    <circle id="Ellipse_35" data-name="Ellipse 35" cx="1.448" cy="1.448" r="1.448" transform="translate(-1529.645 -12064.702)" fill="none" stroke="#000" stroke-miterlimit="10" stroke-width="1"/>
    <circle id="Ellipse_36" data-name="Ellipse 36" cx="1.448" cy="1.448" r="1.448" transform="translate(-1524.342 -12064.702)" fill="none" stroke="#000" stroke-miterlimit="10" stroke-width="1"/>
    <circle id="Ellipse_37" data-name="Ellipse 37" cx="1.448" cy="1.448" r="1.448" transform="translate(-1534.948 -12064.702)" fill="none" stroke="#000" stroke-miterlimit="10" stroke-width="1"/>
  </g>
</svg>
