<svg xmlns="http://www.w3.org/2000/svg" width="78.417" height="60.141" viewBox="0 0 78.417 60.141"><g transform="translate(1 1)"><path d="M853.21,96.946l16.988-29.5a8.217,8.217,0,0,0,9.907-1.329,8.635,8.635,0,0,0,1.329-1.695l6.706,3.87a8.243,8.243,0,0,0,1.328,9.9,8.611,8.611,0,0,0,1.695,1.329L872.846,111.34a8.215,8.215,0,0,0-9.907,1.328,8.5,8.5,0,0,0-1.318,1.685l-4-2.3m23.81-47.628-7.124-4.111L870.2,67.447m20.964,12.072,4.1-7.124-7.123-4.1m-10.8,5.419a2.934,2.934,0,1,0,5.377.711,2.843,2.843,0,0,0-1.37-1.788,2.807,2.807,0,0,0-2.218-.293A2.85,2.85,0,0,0,877.344,73.713Zm4.446,13.515a12.858,12.858,0,0,0-3.661-4.508,16.351,16.351,0,0,0-2-1.35,13.545,13.545,0,0,0-7.888-1.956M878.37,93.3l-1.549-.91a3.447,3.447,0,0,0,.189-.6l.794-3.65m-12.522,2.416.785-3.65a3.892,3.892,0,0,1,.187-.639,3.252,3.252,0,0,1,1.1-1.381,2.946,2.946,0,0,1,2.249-.533l.012-.011a2.612,2.612,0,0,1,1.841,1.223,2.948,2.948,0,0,1,.387,2.291l-.649,3.044a2.98,2.98,0,0,0,.408,2.2,2.637,2.637,0,0,0,1.862,1.235h.01a2.827,2.827,0,0,0,2.219-.555,3.191,3.191,0,0,0,1.129-1.391m-12.114-7.02,1.547.9m-11.516-.356a25.249,25.249,0,0,0-5.932,1.925,34.058,34.058,0,0,0-6.926,4.373l-5.732,4.665a9.232,9.232,0,0,1-7.438,2.3l-7.061-.868-2.8,15.91q12.289,6.245,21.393,1.695l22.23-11.13q2.414-1.515,1.035-3.755a2.631,2.631,0,0,0-.983-.931q-1.64-.9-5.1-.063-.226.059-.459.126l-9.865,2.552m14.164-11.161a12.829,12.829,0,0,0,.952,1.632,13.129,13.129,0,0,0,2.417,2.635,16.036,16.036,0,0,0,2.28,1.58,13.551,13.551,0,0,0,7.909,1.946m-13.192,15.012,7.124,4.1,4.1-7.113" transform="translate(-818.846 -60.313)" fill="none" stroke="#000" stroke-linecap="round" stroke-linejoin="round" stroke-width="2" fill-rule="evenodd"/></g></svg>