<svg xmlns="http://www.w3.org/2000/svg" width="31.151" height="31.151" viewBox="0 0 31.151 31.151">
  <path id="Subtraction_1" data-name="Subtraction 1" d="M16.64,31.151H1.719A1.721,1.721,0,0,1,0,29.432V1.719A1.721,1.721,0,0,1,1.718,0H29.431a1.721,1.721,0,0,1,1.719,1.718V29.431a1.721,1.721,0,0,1-1.719,1.719H21.507V19.576h4.061l.608-4.715H21.507v-3a2.467,2.467,0,0,1,.433-1.656,2.358,2.358,0,0,1,1.9-.634h2.475V5.362a33.374,33.374,0,0,0-3.627-.185c-3.73,0-6.046,2.381-6.046,6.214v3.47H12.594v4.715H16.64V31.151Z" fill="#4460f1"/>
</svg>
