<?xml version="1.0" encoding="utf-8"?>
<!-- Generator: Adobe Illustrator 15.1.0, SVG Export Plug-In . SVG Version: 6.00 Build 0)  -->
<!DOCTYPE svg PUBLIC "-//W3C//DTD SVG 1.1//EN" "http://www.w3.org/Graphics/SVG/1.1/DTD/svg11.dtd">
<svg version="1.1" id="Layer_1" xmlns="http://www.w3.org/2000/svg" xmlns:xlink="http://www.w3.org/1999/xlink" x="0px" y="0px"
	 width="24px" height="24px" viewBox="0 0 24 24" enable-background="new 0 0 24 24" xml:space="preserve">
<g transform="translate(110.796 367.862)">
	<path fill="#010202" d="M-93.679-357.247c1.812-1.812,1.812-4.75,0-6.563c-0.87-0.87-2.05-1.359-3.28-1.359h-9.37v2.872h9.37
		c0.977,0,1.769,0.792,1.769,1.769s-0.792,1.769-1.769,1.769h-9.37v2.872h9.37C-95.728-355.884-94.547-356.374-93.679-357.247z"/>
	<path fill="#010202" d="M-91.506-348.426c-1.937-0.004-3.82-0.632-5.371-1.792l-1.751-1.315c-2.047-1.537-4.537-2.368-7.097-2.369
		h-0.605v2.872h0.605c1.937,0.004,3.821,0.633,5.371,1.793l1.752,1.315c2.046,1.537,4.537,2.368,7.096,2.368h0.222v-2.871
		L-91.506-348.426z"/>
</g>
</svg>
