<svg xmlns="http://www.w3.org/2000/svg" width="235" height="74" viewBox="0 0 235 74">
  <g id="footer-google-play" transform="translate(199 4893)">
    <g id="Group_311" data-name="Group 311" transform="translate(-198.508 -4893)">
      <rect id="Rectangle_20" data-name="Rectangle 20" width="235" height="74" rx="10" transform="translate(-0.492 0)" fill="#fff"/>
      <path id="Path_4470" data-name="Path 4470" d="M-29.008-4.62a4.508,4.508,0,0,1,1.393-3.395,4.575,4.575,0,0,1,3.409-1.379,4.667,4.667,0,0,1,2.142.5A4.453,4.453,0,0,1-20.44-7.5l-.826.644a3.5,3.5,0,0,0-2.94-1.526,3.416,3.416,0,0,0-2.632,1.078,3.617,3.617,0,0,0-1.036,2.674,3.661,3.661,0,0,0,1.057,2.716A3.477,3.477,0,0,0-24.15-.826a3.682,3.682,0,0,0,1.8-.441A3.4,3.4,0,0,0-21.07-2.478V-3.724h-3.15V-4.7h4.242V-2.24a4.633,4.633,0,0,1-1.75,1.75,4.833,4.833,0,0,1-2.478.644,4.575,4.575,0,0,1-3.409-1.379A4.508,4.508,0,0,1-29.008-4.62Zm16.982,1.54h-5.39a2.383,2.383,0,0,0,.8,1.624A2.494,2.494,0,0,0-14.91-.84a2.88,2.88,0,0,0,2.086-.924l.63.728a3.665,3.665,0,0,1-2.73,1.19A3.516,3.516,0,0,1-17.493-.875,3.412,3.412,0,0,1-18.536-3.4a3.49,3.49,0,0,1,1.015-2.527A3.318,3.318,0,0,1-15.05-6.972a3.05,3.05,0,0,1,2.219.868,2.959,2.959,0,0,1,.889,2.212A4.138,4.138,0,0,1-12.026-3.08Zm-5.348-.952h4.326a1.9,1.9,0,0,0-.588-1.428,2.039,2.039,0,0,0-1.442-.532,2.21,2.21,0,0,0-1.484.539A2.464,2.464,0,0,0-17.374-4.032ZM-6.328-.91V0A5.378,5.378,0,0,1-7.462.154a2.393,2.393,0,0,1-1.694-.56,2.147,2.147,0,0,1-.6-1.652V-5.852h-1.148v-.966h1.148V-8.68H-8.68v1.862h2.128v.966H-8.68v3.724a1.244,1.244,0,0,0,.357,1,1.654,1.654,0,0,0,1.085.3A5.773,5.773,0,0,0-6.328-.91ZM-.714,0V-9.24H.378V0Zm7.2-.91V0A5.378,5.378,0,0,1,5.348.154a2.393,2.393,0,0,1-1.694-.56,2.147,2.147,0,0,1-.6-1.652V-5.852H1.9v-.966H3.052V-8.68H4.13v1.862H6.258v.966H4.13v3.724a1.244,1.244,0,0,0,.357,1,1.654,1.654,0,0,0,1.085.3A5.773,5.773,0,0,0,6.482-.91Zm5.012-3.71A4.457,4.457,0,0,1,12.88-8.008a4.57,4.57,0,0,1,3.4-1.386,4.6,4.6,0,0,1,3.4,1.386,4.436,4.436,0,0,1,1.4,3.388,4.436,4.436,0,0,1-1.4,3.388,4.6,4.6,0,0,1-3.4,1.386,4.506,4.506,0,0,1-3.4-1.386A4.474,4.474,0,0,1,11.494-4.62Zm8.456-.014A3.593,3.593,0,0,0,18.9-7.308a3.41,3.41,0,0,0-2.6-1.078,3.517,3.517,0,0,0-2.618,1.071,3.675,3.675,0,0,0-1.05,2.681,3.723,3.723,0,0,0,1.05,2.7A3.494,3.494,0,0,0,16.3-.854a3.4,3.4,0,0,0,2.6-1.085A3.633,3.633,0,0,0,19.95-4.634Zm8.638.35V0H27.51V-4.158a1.889,1.889,0,0,0-.455-1.316,1.585,1.585,0,0,0-1.239-.5,1.732,1.732,0,0,0-1.288.511,1.786,1.786,0,0,0-.5,1.309V0H22.946V-6.818h1.008v.728a2.7,2.7,0,0,1,2.1-.882,2.4,2.4,0,0,1,1.855.735A2.764,2.764,0,0,1,28.588-4.284Z" transform="translate(108.508 27)"/>
      <path id="Path_4469" data-name="Path 4469" d="M-64.434-7.59A7.266,7.266,0,0,1-62.1-13.179a7.861,7.861,0,0,1,5.785-2.277,7.406,7.406,0,0,1,6.394,3.289l-2.208,1.817a4.984,4.984,0,0,0-4.232-2.231,4.678,4.678,0,0,0-3.519,1.4A4.948,4.948,0,0,0-61.237-7.59a5,5,0,0,0,1.4,3.657,4.9,4.9,0,0,0,3.657,1.426,4.615,4.615,0,0,0,4-1.886V-5.635h-4.186V-8.326h7.291v4.485a8.043,8.043,0,0,1-2.967,2.99A8.178,8.178,0,0,1-56.315.276a7.743,7.743,0,0,1-5.75-2.266A7.36,7.36,0,0,1-64.434-7.59ZM-47.23-5.7a5.523,5.523,0,0,1,1.771-4.209,5.819,5.819,0,0,1,4.324-1.725A5.856,5.856,0,0,1-36.8-9.913,5.507,5.507,0,0,1-35.017-5.7a5.527,5.527,0,0,1-1.794,4.221A5.875,5.875,0,0,1-41.158.253a5.763,5.763,0,0,1-4.312-1.737A5.575,5.575,0,0,1-47.23-5.7Zm8.2,2.231a3.059,3.059,0,0,0,.84-2.208,3.14,3.14,0,0,0-.84-2.231,2.762,2.762,0,0,0-2.1-.9,2.769,2.769,0,0,0-2.116.885,3.154,3.154,0,0,0-.828,2.242,3.083,3.083,0,0,0,.828,2.208,2.787,2.787,0,0,0,2.116.874A2.8,2.8,0,0,0-39.031-3.473ZM-33.246-5.7a5.523,5.523,0,0,1,1.771-4.209,5.819,5.819,0,0,1,4.324-1.725,5.856,5.856,0,0,1,4.336,1.725A5.507,5.507,0,0,1-21.033-5.7a5.527,5.527,0,0,1-1.794,4.221A5.874,5.874,0,0,1-27.174.253a5.763,5.763,0,0,1-4.312-1.737A5.575,5.575,0,0,1-33.246-5.7Zm8.2,2.231a3.059,3.059,0,0,0,.84-2.208,3.14,3.14,0,0,0-.84-2.231,2.762,2.762,0,0,0-2.1-.9,2.769,2.769,0,0,0-2.116.885A3.154,3.154,0,0,0-30.1-5.681a3.083,3.083,0,0,0,.828,2.208,2.787,2.787,0,0,0,2.116.874A2.8,2.8,0,0,0-25.047-3.473Zm15.008-7.912h2.852v10.12A5.457,5.457,0,0,1-8.774,2.944a6.076,6.076,0,0,1-4.3,1.472A8.171,8.171,0,0,1-18.664,2.3L-17.031.138a6.333,6.333,0,0,0,3.7,1.472,3.329,3.329,0,0,0,2.22-.69,2.473,2.473,0,0,0,.816-2V-1.7A4.471,4.471,0,0,1-13.765-.345a5.217,5.217,0,0,1-3.91-1.587A5.6,5.6,0,0,1-19.216-6a5.552,5.552,0,0,1,1.541-4.071,5.257,5.257,0,0,1,3.91-1.564,4.336,4.336,0,0,1,3.726,1.679Zm-.207,5.336a2.844,2.844,0,0,0-.816-2.174,2.881,2.881,0,0,0-2.059-.771,2.91,2.91,0,0,0-2.116.805,2.877,2.877,0,0,0-.828,2.162,3.01,3.01,0,0,0,.84,2.208,2.834,2.834,0,0,0,2.1.851A2.781,2.781,0,0,0-11.074-3.8,3.046,3.046,0,0,0-10.246-6.049ZM-4.105,0V-17.25H-1V0ZM12.547-4.646H4.566A2.8,2.8,0,0,0,5.681-2.979a3.546,3.546,0,0,0,2.082.587,5.12,5.12,0,0,0,3.174-1.15l1.288,2.116A6.95,6.95,0,0,1,7.671.276,6.018,6.018,0,0,1,3.22-1.437,5.524,5.524,0,0,1,1.438-5.681,5.617,5.617,0,0,1,3.163-9.913a5.617,5.617,0,0,1,4.232-1.725,5.2,5.2,0,0,1,3.853,1.518,5.141,5.141,0,0,1,1.506,3.772A7.374,7.374,0,0,1,12.547-4.646ZM4.566-6.831H9.741A2.208,2.208,0,0,0,9.016-8.5,2.5,2.5,0,0,0,7.28-9.131a2.592,2.592,0,0,0-1.725.621A3.053,3.053,0,0,0,4.566-6.831ZM21.816,0V-15.18h5.7a5.732,5.732,0,0,1,3.933,1.357,4.5,4.5,0,0,1,1.541,3.542,4.54,4.54,0,0,1-1.541,3.542,5.673,5.673,0,0,1-3.933,1.38h-2.6V0Zm3.1-8.073h2.6a2.285,2.285,0,0,0,1.691-.61,2.162,2.162,0,0,0,.61-1.6,2.054,2.054,0,0,0-.633-1.564,2.328,2.328,0,0,0-1.667-.6h-2.6ZM35.271,0V-17.25h3.1V0ZM51-6.762V0H48.151V-1.1A4.614,4.614,0,0,1,44.678.276a4.173,4.173,0,0,1-2.864-.943,3.126,3.126,0,0,1-1.069-2.461,2.885,2.885,0,0,1,1.162-2.426,5.056,5.056,0,0,1,3.139-.885H47.9v-.506a1.958,1.958,0,0,0-.541-1.484,2.192,2.192,0,0,0-1.575-.517,3.223,3.223,0,0,0-1.541.368,6,6,0,0,0-1.472,1.2l-1.61-1.909a6.229,6.229,0,0,1,4.968-2.346,4.892,4.892,0,0,1,3.565,1.277A4.793,4.793,0,0,1,51-6.762ZM47.9-4.255v-.138H45.46q-1.587,0-1.587,1.15a1.072,1.072,0,0,0,.448.908A1.937,1.937,0,0,0,45.506-2a2.415,2.415,0,0,0,1.714-.632A2.118,2.118,0,0,0,47.9-4.255Zm13.869-7.13h3.266L59.582.989a6.5,6.5,0,0,1-1.863,2.6,4.258,4.258,0,0,1-2.668.828,7.756,7.756,0,0,1-2-.276v-2.6q.943.092,1.334.092a2.654,2.654,0,0,0,1.426-.345,2.668,2.668,0,0,0,.943-1.2L57.1-.69l-4.37-10.7h3.289L58.8-3.91Z" transform="translate(143.508 54)"/>
    </g>
    <g id="playstore" transform="translate(-170.107 -4874.416)">
      <g id="Group_56" data-name="Group 56" transform="translate(2.75 0)">
        <g id="Group_55" data-name="Group 55" transform="translate(0)">
          <path id="Path_2592" data-name="Path 2592" d="M63.552.57A3.556,3.556,0,0,0,60.8.095l16.36,16.36,5.3-5.3Z" transform="translate(-60.802 0)"/>
        </g>
      </g>
      <g id="Group_58" data-name="Group 58" transform="translate(0 1.425)">
        <g id="Group_57" data-name="Group 57" transform="translate(0)">
          <path id="Path_2593" data-name="Path 2593" d="M22.71,20.116a3.555,3.555,0,0,0-.719,2.139V51.4a3.555,3.555,0,0,0,.719,2.139l16.71-16.71Z" transform="translate(-21.991 -20.116)"/>
        </g>
      </g>
      <g id="Group_60" data-name="Group 60" transform="translate(20.79 12.359)">
        <g id="Group_59" data-name="Group 59">
          <path id="Path_2594" data-name="Path 2594" d="M325.993,177.116l-4.765-2.666-5.777,5.777L321.228,186l4.766-2.667a3.565,3.565,0,0,0,0-6.221Z" transform="translate(-315.451 -174.45)"/>
        </g>
      </g>
      <g id="Group_62" data-name="Group 62" transform="translate(2.75 19.816)">
        <g id="Group_61" data-name="Group 61" transform="translate(0)">
          <path id="Path_2595" data-name="Path 2595" d="M77.174,279.711,60.815,296.07a3.531,3.531,0,0,0,2.749-.475l18.913-10.582Z" transform="translate(-60.815 -279.711)"/>
        </g>
      </g>
    </g>
  </g>
</svg>
