<svg xmlns="http://www.w3.org/2000/svg" width="235" height="74" viewBox="0 0 235 74">
  <g id="footer-play-store" transform="translate(467 4893)">
    <g id="Group_310" data-name="Group 310" transform="translate(-467 -4893)">
      <rect id="Rectangle_20" data-name="Rectangle 20" width="235" height="74" rx="10" transform="translate(0 0)" fill="#fff"/>
      <path id="Path_4468" data-name="Path 4468" d="M-56.77,0V-9.24h2.744a5.133,5.133,0,0,1,3.661,1.281A4.352,4.352,0,0,1-49-4.634,4.391,4.391,0,0,1-50.372-1.3,5.089,5.089,0,0,1-54.026,0Zm1.092-.98h1.638A3.925,3.925,0,0,0-51.191-2a3.5,3.5,0,0,0,1.057-2.632,3.461,3.461,0,0,0-1.05-2.625,3.968,3.968,0,0,0-2.856-1h-1.638Zm8.05-2.436a3.337,3.337,0,0,1,1.043-2.52,3.369,3.369,0,0,1,2.527-1.036,3.363,3.363,0,0,1,2.534,1.036,3.347,3.347,0,0,1,1.036,2.52A3.332,3.332,0,0,1-41.538-.9,3.381,3.381,0,0,1-44.072.14,3.337,3.337,0,0,1-46.592-.9,3.353,3.353,0,0,1-47.628-3.416Zm6.034.014A2.556,2.556,0,0,0-42.3-5.236a2.328,2.328,0,0,0-1.757-.742,2.339,2.339,0,0,0-1.757.735A2.55,2.55,0,0,0-46.522-3.4a2.515,2.515,0,0,0,.707,1.813,2.323,2.323,0,0,0,1.743.735A2.357,2.357,0,0,0-42.315-1.6,2.5,2.5,0,0,0-41.594-3.4ZM-29.68-6.818h1.148L-31.4.154h-.392L-34.118-5-36.428.154h-.378l-2.9-6.972h1.148l1.974,5.054,2.268-5.208h.406l2.3,5.166Zm8.358,2.534V0H-22.4V-4.158a1.889,1.889,0,0,0-.455-1.316,1.585,1.585,0,0,0-1.239-.5,1.732,1.732,0,0,0-1.288.511,1.786,1.786,0,0,0-.5,1.309V0h-1.078V-6.818h1.008v.728a2.7,2.7,0,0,1,2.1-.882A2.4,2.4,0,0,1-22-6.237,2.764,2.764,0,0,1-21.322-4.284ZM-19.04,0V-10.5h1.078V0Zm2.954-3.416a3.337,3.337,0,0,1,1.043-2.52,3.369,3.369,0,0,1,2.527-1.036A3.363,3.363,0,0,1-9.982-5.936a3.347,3.347,0,0,1,1.036,2.52A3.332,3.332,0,0,1-10-.9,3.381,3.381,0,0,1-12.53.14,3.337,3.337,0,0,1-15.05-.9,3.353,3.353,0,0,1-16.086-3.416Zm6.034.014a2.556,2.556,0,0,0-.707-1.834,2.328,2.328,0,0,0-1.757-.742,2.339,2.339,0,0,0-1.757.735A2.55,2.55,0,0,0-14.98-3.4a2.515,2.515,0,0,0,.707,1.813,2.323,2.323,0,0,0,1.743.735A2.357,2.357,0,0,0-10.773-1.6,2.5,2.5,0,0,0-10.052-3.4Zm8.106-.8V0H-2.954V-.882A2.7,2.7,0,0,1-5.25.154,2.678,2.678,0,0,1-6.972-.371,1.693,1.693,0,0,1-7.63-1.764,1.661,1.661,0,0,1-6.958-3.15,2.835,2.835,0,0,1-5.18-3.668h2.156v-.588A1.74,1.74,0,0,0-3.465-5.53a1.622,1.622,0,0,0-1.211-.448A2.459,2.459,0,0,0-6.664-4.886l-.714-.588a3.024,3.024,0,0,1,2.772-1.5,2.615,2.615,0,0,1,1.946.721A2.791,2.791,0,0,1-1.946-4.2ZM-3.024-2.618v-.168h-2.03q-1.47,0-1.47.966a.921.921,0,0,0,.4.791A1.7,1.7,0,0,0-5.11-.742a2.142,2.142,0,0,0,1.47-.546A1.712,1.712,0,0,0-3.024-2.618ZM5.74-10.5H6.818V0H5.8V-1.078a2.662,2.662,0,0,1-1.085.9A3.432,3.432,0,0,1,3.22.154,3.167,3.167,0,0,1,.812-.875,3.554,3.554,0,0,1-.154-3.4,3.557,3.557,0,0,1,.819-5.943a3.173,3.173,0,0,1,2.4-1.029,3.419,3.419,0,0,1,1.442.308A2.731,2.731,0,0,1,5.74-5.81Zm.014,7.1a2.53,2.53,0,0,0-.693-1.9,2.333,2.333,0,0,0-1.687-.672,2.289,2.289,0,0,0-1.729.728A2.554,2.554,0,0,0,.952-3.416a2.579,2.579,0,0,0,.693,1.841A2.278,2.278,0,0,0,3.374-.84a2.333,2.333,0,0,0,1.687-.672A2.511,2.511,0,0,0,5.754-3.4ZM12.586-4.62a4.457,4.457,0,0,1,1.386-3.388,4.57,4.57,0,0,1,3.4-1.386,4.6,4.6,0,0,1,3.4,1.386,4.436,4.436,0,0,1,1.4,3.388,4.436,4.436,0,0,1-1.4,3.388,4.6,4.6,0,0,1-3.4,1.386,4.506,4.506,0,0,1-3.395-1.386A4.474,4.474,0,0,1,12.586-4.62Zm8.456-.014a3.593,3.593,0,0,0-1.05-2.674,3.41,3.41,0,0,0-2.6-1.078A3.517,3.517,0,0,0,14.77-7.315a3.675,3.675,0,0,0-1.05,2.681,3.723,3.723,0,0,0,1.05,2.7A3.494,3.494,0,0,0,17.388-.854a3.4,3.4,0,0,0,2.6-1.085A3.633,3.633,0,0,0,21.042-4.634Zm8.638.35V0H28.6V-4.158a1.889,1.889,0,0,0-.455-1.316,1.585,1.585,0,0,0-1.239-.5,1.732,1.732,0,0,0-1.288.511,1.786,1.786,0,0,0-.5,1.309V0H24.038V-6.818h1.008v.728a2.7,2.7,0,0,1,2.1-.882A2.4,2.4,0,0,1,29-6.237,2.764,2.764,0,0,1,29.68-4.284ZM37.506,0V-8.26H34.258v-.98h7.6v.98H38.6V0ZM48.958-4.284V0H47.88V-4.144a1.9,1.9,0,0,0-.455-1.337,1.6,1.6,0,0,0-1.239-.5A1.719,1.719,0,0,0,44.9-5.46a1.81,1.81,0,0,0-.5,1.316V0H43.316V-10.5h1.078v4.452a2.478,2.478,0,0,1,2.044-.924,2.384,2.384,0,0,1,1.841.735A2.764,2.764,0,0,1,48.958-4.284Zm8.3,1.2H51.87a2.383,2.383,0,0,0,.8,1.624,2.494,2.494,0,0,0,1.708.616,2.88,2.88,0,0,0,2.086-.924l.63.728a3.665,3.665,0,0,1-2.73,1.19A3.516,3.516,0,0,1,51.793-.875,3.412,3.412,0,0,1,50.75-3.4a3.49,3.49,0,0,1,1.015-2.527,3.318,3.318,0,0,1,2.471-1.043,3.05,3.05,0,0,1,2.219.868,2.959,2.959,0,0,1,.889,2.212A4.138,4.138,0,0,1,57.26-3.08Zm-5.348-.952h4.326A1.9,1.9,0,0,0,55.65-5.46a2.039,2.039,0,0,0-1.442-.532,2.21,2.21,0,0,0-1.484.539A2.464,2.464,0,0,0,51.912-4.032Z" transform="translate(137 27)"/>
      <path id="Path_4467" data-name="Path 4467" d="M-42.665,0l-.851-1.978h-6.21L-50.577,0h-3.335l6.785-15.456h1.035L-39.33,0ZM-44.6-4.531-46.621-9.66l-2.024,5.129Zm17.584-5.417A5.982,5.982,0,0,1-25.438-5.7a6.065,6.065,0,0,1-1.575,4.267A5.135,5.135,0,0,1-30.958.276a4.392,4.392,0,0,1-3.4-1.38V4.14h-3.1V-11.385h2.852v1.426a4.152,4.152,0,0,1,3.657-1.679A5.167,5.167,0,0,1-27.013-9.948Zm-1.576,4.267a3.175,3.175,0,0,0-.828-2.277,2.787,2.787,0,0,0-2.116-.874A2.77,2.77,0,0,0-33.591-8a3.134,3.134,0,0,0-.817,2.3,3.175,3.175,0,0,0,.817,2.312,2.751,2.751,0,0,0,2.059.839,2.8,2.8,0,0,0,2.1-.874A3.119,3.119,0,0,0-28.589-5.681Zm16.043-4.267A5.982,5.982,0,0,1-10.971-5.7a6.065,6.065,0,0,1-1.575,4.267A5.135,5.135,0,0,1-16.491.276a4.392,4.392,0,0,1-3.4-1.38V4.14H-23V-11.385h2.852v1.426a4.152,4.152,0,0,1,3.657-1.679A5.167,5.167,0,0,1-12.546-9.948Zm-1.576,4.267a3.175,3.175,0,0,0-.828-2.277,2.787,2.787,0,0,0-2.116-.874A2.77,2.77,0,0,0-19.124-8a3.134,3.134,0,0,0-.816,2.3,3.175,3.175,0,0,0,.816,2.312,2.751,2.751,0,0,0,2.059.839,2.8,2.8,0,0,0,2.1-.874A3.119,3.119,0,0,0-14.122-5.681Zm11.178,2.6L-.8-4.692A4.593,4.593,0,0,0,2.921-2.484a2.52,2.52,0,0,0,1.587-.449,1.475,1.475,0,0,0,.575-1.23,1.285,1.285,0,0,0-.391-1,6.638,6.638,0,0,0-1.541-.885L1.518-6.785q-3.68-1.633-3.68-4.37A3.853,3.853,0,0,1-.736-14.272a5.461,5.461,0,0,1,3.611-1.185,5.712,5.712,0,0,1,2.99.771,5.5,5.5,0,0,1,2.024,2.1L5.773-10.948a3.425,3.425,0,0,0-2.9-1.748,2.224,2.224,0,0,0-1.357.391,1.269,1.269,0,0,0-.529,1.081,1.219,1.219,0,0,0,.38.932,5.475,5.475,0,0,0,1.391.816l1.725.759a8.237,8.237,0,0,1,2.852,1.9,3.717,3.717,0,0,1,.9,2.542,4.1,4.1,0,0,1-1.495,3.3A5.74,5.74,0,0,1,2.921.276a6.669,6.669,0,0,1-3.439-.9A6.615,6.615,0,0,1-2.944-3.082ZM17.963-2.6V0a8.808,8.808,0,0,1-2.139.276,4.823,4.823,0,0,1-3.37-1.081A4.112,4.112,0,0,1,11.27-4V-8.763H9.476v-2.622H11.27V-14.26h3.1v2.875H17.6v2.622h-3.22v4.485A1.672,1.672,0,0,0,14.87-2.91a2.58,2.58,0,0,0,1.621.4Q16.882-2.507,17.963-2.6ZM19.343-5.7a5.523,5.523,0,0,1,1.771-4.209,5.819,5.819,0,0,1,4.324-1.725,5.856,5.856,0,0,1,4.336,1.725A5.507,5.507,0,0,1,31.556-5.7a5.527,5.527,0,0,1-1.794,4.221A5.874,5.874,0,0,1,25.415.253,5.763,5.763,0,0,1,21.1-1.484,5.575,5.575,0,0,1,19.343-5.7Zm8.2,2.231a3.059,3.059,0,0,0,.84-2.208,3.14,3.14,0,0,0-.84-2.231,2.762,2.762,0,0,0-2.1-.9,2.769,2.769,0,0,0-2.116.885,3.154,3.154,0,0,0-.828,2.242,3.083,3.083,0,0,0,.828,2.208,2.787,2.787,0,0,0,2.116.874A2.8,2.8,0,0,0,27.542-3.473Zm13.421-7.912v2.737h-.828a3.165,3.165,0,0,0-2.243.759,2.867,2.867,0,0,0-.817,2.208V0h-3.1V-11.385h2.852v1.357a3.815,3.815,0,0,1,3.128-1.495A3.365,3.365,0,0,1,40.963-11.385ZM53.13-4.646H45.149a2.8,2.8,0,0,0,1.115,1.668,3.546,3.546,0,0,0,2.082.587,5.12,5.12,0,0,0,3.174-1.15l1.288,2.116a6.95,6.95,0,0,1-4.554,1.7A6.018,6.018,0,0,1,43.8-1.437a5.524,5.524,0,0,1-1.783-4.244,5.617,5.617,0,0,1,1.725-4.232,5.617,5.617,0,0,1,4.232-1.725,5.2,5.2,0,0,1,3.853,1.518,5.141,5.141,0,0,1,1.507,3.772A7.373,7.373,0,0,1,53.13-4.646ZM45.149-6.831h5.175A2.208,2.208,0,0,0,49.6-8.5a2.5,2.5,0,0,0-1.737-.633,2.592,2.592,0,0,0-1.725.621A3.053,3.053,0,0,0,45.149-6.831Z" transform="translate(133 54)"/>
    </g>
    <g id="apple" transform="translate(-442.502 -4874.417)">
      <path id="Path_2590" data-name="Path 2590" d="M56.015,146.238c-5.469-.032-9.993-11.2-9.993-16.881,0-9.287,6.967-11.321,9.652-11.321a11.107,11.107,0,0,1,3.642.9,8.14,8.14,0,0,0,2.08.6,6.472,6.472,0,0,0,1.492-.484,11.957,11.957,0,0,1,4.5-1.087h.01a9.216,9.216,0,0,1,7.712,3.9l.562.845-.809.611a6.812,6.812,0,0,0-3.266,5.617,6.34,6.34,0,0,0,3.538,5.861c.507.3,1.031.619,1.031,1.307,0,.449-3.583,10.088-8.786,10.088a7.066,7.066,0,0,1-2.967-.72,6.016,6.016,0,0,0-2.641-.636,6.793,6.793,0,0,0-2.091.566,10.242,10.242,0,0,1-3.627.846Z" transform="translate(-46.022 -109.492)"/>
      <path id="Path_2591" data-name="Path 2591" d="M262.058,0c.136,4.886-3.359,8.275-6.849,8.063C254.634,4.164,258.7,0,262.058,0Z" transform="translate(-240.145)"/>
    </g>
  </g>
</svg>
