<svg id="search" xmlns="http://www.w3.org/2000/svg" width="30.41" height="30.41" viewBox="0 0 30.41 30.41">
  <path id="Path_2637" data-name="Path 2637" d="M6.74,148.433l-1.059,3.952-3.869.082a15.232,15.232,0,0,1-.112-14.2h0l3.444.631,1.509,3.424a9.074,9.074,0,0,0,.085,6.11Z" transform="translate(0 -130.056)" fill="#fbbb00"/>
  <path id="Path_2638" data-name="Path 2638" d="M276.233,208.176a15.2,15.2,0,0,1-5.42,14.7h0l-4.338-.221-.614-3.833a9.062,9.062,0,0,0,3.9-4.628h-8.131v-6.015h14.605Z" transform="translate(-246.089 -195.811)" fill="#518ef8"/>
  <path id="Path_2639" data-name="Path 2639" d="M53.42,318.093h0a15.21,15.21,0,0,1-22.912-4.652l4.927-4.034a9.043,9.043,0,0,0,13.031,4.63Z" transform="translate(-28.697 -291.032)" fill="#28b446"/>
  <path id="Path_2640" data-name="Path 2640" d="M51.834,3.5,46.909,7.533a9.042,9.042,0,0,0-13.33,4.734L28.625,8.212h0A15.208,15.208,0,0,1,51.834,3.5Z" transform="translate(-26.924)" fill="#f14336"/>
</svg>
