<svg xmlns="http://www.w3.org/2000/svg" width="278" height="88" viewBox="0 0 278 88">
  <g id="google_play" data-name="google play" transform="translate(-2082.999 7035)">
    <g id="Group_54" data-name="Group 54" transform="translate(2083.45 -7035.459)">
      <rect id="Rectangle_20" data-name="Rectangle 20" width="278" height="88" rx="10" transform="translate(-0.451 0.458)"/>
      <path id="Path_4473" data-name="Path 4473" d="M-35.224-5.61a5.474,5.474,0,0,1,1.691-4.123,5.556,5.556,0,0,1,4.139-1.674,5.667,5.667,0,0,1,2.6.6A5.408,5.408,0,0,1-24.82-9.112l-1,.782a4.255,4.255,0,0,0-3.57-1.853,4.148,4.148,0,0,0-3.2,1.309,4.393,4.393,0,0,0-1.258,3.247,4.446,4.446,0,0,0,1.284,3.3A4.221,4.221,0,0,0-29.325-1a4.471,4.471,0,0,0,2.185-.536,4.127,4.127,0,0,0,1.555-1.47V-4.522H-29.41v-1.19h5.151V-2.72A5.626,5.626,0,0,1-26.384-.6a5.869,5.869,0,0,1-3.009.782,5.556,5.556,0,0,1-4.139-1.675A5.474,5.474,0,0,1-35.224-5.61ZM-14.6-3.74h-6.545a2.894,2.894,0,0,0,.969,1.972A3.029,3.029,0,0,0-18.1-1.02a3.5,3.5,0,0,0,2.533-1.122l.765.884A4.45,4.45,0,0,1-18.122.187a4.269,4.269,0,0,1-3.119-1.25,4.143,4.143,0,0,1-1.267-3.069A4.238,4.238,0,0,1-21.275-7.2a4.029,4.029,0,0,1,3-1.266A3.7,3.7,0,0,1-15.58-7.412,3.593,3.593,0,0,1-14.5-4.726,5.025,5.025,0,0,1-14.6-3.74ZM-21.1-4.9h5.253a2.3,2.3,0,0,0-.714-1.734,2.476,2.476,0,0,0-1.751-.646,2.684,2.684,0,0,0-1.8.655A2.992,2.992,0,0,0-21.1-4.9ZM-7.684-1.105V0A6.531,6.531,0,0,1-9.061.187a2.906,2.906,0,0,1-2.057-.68A2.608,2.608,0,0,1-11.849-2.5V-7.106h-1.394V-8.279h1.394V-10.54h1.309v2.261h2.584v1.173H-10.54v4.522a1.51,1.51,0,0,0,.434,1.215A2.009,2.009,0,0,0-8.789-1,7.01,7.01,0,0,0-7.684-1.105ZM-.867,0V-11.22H.459V0ZM7.871-1.105V0A6.531,6.531,0,0,1,6.494.187a2.906,2.906,0,0,1-2.057-.68A2.608,2.608,0,0,1,3.706-2.5V-7.106H2.312V-8.279H3.706V-10.54H5.015v2.261H7.6v1.173H5.015v4.522a1.51,1.51,0,0,0,.434,1.215A2.009,2.009,0,0,0,6.766-1,7.01,7.01,0,0,0,7.871-1.105Zm6.086-4.5A5.412,5.412,0,0,1,15.64-9.724a5.549,5.549,0,0,1,4.131-1.683A5.584,5.584,0,0,1,23.9-9.724,5.387,5.387,0,0,1,25.6-5.61,5.387,5.387,0,0,1,23.9-1.5,5.584,5.584,0,0,1,19.771.187,5.472,5.472,0,0,1,15.648-1.5,5.432,5.432,0,0,1,13.957-5.61Zm10.268-.017A4.363,4.363,0,0,0,22.95-8.874a4.141,4.141,0,0,0-3.162-1.309,4.271,4.271,0,0,0-3.179,1.3,4.463,4.463,0,0,0-1.275,3.256,4.521,4.521,0,0,0,1.275,3.273,4.243,4.243,0,0,0,3.179,1.317A4.128,4.128,0,0,0,22.95-2.355,4.412,4.412,0,0,0,24.225-5.627ZM34.714-5.2V0H33.4V-5.049a2.293,2.293,0,0,0-.552-1.6,1.925,1.925,0,0,0-1.5-.612,2.1,2.1,0,0,0-1.564.621,2.168,2.168,0,0,0-.612,1.589V0H27.863V-8.279h1.224V-7.4a3.275,3.275,0,0,1,2.55-1.071,2.916,2.916,0,0,1,2.253.893A3.357,3.357,0,0,1,34.714-5.2Z" transform="translate(128.549 32.458)" fill="#fff"/>
      <path id="Path_4474" data-name="Path 4474" d="M-78.442-9.24a8.845,8.845,0,0,1,2.842-6.8,9.57,9.57,0,0,1,7.042-2.772,9.017,9.017,0,0,1,7.784,4L-63.462-12.6a6.068,6.068,0,0,0-5.152-2.716A5.694,5.694,0,0,0-72.9-13.608,6.024,6.024,0,0,0-74.55-9.24a6.081,6.081,0,0,0,1.708,4.452A5.969,5.969,0,0,0-68.39-3.052a5.619,5.619,0,0,0,4.872-2.3V-6.86h-5.1v-3.276h8.876v5.46a9.792,9.792,0,0,1-3.612,3.64A9.956,9.956,0,0,1-68.558.336a9.426,9.426,0,0,1-7-2.758A8.96,8.96,0,0,1-78.442-9.24Zm20.944,2.3a6.724,6.724,0,0,1,2.156-5.124,7.084,7.084,0,0,1,5.264-2.1,7.129,7.129,0,0,1,5.278,2.1,6.7,6.7,0,0,1,2.17,5.124,6.728,6.728,0,0,1-2.184,5.138A7.152,7.152,0,0,1-50.106.308a7.016,7.016,0,0,1-5.25-2.114A6.787,6.787,0,0,1-57.5-6.944Zm9.982,2.716a3.724,3.724,0,0,0,1.022-2.688,3.822,3.822,0,0,0-1.022-2.716,3.362,3.362,0,0,0-2.562-1.092,3.371,3.371,0,0,0-2.576,1.078,3.84,3.84,0,0,0-1.008,2.73,3.753,3.753,0,0,0,1.008,2.688,3.393,3.393,0,0,0,2.576,1.064A3.4,3.4,0,0,0-47.516-4.228Zm7.042-2.716a6.724,6.724,0,0,1,2.156-5.124,7.084,7.084,0,0,1,5.264-2.1,7.129,7.129,0,0,1,5.278,2.1,6.7,6.7,0,0,1,2.17,5.124A6.728,6.728,0,0,1-27.79-1.806,7.152,7.152,0,0,1-33.082.308a7.016,7.016,0,0,1-5.25-2.114A6.787,6.787,0,0,1-40.474-6.944Zm9.982,2.716A3.724,3.724,0,0,0-29.47-6.916a3.822,3.822,0,0,0-1.022-2.716,3.362,3.362,0,0,0-2.562-1.092A3.371,3.371,0,0,0-35.63-9.646a3.84,3.84,0,0,0-1.008,2.73A3.753,3.753,0,0,0-35.63-4.228a3.393,3.393,0,0,0,2.576,1.064A3.4,3.4,0,0,0-30.492-4.228Zm18.27-9.632H-8.75V-1.54a6.643,6.643,0,0,1-1.932,5.124,7.4,7.4,0,0,1-5.236,1.792,9.947,9.947,0,0,1-6.8-2.576L-20.734.168A7.709,7.709,0,0,0-16.226,1.96a4.053,4.053,0,0,0,2.7-.84,3.011,3.011,0,0,0,.994-2.436v-.756A5.443,5.443,0,0,1-16.758-.42a6.352,6.352,0,0,1-4.76-1.932,6.818,6.818,0,0,1-1.876-4.956,6.759,6.759,0,0,1,1.876-4.956,6.4,6.4,0,0,1,4.76-1.9,5.279,5.279,0,0,1,4.536,2.044Zm-.252,6.5a3.462,3.462,0,0,0-.994-2.646,3.507,3.507,0,0,0-2.506-.938,3.542,3.542,0,0,0-2.576.98,3.5,3.5,0,0,0-1.008,2.632,3.664,3.664,0,0,0,1.022,2.688,3.451,3.451,0,0,0,2.562,1.036A3.385,3.385,0,0,0-13.482-4.62,3.708,3.708,0,0,0-12.474-7.364ZM-5,0V-21h3.78V0ZM15.274-5.656H5.558a3.407,3.407,0,0,0,1.358,2.03,4.317,4.317,0,0,0,2.534.714,6.233,6.233,0,0,0,3.864-1.4l1.568,2.576A8.461,8.461,0,0,1,9.338.336,7.326,7.326,0,0,1,3.92-1.75,6.725,6.725,0,0,1,1.75-6.916a6.838,6.838,0,0,1,2.1-5.152A6.838,6.838,0,0,1,9-14.168a6.325,6.325,0,0,1,4.69,1.848,6.259,6.259,0,0,1,1.834,4.592A8.976,8.976,0,0,1,15.274-5.656ZM5.558-8.316h6.3a2.688,2.688,0,0,0-.882-2.03,3.041,3.041,0,0,0-2.114-.77,3.156,3.156,0,0,0-2.1.756A3.716,3.716,0,0,0,5.558-8.316ZM26.558,0V-18.48H33.5a6.978,6.978,0,0,1,4.788,1.652,5.473,5.473,0,0,1,1.876,4.312A5.526,5.526,0,0,1,38.29-8.2,6.907,6.907,0,0,1,33.5-6.524H30.338V0Zm3.78-9.828H33.5a2.781,2.781,0,0,0,2.058-.742,2.631,2.631,0,0,0,.742-1.946,2.5,2.5,0,0,0-.77-1.9,2.834,2.834,0,0,0-2.03-.728H30.338ZM42.938,0V-21h3.78V0ZM62.09-8.232V0H58.618V-1.344A5.617,5.617,0,0,1,54.39.336,5.081,5.081,0,0,1,50.9-.812a3.8,3.8,0,0,1-1.3-3,3.512,3.512,0,0,1,1.414-2.954A6.155,6.155,0,0,1,54.838-7.84H58.31v-.616a2.383,2.383,0,0,0-.658-1.806,2.669,2.669,0,0,0-1.918-.63,3.923,3.923,0,0,0-1.876.448,7.3,7.3,0,0,0-1.792,1.456l-1.96-2.324a7.584,7.584,0,0,1,6.048-2.856,5.955,5.955,0,0,1,4.34,1.554A5.835,5.835,0,0,1,62.09-8.232ZM58.31-5.18v-.168H55.342q-1.932,0-1.932,1.4a1.3,1.3,0,0,0,.546,1.106,2.359,2.359,0,0,0,1.442.406,2.939,2.939,0,0,0,2.086-.77A2.578,2.578,0,0,0,58.31-5.18Zm16.884-8.68H79.17L72.534,1.2a7.91,7.91,0,0,1-2.268,3.164,5.184,5.184,0,0,1-3.248,1.008,9.442,9.442,0,0,1-2.436-.336V1.876q1.148.112,1.624.112a3.231,3.231,0,0,0,1.736-.42A3.249,3.249,0,0,0,69.09.112l.42-.952L64.19-13.86h4l3.388,9.1Z" transform="translate(172.549 65.458)" fill="#fff"/>
    </g>
    <g id="playstore" transform="translate(2116.636 -7012.99)">
      <g id="Group_56" data-name="Group 56" transform="translate(3.257 0)">
        <g id="Group_55" data-name="Group 55" transform="translate(0)">
          <path id="Path_2592" data-name="Path 2592" d="M64.059.676A4.211,4.211,0,0,0,60.8.112L80.179,19.489l6.28-6.28Z" transform="translate(-60.802 0)" fill="#fff"/>
        </g>
      </g>
      <g id="Group_58" data-name="Group 58" transform="translate(0 1.688)">
        <g id="Group_57" data-name="Group 57" transform="translate(0)">
          <path id="Path_2593" data-name="Path 2593" d="M22.842,20.116a4.21,4.21,0,0,0-.851,2.534V57.166a4.211,4.211,0,0,0,.851,2.534L42.634,39.908Z" transform="translate(-21.991 -20.116)" fill="#fff"/>
        </g>
      </g>
      <g id="Group_60" data-name="Group 60" transform="translate(24.623 14.638)">
        <g id="Group_59" data-name="Group 59">
          <path id="Path_2594" data-name="Path 2594" d="M327.937,177.608l-5.644-3.158-6.842,6.842,6.842,6.842,5.645-3.158a4.222,4.222,0,0,0,0-7.368Z" transform="translate(-315.451 -174.45)" fill="#fff"/>
        </g>
      </g>
      <g id="Group_62" data-name="Group 62" transform="translate(3.258 23.47)">
        <g id="Group_61" data-name="Group 61" transform="translate(0)">
          <path id="Path_2595" data-name="Path 2595" d="M80.191,279.711,60.815,299.087a4.182,4.182,0,0,0,3.256-.562l22.4-12.533Z" transform="translate(-60.815 -279.711)" fill="#fff"/>
        </g>
      </g>
    </g>
  </g>
</svg>
