<svg xmlns="http://www.w3.org/2000/svg" width="196.902" height="196.902" viewBox="0 0 196.902 196.902">
  <g id="Group_309" data-name="Group 309" transform="translate(-104.766 -367.862)">
    <g id="Group_306" data-name="Group 306" transform="translate(104.766 367.862)">
      <g id="Group_303" data-name="Group 303" transform="translate(0 0)">
        <path id="Path_4443" data-name="Path 4443" d="M199.536,561.081a188.6,188.6,0,0,1-64.083-11.135,38.474,38.474,0,0,1-23.235-23.235,189.965,189.965,0,0,1,0-128.163,38.474,38.474,0,0,1,23.234-23.234,189.954,189.954,0,0,1,128.165,0,38.47,38.47,0,0,1,23.233,23.233,189.953,189.953,0,0,1,0,128.165,38.472,38.472,0,0,1-23.233,23.234A188.575,188.575,0,0,1,199.536,561.081Zm0-181.351a173.112,173.112,0,0,0-58.815,10.215,22.973,22.973,0,0,0-13.873,13.873,174.418,174.418,0,0,0,0,117.625,22.965,22.965,0,0,0,13.872,13.872,174.423,174.423,0,0,0,117.626,0,22.971,22.971,0,0,0,13.871-13.872,174.409,174.409,0,0,0,0-117.627,22.97,22.97,0,0,0-13.872-13.872A173.061,173.061,0,0,0,199.536,379.73Z" transform="translate(-101.083 -364.179)" fill="#fff"/>
      </g>
      <g id="Group_305" data-name="Group 305" transform="translate(0 0)">
        <g id="Group_304" data-name="Group 304">
          <path id="Path_4444" data-name="Path 4444" d="M199.536,561.081a188.6,188.6,0,0,1-64.083-11.135,38.474,38.474,0,0,1-23.235-23.235,189.965,189.965,0,0,1,0-128.163,38.474,38.474,0,0,1,23.234-23.234,189.954,189.954,0,0,1,128.165,0,38.47,38.47,0,0,1,23.233,23.233,189.953,189.953,0,0,1,0,128.165,38.472,38.472,0,0,1-23.233,23.234A188.575,188.575,0,0,1,199.536,561.081Zm0-181.351a173.112,173.112,0,0,0-58.815,10.215,22.973,22.973,0,0,0-13.873,13.873,174.418,174.418,0,0,0,0,117.625,22.965,22.965,0,0,0,13.872,13.872,174.423,174.423,0,0,0,117.626,0,22.971,22.971,0,0,0,13.871-13.872,174.409,174.409,0,0,0,0-117.627,22.97,22.97,0,0,0-13.872-13.872A173.061,173.061,0,0,0,199.536,379.73Z" transform="translate(-101.083 -364.179)" fill="#fff"/>
        </g>
      </g>
    </g>
    <g id="Group_307" data-name="Group 307" transform="translate(165.63 416.332)">
      <path id="Path_4445" data-name="Path 4445" d="M236,459.059a27.081,27.081,0,0,0-19.149-46.231h-54.68v16.759h54.68a10.322,10.322,0,1,1,0,20.644h-54.68V466.99h54.68A26.9,26.9,0,0,0,236,459.059Z" transform="translate(-162.172 -412.828)" fill="#fff"/>
      <path id="Path_4446" data-name="Path 4446" d="M248.682,510.776a52.523,52.523,0,0,1-31.346-10.46l-10.221-7.677A68.963,68.963,0,0,0,165.7,478.82h-3.533v16.759H165.7a52.516,52.516,0,0,1,31.346,10.461l10.221,7.677a68.962,68.962,0,0,0,41.41,13.819h1.293V510.776Z" transform="translate(-162.172 -413.072)" fill="#fff"/>
    </g>
  </g>
</svg>
