<svg xmlns="http://www.w3.org/2000/svg" width="242.307" height="53.819" viewBox="0 0 242.307 53.819"><g transform="translate(-110.795 -367.862)"><g transform="translate(110.796 367.862)"><path d="M196.885,434.565a12.733,12.733,0,0,0-9-21.737h-25.71v7.88h25.71a4.853,4.853,0,1,1,0,9.707h-25.71v7.88h25.71A12.65,12.65,0,0,0,196.885,434.565Z" transform="translate(-162.173 -412.828)" fill="#fff"/><path d="M202.848,493.845a24.7,24.7,0,0,1-14.738-4.918l-4.806-3.609a32.425,32.425,0,0,0-19.471-6.5h-1.661v7.88h1.661a24.692,24.692,0,0,1,14.738,4.919l4.806,3.609a32.425,32.425,0,0,0,19.471,6.5h.608v-7.88Z" transform="translate(-162.173 -447.906)" fill="#fff"/></g><path d="M5.447-6.255v5.087a.766.766,0,0,0,.163.522,1.089,1.089,0,0,0,.556.286V0H1.381V-.359a1.15,1.15,0,0,0,.562-.292A.761.761,0,0,0,2.1-1.168V-14.15a.78.78,0,0,0-.157-.528,1.15,1.15,0,0,0-.562-.292v-.359h9.591a15.066,15.066,0,0,1,2.78.2,4.935,4.935,0,0,1,1.791.708,3.564,3.564,0,0,1,1.325,1.583,5.173,5.173,0,0,1,.416,2.066q0,3.751-4.167,4.391l2.976,4.234A9.5,9.5,0,0,0,17.244-.713a1.454,1.454,0,0,0,.893.354V0H12.6V-.359q.572-.09.572-.4a2.87,2.87,0,0,0-.527-.977l-3.1-4.515Zm0-2.527h5.166A13.158,13.158,0,0,0,12.23-8.85a2.553,2.553,0,0,0,.865-.281,1.72,1.72,0,0,0,.854-1.662,1.72,1.72,0,0,0-.854-1.662,2.427,2.427,0,0,0-.859-.286,14.144,14.144,0,0,0-1.623-.062H5.447ZM28.469-6.418V-1.18a.771.771,0,0,0,.16.528,1.167,1.167,0,0,0,.558.292V0H24.381V-.359a1.235,1.235,0,0,0,.573-.292.746.746,0,0,0,.168-.528V-6.418l-4.953-6.97a7.16,7.16,0,0,0-1.005-1.206,1.656,1.656,0,0,0-.87-.376v-.359h6.053v.359q-.752.124-.752.7a2.432,2.432,0,0,0,.46.887l2.763,4.1,2.842-4.1a2.2,2.2,0,0,0,.46-.9.581.581,0,0,0-.2-.443,1.039,1.039,0,0,0-.55-.241v-.359H35.3v.359a1.656,1.656,0,0,0-.87.376,7.159,7.159,0,0,0-1.005,1.206Zm8.625,5.239V-14.15a.78.78,0,0,0-.157-.528,1.15,1.15,0,0,0-.562-.292v-.359h8.552a11.433,11.433,0,0,1,4.315.64,6.151,6.151,0,0,1,3.192,3.077,8.907,8.907,0,0,1,.82,3.942,7.5,7.5,0,0,1-2.439,6.042A6.113,6.113,0,0,1,48.423-.376a13.51,13.51,0,0,1-3.5.376H36.375V-.359a1.15,1.15,0,0,0,.562-.292A.78.78,0,0,0,37.094-1.179Zm3.347-1.348h4.205a6.516,6.516,0,0,0,3.025-.55q2.17-1.179,2.17-4.593a5.514,5.514,0,0,0-1.169-3.785A3.618,3.618,0,0,0,47.1-12.494a7.928,7.928,0,0,0-2.451-.309H40.441Zm19.283-4.2v4.2h9.86a.761.761,0,0,0,.517-.157,1.15,1.15,0,0,0,.292-.562h.359V.719h-.359A1.15,1.15,0,0,0,70.1.157.761.761,0,0,0,69.584,0H55.658V-.359a1.15,1.15,0,0,0,.562-.292.78.78,0,0,0,.157-.528V-14.15a.78.78,0,0,0-.157-.528,1.15,1.15,0,0,0-.562-.292v-.359H69.314a.751.751,0,0,0,.517-.16,1.167,1.167,0,0,0,.292-.558h.359v3.964h-.359a1.163,1.163,0,0,0-.292-.559.753.753,0,0,0-.517-.16H59.724v3.639h6.222a.761.761,0,0,0,.517-.157,1.15,1.15,0,0,0,.292-.562h.359v3.875h-.359a1.182,1.182,0,0,0-.292-.556.744.744,0,0,0-.517-.163Zm23.225,4.2h9.422a.78.78,0,0,0,.528-.157,1.15,1.15,0,0,0,.292-.562h.359V.719H93.19A1.15,1.15,0,0,0,92.9.157.78.78,0,0,0,92.371,0H78.883V-.359a1.15,1.15,0,0,0,.562-.292.78.78,0,0,0,.157-.528V-14.15a.78.78,0,0,0-.157-.528,1.15,1.15,0,0,0-.562-.292v-.359h4.784v.359a1.063,1.063,0,0,0-.562.286.8.8,0,0,0-.157.533ZM110.755-14.15v8.591a6.113,6.113,0,0,1-.9,3.65Q108.239.27,103.174.27A10.9,10.9,0,0,1,97.57-.91,3.6,3.6,0,0,1,96-2.774a8.128,8.128,0,0,1-.427-2.785V-14.15a.78.78,0,0,0-.157-.528,1.15,1.15,0,0,0-.562-.292v-.359h4.784v.359a1.077,1.077,0,0,0-.558.286.792.792,0,0,0-.16.533V-6.5a9.541,9.541,0,0,0,.146,1.96,2.238,2.238,0,0,0,.55,1.061A4.909,4.909,0,0,0,103.3-2.336a4.927,4.927,0,0,0,3.695-1.146,2.291,2.291,0,0,0,.539-1.061,9.541,9.541,0,0,0,.146-1.96V-14.15a.78.78,0,0,0-.157-.528,1.15,1.15,0,0,0-.562-.292v-.359h4.515v.359a1.15,1.15,0,0,0-.562.292A.78.78,0,0,0,110.755-14.15Zm12.387,6.218,4.627,5.956a8.971,8.971,0,0,0,1.095,1.258,1.881,1.881,0,0,0,.915.359V0H123.7V-.359q.674-.135.674-.584a1.609,1.609,0,0,0-.4-.764l-2.861-3.7-2.889,3.58a1.831,1.831,0,0,0-.461.842q0,.562.753.629V0h-5.89V-.359a1.494,1.494,0,0,0,.8-.292,11.471,11.471,0,0,0,1.151-1.325L119.258-7.8l-4.314-5.584a9.747,9.747,0,0,0-1.106-1.308,1.676,1.676,0,0,0-.882-.275l-.011-.359H119.1v.359q-.673.18-.673.685a1.93,1.93,0,0,0,.483.9l2.381,3.064,2.464-3.064a2.1,2.1,0,0,0,.539-.966q0-.494-.775-.618v-.359H129.5v.359a1.5,1.5,0,0,0-.769.241,14.231,14.231,0,0,0-1.185,1.342Zm23.685-6.218v8.591a6.113,6.113,0,0,1-.9,3.65Q144.312.27,139.247.27a10.9,10.9,0,0,1-5.6-1.179,3.6,3.6,0,0,1-1.572-1.864,8.129,8.129,0,0,1-.427-2.785V-14.15a.78.78,0,0,0-.157-.528,1.15,1.15,0,0,0-.562-.292v-.359h4.784v.359a1.077,1.077,0,0,0-.558.286.792.792,0,0,0-.16.533V-6.5a9.54,9.54,0,0,0,.146,1.96,2.238,2.238,0,0,0,.55,1.061,4.909,4.909,0,0,0,3.684,1.146,4.927,4.927,0,0,0,3.695-1.146,2.291,2.291,0,0,0,.539-1.061,9.54,9.54,0,0,0,.146-1.96V-14.15a.78.78,0,0,0-.157-.528,1.15,1.15,0,0,0-.562-.292v-.359h4.515v.359a1.15,1.15,0,0,0-.562.292A.78.78,0,0,0,146.827-14.15Zm7.232,7.9v5.087a.766.766,0,0,0,.163.522,1.089,1.089,0,0,0,.556.286V0h-4.784V-.359a1.15,1.15,0,0,0,.562-.292.761.761,0,0,0,.157-.517V-14.15a.78.78,0,0,0-.157-.528,1.15,1.15,0,0,0-.562-.292v-.359h9.591a15.066,15.066,0,0,1,2.78.2,4.935,4.935,0,0,1,1.791.708,3.564,3.564,0,0,1,1.325,1.583,5.172,5.172,0,0,1,.416,2.066q0,3.751-4.167,4.391l2.976,4.234a9.5,9.5,0,0,0,1.151,1.432,1.454,1.454,0,0,0,.893.354V0h-5.539V-.359q.572-.09.572-.4a2.87,2.87,0,0,0-.527-.977l-3.1-4.515Zm0-2.527h5.166a13.158,13.158,0,0,0,1.617-.067,2.553,2.553,0,0,0,.865-.281,1.72,1.72,0,0,0,.854-1.662,1.72,1.72,0,0,0-.854-1.662,2.427,2.427,0,0,0-.859-.286,14.144,14.144,0,0,0-1.623-.062H154.06Zm23.022,2.364V-1.18a.771.771,0,0,0,.16.528,1.167,1.167,0,0,0,.558.292V0h-4.807V-.359a1.235,1.235,0,0,0,.573-.292.746.746,0,0,0,.168-.528V-6.418l-4.953-6.97a7.159,7.159,0,0,0-1.005-1.206,1.656,1.656,0,0,0-.87-.376v-.359h6.053v.359q-.752.124-.752.7a2.432,2.432,0,0,0,.46.887l2.763,4.1,2.842-4.1a2.2,2.2,0,0,0,.46-.9.581.581,0,0,0-.2-.443,1.039,1.039,0,0,0-.55-.241v-.359h5.929v.359a1.656,1.656,0,0,0-.87.376,7.159,7.159,0,0,0-1.005,1.206Z" transform="translate(169.192 400.425)" fill="#fff"/></g></svg>