<svg xmlns="http://www.w3.org/2000/svg" width="64.837" height="51.439" viewBox="0 0 64.837 51.439"><g transform="translate(-2972.758 615.55)"><rect width="50" height="39" rx="2" transform="translate(2987.009 -614.463)" fill="none"/><path d="M3005.008-606.485v-5.849a2.3,2.3,0,0,1,2.306-2.306h44.706a2.3,2.3,0,0,1,2.306,2.306v34.626a2.305,2.305,0,0,1-2.306,2.306h-28" transform="translate(-17.731 0.09)" fill="none" stroke="#000" stroke-miterlimit="10" stroke-width="2"/><line x2="19.465" transform="translate(3003.482 -594.931)" fill="none" stroke="#000" stroke-miterlimit="10" stroke-width="2"/><line x2="19.465" transform="translate(3003.482 -585.878)" fill="none" stroke="#000" stroke-miterlimit="10" stroke-width="2"/><line x2="19.465" transform="translate(3003.482 -603.984)" fill="none" stroke="#000" stroke-miterlimit="10" stroke-width="2"/><rect width="5.113" height="10.226" transform="translate(3010.769 -575.337)" fill="none" stroke="#000" stroke-width="2"/><circle cx="7.884" cy="7.884" r="7.884" transform="translate(2979.391 -600.898)" fill="none" stroke="#000" stroke-miterlimit="10" stroke-width="2"/><path d="M2973.758-519.718v-13.8a2.161,2.161,0,0,1,2.161-2.161h22.711a2.162,2.162,0,0,1,2.162,2.161v13.8" transform="translate(0 -44.711)" fill="none" stroke="#000" stroke-miterlimit="10" stroke-width="2"/></g></svg>