<svg xmlns="http://www.w3.org/2000/svg" width="85" height="77" viewBox="0 0 85 77"><g transform="translate(-1334 -1407)"><circle cx="38.5" cy="38.5" r="38.5" transform="translate(1342 1407)" fill="#f7e8de"/><g transform="translate(1558.248 -85.574)"><path d="M-203.877,1531.967s12.341-1.945,18.5-9.229a14.71,14.71,0,0,0,3.157-9.273,4.083,4.083,0,0,1,4.087-4.066,4.066,4.066,0,0,1,4.066,4.066h0s.568,9.99-2.7,15.8H-164.5a4.087,4.087,0,0,1,4.087,4.087h0a4.087,4.087,0,0,1-4.087,4.087h-2.767a4.087,4.087,0,0,1,4.087,4.087h0a4.087,4.087,0,0,1-4.087,4.087h-2.683a4.087,4.087,0,0,1,4.087,4.087h0a4.087,4.087,0,0,1-4.087,4.087h-2.767a4.087,4.087,0,0,1,4.087,4.087h0a4.087,4.087,0,0,1-4.087,4.087h-15.617a43.662,43.662,0,0,1-15.539-2.727Z" fill="#93c0ff" stroke="#000" stroke-linecap="round" stroke-linejoin="round" stroke-width="2"/><rect width="19.371" height="32.599" rx="2" transform="translate(-223.248 1529.556)" fill="#236fe9" stroke="#000" stroke-linecap="round" stroke-linejoin="round" stroke-width="2"/><line y2="10.141" transform="translate(-210.613 1545.529)" fill="none" stroke="#000" stroke-linecap="round" stroke-miterlimit="10" stroke-width="2"/><circle cx="2.212" cy="2.212" r="2.212" transform="translate(-212.824 1535.231)" fill="none" stroke="#000" stroke-linecap="round" stroke-linejoin="round" stroke-width="2"/><line x2="8.174" transform="translate(-168.592 1512.103)" fill="none" stroke="#000" stroke-linecap="round" stroke-miterlimit="10" stroke-width="2"/><line x1="5.779" y2="5.779" transform="translate(-171.385 1499.58)" fill="none" stroke="#000" stroke-linecap="round" stroke-miterlimit="10" stroke-width="2"/><line y2="8.992" transform="translate(-178.128 1493.575)" fill="none" stroke="#000" stroke-linecap="round" stroke-miterlimit="10" stroke-width="2"/><line x2="5.779" y2="5.779" transform="translate(-190.651 1499.58)" fill="none" stroke="#000" stroke-linecap="round" stroke-miterlimit="10" stroke-width="2"/><line x1="8.174" transform="translate(-195.839 1512.103)" fill="none" stroke="#000" stroke-linecap="round" stroke-miterlimit="10" stroke-width="2"/></g></g></svg>