<svg xmlns="http://www.w3.org/2000/svg" width="54.501" height="31.625" viewBox="0 0 54.501 31.625">
  <g id="Group_Event_Servisec_Transportation_" data-name="Group &amp; Event Servisec Transportation " transform="translate(-1019.001 -3249)">
    <circle id="Ellipse_29" data-name="Ellipse 29" cx="5.74" cy="5.74" r="5.74" transform="translate(1040.512 3250)" fill="none" stroke="#000" stroke-miterlimit="10" stroke-width="2"/>
    <path id="Path_2601" data-name="Path 2601" d="M2788.42-524.059v-10.047a1.574,1.574,0,0,1,1.574-1.574h16.535a1.574,1.574,0,0,1,1.573,1.574v10.047" transform="translate(-1752.01 3800.61)" fill="none" stroke="#000" stroke-miterlimit="10" stroke-width="2"/>
    <circle id="Ellipse_30" data-name="Ellipse 30" cx="4.785" cy="4.785" r="4.785" transform="translate(1059.512 3258.49)" fill="none" stroke="#000" stroke-miterlimit="10" stroke-width="2"/>
    <path id="Path_2602" data-name="Path 2602" d="M2850.911-506.92V-515.3a1.312,1.312,0,0,1,1.312-1.312h13.785a1.312,1.312,0,0,1,1.312,1.312v8.376" transform="translate(-1794.818 3787.545)" fill="none" stroke="#000" stroke-miterlimit="10" stroke-width="2"/>
    <circle id="Ellipse_31" data-name="Ellipse 31" cx="4.785" cy="4.785" r="4.785" transform="translate(1023.42 3258.49)" fill="none" stroke="#000" stroke-miterlimit="10" stroke-width="2"/>
    <path id="Path_2603" data-name="Path 2603" d="M2736.321-506.92V-515.3a1.312,1.312,0,0,1,1.312-1.312h13.785a1.312,1.312,0,0,1,1.312,1.312v8.376" transform="translate(-1716.32 3787.545)" fill="none" stroke="#000" stroke-miterlimit="10" stroke-width="2"/>
  </g>
</svg>
