<svg xmlns="http://www.w3.org/2000/svg" width="51.482" height="33.74" viewBox="0 0 51.482 33.74">
  <g id="home_City_to_City" data-name="home City to City" transform="translate(-527.822 -342.202)">
    <path id="Path_9" data-name="Path 9" d="M626.16,349.337a15.541,15.541,0,0,1-1.026,4.839c-1.066,2.96-2.958,5.939-5.109,5.939-3.388,0-6.135-7.389-6.135-10.778a6.135,6.135,0,0,1,6.135-6.135h0A6.136,6.136,0,0,1,626.16,349.337Z" transform="translate(-47.856 0)" fill="none" stroke="#000" stroke-miterlimit="10" stroke-width="2"/>
    <circle id="Ellipse_3" data-name="Ellipse 3" cx="2.733" cy="2.733" r="2.733" transform="translate(569.435 346.603)" fill="#fff" stroke="#000" stroke-miterlimit="10" stroke-width="2"/>
    <g id="Group_218" data-name="Group 218" transform="translate(528.822 358.029)">
      <path id="Path_9-2" data-name="Path 9" d="M541.092,383.231a15.543,15.543,0,0,1-1.026,4.839c-1.065,2.96-2.958,5.939-5.109,5.939-3.388,0-6.135-7.389-6.135-10.778a6.135,6.135,0,0,1,6.135-6.135h0A6.136,6.136,0,0,1,541.092,383.231Z" transform="translate(-528.822 -377.096)" fill="none" stroke="#000" stroke-miterlimit="10" stroke-width="2"/>
      <path id="Ellipse_3-2" data-name="Ellipse 3" d="M2.733,0A2.733,2.733,0,1,1,0,2.733,2.733,2.733,0,0,1,2.733,0Z" transform="translate(3.401 3.401)" fill="#fff" stroke="#000" stroke-width="2"/>
    </g>
    <path id="Path_4394" data-name="Path 4394" d="M542.847,353.035V343.2l12.4,3.954v27.786l-5.269-1" transform="translate(-7.89 0)" fill="none" stroke="#000" stroke-linecap="round" stroke-linejoin="round" stroke-width="2"/>
    <path id="Path_4395" data-name="Path 4395" d="M611.963,364.246v10.7l-12.4-3.954V343.2l4.289.686" transform="translate(-39.794 0)" fill="none" stroke="#000" stroke-linecap="round" stroke-linejoin="round" stroke-width="2"/>
    <path id="Path_4396" data-name="Path 4396" d="M571.2,374.942l12.4-3.954V343.2l-12.4,3.954Z" transform="translate(-23.842 0)" fill="none" stroke="#000" stroke-linecap="round" stroke-linejoin="round" stroke-width="1"/>
    <path id="Path_4399" data-name="Path 4399" d="M571.2,374.942l12.4-3.954V343.2l-12.4,3.954Z" transform="translate(-23.841 0)" fill="none" stroke="#000" stroke-linecap="round" stroke-linejoin="round" stroke-width="2"/>
  </g>
</svg>
