<svg xmlns="http://www.w3.org/2000/svg" width="34.173" height="33.821" viewBox="0 0 34.173 33.821">
  <g id="home_Hourly_Service" data-name="home Hourly Service" transform="translate(404.218 -1424.511)">
    <g id="Group_104" data-name="Group 104" transform="translate(-403.218 1425.511)">
      <path id="Path_2623" data-name="Path 2623" d="M-398.09,1430.171a15.91,15.91,0,0,0,0,22.5,15.911,15.911,0,0,0,22.5,0,15.911,15.911,0,0,0,0-22.5,15.908,15.908,0,0,0-11.249-4.66" transform="translate(403.102 -1425.511)" fill="none" stroke="#000" stroke-linecap="round" stroke-linejoin="round" stroke-width="2"/>
      <g id="Group_101" data-name="Group 101" transform="translate(16.263 29.493)">
        <line id="Line_40" data-name="Line 40" y2="0.85" fill="none" stroke="#000" stroke-linecap="round" stroke-linejoin="round" stroke-width="2"/>
      </g>
      <g id="Group_102" data-name="Group 102" transform="translate(1.831 15.91)">
        <line id="Line_41" data-name="Line 41" x1="0.85" transform="translate(28.015)" fill="none" stroke="#000" stroke-linecap="round" stroke-linejoin="round" stroke-width="2"/>
        <line id="Line_42" data-name="Line 42" x1="0.85" fill="none" stroke="#000" stroke-linecap="round" stroke-linejoin="round" stroke-width="2"/>
      </g>
      <path id="Path_2624" data-name="Path 2624" d="M-403.218,1431.59h5.093v5.093" transform="translate(403.218 -1427.014)" fill="none" stroke="#000" stroke-linecap="round" stroke-linejoin="round" stroke-width="2"/>
      <path id="Path_2625" data-name="Path 2625" d="M-381.612,1430.374v12.25l5.3,5.3" transform="translate(397.875 -1426.714)" fill="none" stroke="#000" stroke-linecap="round" stroke-linejoin="round" stroke-width="2"/>
      <g id="Group_105" data-name="Group 105" transform="translate(6.057 5.704)">
        <line id="Line_39" data-name="Line 39" x1="0.601" y2="0.601" transform="translate(19.81)" fill="none" stroke="#000" stroke-linecap="round" stroke-linejoin="round" stroke-width="2"/>
        <line id="Line_40-2" data-name="Line 40-2" x1="0.601" y2="0.601" transform="translate(0 19.81)" fill="none" stroke="#000" stroke-linecap="round" stroke-linejoin="round" stroke-width="2"/>
      </g>
      <g id="Group_106" data-name="Group 106" transform="translate(25.869 25.514)">
        <line id="Line_41-2" data-name="Line 41-2" x1="0.601" y1="0.601" fill="none" stroke="#000" stroke-linecap="round" stroke-linejoin="round" stroke-width="2"/>
      </g>
    </g>
  </g>
</svg>
