<svg xmlns="http://www.w3.org/2000/svg" width="54.5" height="33.356" viewBox="0 0 54.5 33.356">
  <g id="home_Group_Event" data-name="home Group &amp; Event" transform="translate(-2735.321 585.083)">
    <circle id="Ellipse_30" data-name="Ellipse 30" cx="4.785" cy="4.785" r="4.785" transform="translate(2775.831 -575.593)" fill="none" stroke="#000" stroke-miterlimit="10" stroke-width="2"/>
    <path id="Path_2602" data-name="Path 2602" d="M2850.911-506.92V-515.3a1.312,1.312,0,0,1,1.312-1.312h13.785a1.312,1.312,0,0,1,1.312,1.312v8.376" transform="translate(-78.499 -45.538)" fill="none" stroke="#000" stroke-miterlimit="10" stroke-width="2"/>
    <circle id="Ellipse_31" data-name="Ellipse 31" cx="4.785" cy="4.785" r="4.785" transform="translate(2739.74 -575.593)" fill="none" stroke="#000" stroke-miterlimit="10" stroke-width="2"/>
    <path id="Path_2603" data-name="Path 2603" d="M2736.321-506.92V-515.3a1.312,1.312,0,0,1,1.312-1.312h13.785a1.312,1.312,0,0,1,1.312,1.312v8.376" transform="translate(0 -45.538)" fill="none" stroke="#000" stroke-miterlimit="10" stroke-width="2"/>
    <circle id="Ellipse_29" data-name="Ellipse 29" cx="5.74" cy="5.74" r="5.74" transform="translate(2756.831 -584.083)" fill="none" stroke="#000" stroke-miterlimit="10" stroke-width="2"/>
    <path id="Path_2601" data-name="Path 2601" d="M2788.42-519.254v-14.853a1.574,1.574,0,0,1,1.574-1.574h16.535a1.574,1.574,0,0,1,1.573,1.574v14.853" transform="translate(-35.69 -32.473)" fill="none" stroke="#000" stroke-miterlimit="10" stroke-width="2"/>
  </g>
</svg>
