<svg xmlns="http://www.w3.org/2000/svg" width="49.8" height="62.873" viewBox="0 0 49.8 62.873">
  <g id="home_Peace_Of_Mind" data-name="home Peace Of Mind" transform="translate(421.919 1109.217)">
    <path id="Path_4362" data-name="Path 4362" d="M-353.523-950.766v17.776l-10.419-6.535-10.419,6.535v-17.776" transform="translate(-33.077 -115.162)" fill="none" stroke="#000" stroke-miterlimit="10" stroke-width="2"/>
    <g id="Group_114" data-name="Group 114" transform="translate(-420.723 -1108.021)">
      <path id="Path_4361" data-name="Path 4361" d="M-390.668-1060.614l-6.351-2.455-6.351,2.455-4.273-5.3-6.728-1.05-1.05-6.728-5.3-4.273,2.455-6.352-2.455-6.351,5.3-4.273,1.05-6.728,6.728-1.05,4.273-5.3,6.351,2.455,6.351-2.455,4.273,5.3,6.728,1.05,1.05,6.728,5.3,4.273-2.455,6.351,2.455,6.352-5.3,4.273-1.05,6.728-6.728,1.05Z" transform="translate(420.723 1108.021)" fill="none" stroke="#000" stroke-miterlimit="10" stroke-width="2"/>
      <circle id="Ellipse_93" data-name="Ellipse 93" cx="15.703" cy="15.703" r="15.703" transform="translate(8.001 8.001)" fill="none" stroke="#000" stroke-miterlimit="10" stroke-width="2"/>
      <path id="Path_4360" data-name="Path 4360" d="M-362.769-1036.939l4.182,4.182,10.013-10.013" transform="translate(379.376 1061.467)" fill="none" stroke="#000" stroke-miterlimit="10" stroke-width="2"/>
    </g>
  </g>
</svg>
