<svg xmlns="http://www.w3.org/2000/svg" width="33.173" height="32.821" viewBox="0 0 33.173 32.821"><g transform="translate(403.718 -1425.011)"><circle cx="15.91" cy="15.91" r="15.91" transform="translate(-402.866 1425.511)" fill="#93c0ff"/><g transform="translate(-403.218 1425.511)"><path d="M-398.09,1430.171a15.91,15.91,0,0,0,0,22.5,15.911,15.911,0,0,0,22.5,0,15.911,15.911,0,0,0,0-22.5,15.908,15.908,0,0,0-11.249-4.66" transform="translate(403.102 -1425.511)" fill="none" stroke="#000" stroke-linecap="round" stroke-linejoin="round" stroke-width="1"/><g transform="translate(16.263 29.493)"><line y2="0.85" fill="none" stroke="#000" stroke-linecap="round" stroke-linejoin="round" stroke-width="1"/></g><g transform="translate(1.831 15.91)"><line x1="0.85" transform="translate(28.015)" fill="none" stroke="#000" stroke-linecap="round" stroke-linejoin="round" stroke-width="1"/><line x1="0.85" fill="none" stroke="#000" stroke-linecap="round" stroke-linejoin="round" stroke-width="1"/></g><path d="M-403.218,1431.59h5.093v5.093" transform="translate(403.218 -1427.014)" fill="none" stroke="#000" stroke-linecap="round" stroke-linejoin="round" stroke-width="1"/><path d="M-381.612,1430.374v12.25l5.3,5.3" transform="translate(397.875 -1426.714)" fill="none" stroke="#000" stroke-linecap="round" stroke-linejoin="round" stroke-width="1"/><g transform="translate(6.057 5.704)"><line x1="0.601" y2="0.601" transform="translate(19.81)" fill="none" stroke="#000" stroke-linecap="round" stroke-linejoin="round" stroke-width="1"/><line x1="0.601" y2="0.601" transform="translate(0 19.81)" fill="none" stroke="#000" stroke-linecap="round" stroke-linejoin="round" stroke-width="1"/></g><g transform="translate(25.869 25.514)"><line x1="0.601" y1="0.601" fill="none" stroke="#000" stroke-linecap="round" stroke-linejoin="round" stroke-width="1"/></g></g></g></svg>