<svg xmlns="http://www.w3.org/2000/svg" width="23.15" height="23.155" viewBox="0 0 23.15 23.155">
  <g id="instagram_1_" data-name="instagram (1)" transform="translate(0 0)">
    <path id="Path_2627" data-name="Path 2627" d="M23.54,6.808A8.461,8.461,0,0,0,23,4,5.931,5.931,0,0,0,19.614.611,8.482,8.482,0,0,0,16.8.072C15.565.014,15.172,0,12.028,0S8.491.014,7.256.068A8.463,8.463,0,0,0,4.447.606,5.65,5.65,0,0,0,2.394,1.945,5.7,5.7,0,0,0,1.059,3.994,8.483,8.483,0,0,0,.521,6.8C.462,8.042.449,8.436.449,11.58s.014,3.537.068,4.772a8.46,8.46,0,0,0,.538,2.809,5.93,5.93,0,0,0,3.388,3.388,8.484,8.484,0,0,0,2.809.538c1.235.054,1.628.068,4.772.068s3.537-.013,4.772-.068a8.459,8.459,0,0,0,2.809-.538,5.922,5.922,0,0,0,3.388-3.388,8.489,8.489,0,0,0,.538-2.809c.054-1.235.068-1.628.068-4.772s0-3.537-.059-4.772Zm-2.085,9.454a6.346,6.346,0,0,1-.4,2.149,3.841,3.841,0,0,1-2.2,2.2,6.369,6.369,0,0,1-2.149.4c-1.221.054-1.588.068-4.677.068s-3.46-.013-4.677-.068a6.343,6.343,0,0,1-2.149-.4,3.563,3.563,0,0,1-1.33-.864,3.6,3.6,0,0,1-.864-1.33,6.37,6.37,0,0,1-.4-2.149c-.054-1.221-.068-1.588-.068-4.677s.013-3.46.068-4.677a6.343,6.343,0,0,1,.4-2.149,3.519,3.519,0,0,1,.869-1.33,3.594,3.594,0,0,1,1.33-.864,6.373,6.373,0,0,1,2.149-.4C8.581,2.117,8.948,2.1,12.037,2.1s3.46.014,4.677.068a6.347,6.347,0,0,1,2.149.4,3.56,3.56,0,0,1,1.33.864,3.6,3.6,0,0,1,.864,1.33,6.372,6.372,0,0,1,.4,2.149c.054,1.221.068,1.588.068,4.677s-.014,3.451-.068,4.673Zm0,0" transform="translate(-0.449 0)"/>
    <path id="Path_2628" data-name="Path 2628" d="M130.9,124.5a5.948,5.948,0,1,0,5.948,5.948A5.95,5.95,0,0,0,130.9,124.5Zm0,9.806a3.858,3.858,0,1,1,3.858-3.858A3.859,3.859,0,0,1,130.9,134.306Zm0,0" transform="translate(-119.318 -118.869)"/>
    <path id="Path_2629" data-name="Path 2629" d="M365.227,89.99a1.389,1.389,0,1,1-1.389-1.389A1.389,1.389,0,0,1,365.227,89.99Zm0,0" transform="translate(-346.076 -84.594)"/>
  </g>
</svg>
