<svg xmlns="http://www.w3.org/2000/svg" width="339.046" height="591.098" viewBox="0 0 339.046 591.098"><g transform="translate(-329.841 -210.431)"><path d="M336.354,347.952,390.1,365.21,458.567,216.4" transform="translate(15.68 0)" fill="none" stroke="#fff" stroke-linecap="round" stroke-linejoin="round" stroke-width="9" fill-rule="evenodd"/><path d="M500.583,284.34l-72.975-23.63-74.517-23.96v86.713" transform="translate(146.108 158.572)" fill="none" stroke="#fff" stroke-linecap="round" stroke-linejoin="round" stroke-width="9" fill-rule="evenodd"/><line x2="93.419" y2="30.112" transform="translate(405.78 365.21)" fill="none" stroke="#fff" stroke-linecap="round" stroke-linejoin="round" stroke-width="9"/><path d="M461.946,388.139l-57.7-29.674-57.7,29.674,57.7-136.5Z" transform="translate(95.065 274.583)" fill="none" stroke="#fff" stroke-linecap="round" stroke-linejoin="round" stroke-width="9" fill-rule="evenodd"/><path d="M344.554,278.237a101.725,101.725,0,0,0,8.124,9.241q27.881,27.762,67.156,27.7h1.319q38.326-.409,65.723-27.7a101.724,101.724,0,0,0,8.133-9.241" transform="translate(79.582 481.856)" fill="none" stroke="#fff" stroke-linecap="round" stroke-linejoin="round" stroke-width="9" fill-rule="evenodd"/><line y1="158.263" x2="72.975" transform="translate(573.715 261.019)" fill="none" stroke="#fff" stroke-linecap="round" stroke-linejoin="round" stroke-width="9"/><line y1="54.403" x2="147.166" transform="translate(352.033 452.473)" fill="none" stroke="#fff" stroke-linecap="round" stroke-linejoin="round" stroke-width="9"/><line x1="330.046" transform="translate(334.341 710.089)" fill="none" stroke="#fff" stroke-linecap="round" stroke-linejoin="round" stroke-width="9"/></g></svg>