<svg xmlns="http://www.w3.org/2000/svg" width="26.795" height="25.732" viewBox="0 0 26.795 25.732"><g transform="translate(0.501 0.516)"><path d="M8.75,17.612V22.6a.806.806,0,0,0,1.455.477l2.915-3.967Z" transform="translate(0.653 1.314)" fill="none" stroke="#000" stroke-width="1"/><path d="M25.452.149a.806.806,0,0,0-.84-.058L.433,12.718A.806.806,0,0,0,.545,14.2l6.722,2.3L21.581,4.253,10.5,17.6l11.265,3.85a.825.825,0,0,0,.26.043.805.805,0,0,0,.8-.687L25.782.925a.807.807,0,0,0-.33-.776Z" transform="translate(0 0)" fill="none" stroke="#000" stroke-width="1"/></g></svg>