<svg xmlns="http://www.w3.org/2000/svg" width="27.132" height="22.434" viewBox="0 0 27.132 22.434">
  <g id="Group_110" data-name="Group 110" transform="translate(-1459.73 77.283)">
    <path id="Path_2632" data-name="Path 2632" d="M1467.088-56.9a15.137,15.137,0,0,0-6.858,6.208A15.075,15.075,0,0,0,1473.3-43.15a15.02,15.02,0,0,0,6.208-1.334" transform="translate(0 -15.374)" fill="none" stroke="#000" stroke-linecap="round" stroke-linejoin="round" stroke-miterlimit="10" stroke-width="1"/>
    <path id="Path_2633" data-name="Path 2633" d="M1511.9-62.9a15.257,15.257,0,0,1,1.771-.1,15.075,15.075,0,0,1,13.066,7.542,15.166,15.166,0,0,1-3.377,4.02" transform="translate(-40.375 -10.608)" fill="none" stroke="#000" stroke-linecap="round" stroke-linejoin="round" stroke-miterlimit="10" stroke-width="1"/>
    <path id="Path_2634" data-name="Path 2634" d="M1467.088-56.9a15.137,15.137,0,0,0-6.858,6.208A15.075,15.075,0,0,0,1473.3-43.15a15.02,15.02,0,0,0,6.208-1.334" transform="translate(0 -15.374)" fill="none" stroke="#000" stroke-linecap="round" stroke-linejoin="round" stroke-miterlimit="10" stroke-width="1"/>
    <path id="Path_2635" data-name="Path 2635" d="M1511.9-62.9a15.257,15.257,0,0,1,1.771-.1,15.075,15.075,0,0,1,13.066,7.542,15.166,15.166,0,0,1-3.377,4.02" transform="translate(-40.375 -10.608)" fill="none" stroke="#000" stroke-linecap="round" stroke-linejoin="round" stroke-miterlimit="10" stroke-width="1"/>
    <path id="Path_2636" data-name="Path 2636" d="M1504.715-40.05a3.566,3.566,0,0,0-1.045,2.525,3.57,3.57,0,0,0,3.57,3.57A3.565,3.565,0,0,0,1509.765-35" transform="translate(-33.944 -28.541)" fill="none" stroke="#000" stroke-linecap="round" stroke-linejoin="round" stroke-miterlimit="10" stroke-width="1"/>
    <line id="Line_41" data-name="Line 41" x2="21.019" y2="21.019" transform="translate(1462.786 -76.576)" fill="none" stroke="#000" stroke-linecap="round" stroke-miterlimit="10" stroke-width="1"/>
  </g>
</svg>
