<svg xmlns="http://www.w3.org/2000/svg" width="25.225" height="25.226" viewBox="0 0 25.225 25.226">
  <g id="pinterest-logo" transform="translate(0 0)">
    <path id="Path_2631" data-name="Path 2631" d="M23.543,6.282a12.56,12.56,0,0,0-4.59-4.59A12.337,12.337,0,0,0,12.622,0,12.337,12.337,0,0,0,6.29,1.692,12.555,12.555,0,0,0,1.7,6.282,12.336,12.336,0,0,0,.008,12.613,12.226,12.226,0,0,0,2.094,19.56a12.57,12.57,0,0,0,5.469,4.615,10.881,10.881,0,0,1,.213-2.907L9.4,14.4a4.38,4.38,0,0,1-.411-2A3.762,3.762,0,0,1,9.7,10.068a2.1,2.1,0,0,1,1.725-.936,1.541,1.541,0,0,1,1.265.542,2.081,2.081,0,0,1,.443,1.363,5.1,5.1,0,0,1-.189,1.24q-.189.731-.493,1.692T12.013,15.5a1.865,1.865,0,0,0,.378,1.716,2.009,2.009,0,0,0,1.61.715,3.3,3.3,0,0,0,2.882-1.954,9.372,9.372,0,0,0,1.125-4.747,4.656,4.656,0,0,0-1.388-3.5,5.322,5.322,0,0,0-3.868-1.347,5.98,5.98,0,0,0-6.208,6.044,3.736,3.736,0,0,0,.838,2.48.749.749,0,0,1,.181.706q-.033.1-.131.493c-.065.263-.109.433-.131.509q-.131.526-.624.328a3.705,3.705,0,0,1-1.921-1.823A6.567,6.567,0,0,1,4.1,12.121a7.165,7.165,0,0,1,.353-2.2,7.506,7.506,0,0,1,1.1-2.127A8.642,8.642,0,0,1,7.34,5.978,8.4,8.4,0,0,1,9.878,4.714,10.544,10.544,0,0,1,13.1,4.237a8.451,8.451,0,0,1,4.188,1.035,7.393,7.393,0,0,1,2.833,2.677,6.758,6.758,0,0,1,.977,3.515,11.05,11.05,0,0,1-.854,4.434,7.28,7.28,0,0,1-2.414,3.1,5.913,5.913,0,0,1-3.548,1.125,3.9,3.9,0,0,1-1.872-.468,2.738,2.738,0,0,1-1.2-1.109q-.739,2.907-.887,3.465A10.1,10.1,0,0,1,9.04,24.7a12.613,12.613,0,0,0,9.912-1.167,12.553,12.553,0,0,0,4.59-4.59,12.34,12.34,0,0,0,1.692-6.331A12.334,12.334,0,0,0,23.543,6.282Z" transform="translate(-0.008 0)"/>
  </g>
</svg>
