<svg xmlns="http://www.w3.org/2000/svg" xmlns:xlink="http://www.w3.org/1999/xlink" width="186" height="186" viewBox="0 0 186 186">
  <defs>
    <linearGradient id="linear-gradient" x1="0.114" y1="0.058" x2="0.94" y2="0.913" gradientUnits="objectBoundingBox">
      <stop offset="0" stop-color="#e9b890"/>
      <stop offset="1" stop-color="#98baff"/>
    </linearGradient>
  </defs>
  <g id="ser_Trusted_Professionals" data-name="ser Trusted Professionals" transform="translate(-467 -882)">
    <rect id="Rectangle_32" data-name="Rectangle 32" width="126" height="126" rx="10" transform="translate(497 912)" fill="url(#linear-gradient)"/>
    <rect id="Rectangle_27" data-name="Rectangle 27" width="126" height="126" rx="10" transform="translate(497 912)" fill="#fff"/>
    <g id="Trusted_Professionals" data-name="Trusted Professionals" transform="translate(-171.886 735.174)">
      <path id="Path_4397" data-name="Path 4397" d="M714.624,222.6H704.034a2.119,2.119,0,0,0-2.139,2.14v40.245a2.045,2.045,0,0,0,.62,1.5,2.077,2.077,0,0,0,1.519.642h55.181a2.194,2.194,0,0,0,2.139-2.14V224.741a2.076,2.076,0,0,0-.642-1.519,2.042,2.042,0,0,0-1.5-.62H748.624m-20.133-4.514a3.14,3.14,0,1,1,.919,2.2A3.013,3.013,0,0,1,728.49,218.087Zm3.123-7.5a7.5,7.5,0,0,1,7.509,7.5h4.7v10.687h-24.4V218.087h4.7a7.487,7.487,0,0,1,7.5-7.5Zm-4.932,28.552a7.047,7.047,0,0,0-1.614-2.867l-.022-.032c-.07-.074-.142-.145-.214-.214a6.4,6.4,0,0,0-2.525-1.573c-.057-.019-.114-.036-.171-.053-.035-.008-.071-.015-.107-.021a6.151,6.151,0,0,0-1.284-.214c-.095-.006-.192-.009-.289-.011h-.331a6.179,6.179,0,0,0-4.343,1.873c-.073.069-.143.14-.214.214l-.011.032a7.128,7.128,0,0,0-1.177,1.7c-.006.017-.014.035-.021.053-.087.185-.164.374-.235.567a7.787,7.787,0,0,0-.461,2.663v.011a10.108,10.108,0,0,0,1.778,6.119,5.753,5.753,0,0,0,4.632,2.877h.257a5.761,5.761,0,0,0,4.847-2.846v-.011h-.012a10.266,10.266,0,0,0,1.831-6.14v-.011a8.37,8.37,0,0,0-.2-1.733c-.013-.054-.027-.108-.042-.16C726.726,239.289,726.7,239.214,726.681,239.14Zm9-.941h16.486m-39.625,12.549q-2.1.833-3.273,5.017l-.011.011q-.281,1.158.609,1.38l.2.032a61.573,61.573,0,0,0,20.7-.032h.009q.87-.218.61-1.337v-.011l-.009-.032v-.011q-1.18-4.185-3.285-5.017m7.584,3.99h16.486m0-8.259H735.678" transform="translate(0)" fill="none" stroke="#333" stroke-linecap="round" stroke-linejoin="round" stroke-width="2" fill-rule="evenodd"/>
    </g>
  </g>
</svg>
