<svg xmlns="http://www.w3.org/2000/svg" width="64.83" height="70.579" viewBox="0 0 64.83 70.579"><g transform="translate(651.17 611)"><path d="M-368-348h17.711a4.087,4.087,0,0,1,4.087,4.087h0a4.087,4.087,0,0,1-4.087,4.087H-357.1" transform="translate(-241.137 -226.306)" fill="none" stroke="#000" stroke-linecap="round" stroke-linejoin="round" stroke-miterlimit="10" stroke-width="2"/><path d="M-305.541-288h4.045a4.087,4.087,0,0,1,4.087,4.087h0a4.087,4.087,0,0,1-4.087,4.087h-6.812" transform="translate(-292.697 -278.132)" fill="none" stroke="#000" stroke-linecap="round" stroke-linejoin="round" stroke-miterlimit="10" stroke-width="2"/><path d="M-325.233-228h4.045a4.087,4.087,0,0,1,4.087,4.087h0a4.087,4.087,0,0,1-4.087,4.087H-328" transform="translate(-275.688 -329.958)" fill="none" stroke="#000" stroke-linecap="round" stroke-linejoin="round" stroke-miterlimit="10" stroke-width="2"/><path d="M-499.889-168h4.045a4.087,4.087,0,0,1,4.087,4.087h0a4.087,4.087,0,0,1-4.087,4.087h-15.617A43.673,43.673,0,0,1-527-162.553" transform="translate(-103.799 -381.784)" fill="none" stroke="#000" stroke-linecap="round" stroke-linejoin="round" stroke-miterlimit="10" stroke-width="2"/><path d="M-527-471.278s12.341-1.945,18.5-9.229a14.705,14.705,0,0,0,3.157-9.273,4.084,4.084,0,0,1,4.087-4.066,4.066,4.066,0,0,1,4.066,4.066s.569,9.986-2.7,15.8" transform="translate(-103.799 -100.33)" fill="none" stroke="#000" stroke-linecap="round" stroke-linejoin="round" stroke-miterlimit="10" stroke-width="2"/><rect width="19.371" height="32.599" rx="2" transform="translate(-650.17 -574.019)" fill="none" stroke="#000" stroke-linecap="round" stroke-linejoin="round" stroke-miterlimit="10" stroke-width="2"/><line y2="10.141" transform="translate(-640.385 -558.046)" fill="none" stroke="#000" stroke-linecap="round" stroke-miterlimit="10" stroke-width="2"/><circle cx="2.212" cy="2.212" r="2.212" transform="translate(-642.596 -568.344)" fill="none" stroke="#000" stroke-linecap="round" stroke-linejoin="round" stroke-miterlimit="10" stroke-width="2"/><line x2="8.174" transform="translate(-595.514 -591.472)" fill="none" stroke="#000" stroke-linecap="round" stroke-miterlimit="10" stroke-width="2"/><line x1="5.779" y2="5.779" transform="translate(-598.307 -603.995)" fill="none" stroke="#000" stroke-linecap="round" stroke-miterlimit="10" stroke-width="2"/><line y2="8.992" transform="translate(-605.05 -610)" fill="none" stroke="#000" stroke-linecap="round" stroke-miterlimit="10" stroke-width="2"/><line x2="5.779" y2="5.779" transform="translate(-617.573 -603.995)" fill="none" stroke="#000" stroke-linecap="round" stroke-miterlimit="10" stroke-width="2"/><line x1="8.174" transform="translate(-622.761 -591.472)" fill="none" stroke="#000" stroke-linecap="round" stroke-miterlimit="10" stroke-width="2"/></g></svg>