<svg xmlns="http://www.w3.org/2000/svg" width="73.26" height="47.708" viewBox="0 0 73.26 47.708">
  <g id="serviceCity-to-City" transform="translate(-527.822 -342.202)">
    <path id="Path_9" data-name="Path 9" d="M631.56,352.037a22.383,22.383,0,0,1-1.477,6.969c-1.535,4.262-4.26,8.553-7.358,8.553-4.879,0-8.835-10.641-8.835-15.521a8.835,8.835,0,0,1,8.835-8.835h0A8.836,8.836,0,0,1,631.56,352.037Z" transform="translate(-31.478)" fill="none" stroke="#000" stroke-miterlimit="10" stroke-width="2"/>
    <circle id="Ellipse_3" data-name="Ellipse 3" cx="3.936" cy="3.936" r="3.936" transform="translate(587.309 348.1)" fill="none" stroke="#000" stroke-miterlimit="10" stroke-width="2"/>
    <g id="Group_218" data-name="Group 218" transform="translate(528.822 364.554)">
      <path id="Path_9-2" data-name="Path 9" d="M546.492,385.931a22.383,22.383,0,0,1-1.477,6.969c-1.534,4.262-4.26,8.553-7.358,8.553-4.878,0-8.835-10.641-8.835-15.521a8.835,8.835,0,0,1,8.835-8.835h0A8.836,8.836,0,0,1,546.492,385.931Z" transform="translate(-528.822 -377.096)" fill="none" stroke="#000" stroke-miterlimit="10" stroke-width="2"/>
      <circle id="Ellipse_3-2" data-name="Ellipse 3" cx="3.936" cy="3.936" r="3.936" transform="translate(4.898 4.898)" fill="none" stroke="#000" stroke-miterlimit="10" stroke-width="2"/>
    </g>
    <path id="Path_4394" data-name="Path 4394" d="M542.847,360.243V343.2L560.71,348.9v40.014l-9.028-2.878" transform="translate(-5.19 0)" fill="none" stroke="#000" stroke-linecap="round" stroke-linejoin="round" stroke-width="2"/>
    <path id="Path_4395" data-name="Path 4395" d="M617.422,370.627v18.283l-17.863-5.694V343.2l7.616,2.428" transform="translate(-26.175 0)" fill="none" stroke="#000" stroke-linecap="round" stroke-linejoin="round" stroke-width="2"/>
    <path id="Path_4396" data-name="Path 4396" d="M571.2,388.911l17.863-5.694V343.2L571.2,348.9Z" transform="translate(-15.683 0)" fill="none" stroke="#000" stroke-linecap="round" stroke-linejoin="round" stroke-width="2"/>
  </g>
</svg>
