<svg xmlns="http://www.w3.org/2000/svg" width="74.466" height="70.881" viewBox="0 0 74.466 70.881"><g transform="translate(-1138.751 705.481)"><circle cx="32.176" cy="32.176" r="32.176" transform="translate(1143.81 -699.952)" fill="none" stroke="#000" stroke-linecap="round" stroke-linejoin="round" stroke-miterlimit="10" stroke-width="2"/><path d="M1140.07-683.612a39.359,39.359,0,0,1,21.244-20.568" transform="translate(0 0)" fill="none" stroke="#000" stroke-linecap="round" stroke-miterlimit="10" stroke-width="2"/><path d="M1277.03-704.18a39.359,39.359,0,0,1,21.244,20.568" transform="translate(-86.375 0)" fill="none" stroke="#000" stroke-linecap="round" stroke-miterlimit="10" stroke-width="2"/><line y2="3.501" transform="translate(1175.986 -699.952)" fill="none" stroke="#000" stroke-linecap="round" stroke-miterlimit="10" stroke-width="2"/><line y2="3.501" transform="translate(1175.986 -639.102)" fill="none" stroke="#000" stroke-linecap="round" stroke-miterlimit="10" stroke-width="2"/><line x1="3.501" transform="translate(1204.66 -667.776)" fill="none" stroke="#000" stroke-linecap="round" stroke-miterlimit="10" stroke-width="2"/><line x1="3.501" transform="translate(1143.81 -667.776)" fill="none" stroke="#000" stroke-linecap="round" stroke-miterlimit="10" stroke-width="2"/><line x1="2.476" y2="2.476" transform="translate(1196.261 -690.528)" fill="none" stroke="#000" stroke-linecap="round" stroke-miterlimit="10" stroke-width="2"/><line x1="2.476" y2="2.476" transform="translate(1153.234 -647.501)" fill="none" stroke="#000" stroke-linecap="round" stroke-miterlimit="10" stroke-width="2"/><line x1="2.476" y1="2.476" transform="translate(1196.261 -647.501)" fill="none" stroke="#000" stroke-linecap="round" stroke-miterlimit="10" stroke-width="2"/><line x1="2.476" y1="2.476" transform="translate(1153.234 -690.528)" fill="none" stroke="#000" stroke-linecap="round" stroke-miterlimit="10" stroke-width="2"/><path d="M1191.363-648.524h14.67v-20.124" transform="translate(-30.047 -19.252)" fill="none" stroke="#000" stroke-linecap="round" stroke-linejoin="round" stroke-miterlimit="10" stroke-width="2"/></g></svg>