<svg xmlns="http://www.w3.org/2000/svg" width="24.981" height="20.297" viewBox="0 0 24.981 20.297">
  <g id="twitter" transform="translate(0)">
    <g id="Group_109" data-name="Group 109" transform="translate(0 0)">
      <path id="Path_2630" data-name="Path 2630" d="M24.981,50.4a10.678,10.678,0,0,1-2.951.809,5.093,5.093,0,0,0,2.253-2.831,10.235,10.235,0,0,1-3.248,1.24,5.121,5.121,0,0,0-8.859,3.5,5.273,5.273,0,0,0,.119,1.168A14.5,14.5,0,0,1,1.739,48.934a5.123,5.123,0,0,0,1.574,6.845A5.058,5.058,0,0,1,1,55.148V55.2a5.145,5.145,0,0,0,4.1,5.032A5.111,5.111,0,0,1,3.76,60.4a4.528,4.528,0,0,1-.97-.087,5.17,5.17,0,0,0,4.785,3.568,10.29,10.29,0,0,1-6.35,2.184A9.591,9.591,0,0,1,0,66a14.418,14.418,0,0,0,7.857,2.3A14.476,14.476,0,0,0,22.433,53.724c0-.226-.008-.445-.019-.662A10.217,10.217,0,0,0,24.981,50.4Z" transform="translate(0 -48)"/>
    </g>
  </g>
</svg>
