<svg xmlns="http://www.w3.org/2000/svg" width="36.105" height="24.071" viewBox="0 0 36.105 24.071"><g transform="translate(0 -85.331)"><rect width="36.105" height="24.071" transform="translate(0 85.331)" fill="#f0f0f0"/><g transform="translate(0 88.34)"><rect width="36.105" height="3.009" transform="translate(0 0)" fill="#d80027"/><rect width="36.105" height="3.009" transform="translate(0 6.018)" fill="#d80027"/><rect width="36.105" height="3.009" transform="translate(0 12.035)" fill="#d80027"/><rect width="36.105" height="3.009" transform="translate(0 18.053)" fill="#d80027"/></g><rect width="18.053" height="12.961" transform="translate(0 85.331)" fill="#2e52b2"/><g transform="translate(1.834 87.413)"><path d="M83.594,160.624l-.291.894h-.94l.761.553-.291.894.761-.553.76.553-.291-.894.761-.553h-.94Z" transform="translate(-78.388 -157.396)" fill="#f0f0f0"/><path d="M83.884,207.291l-.29-.894-.291.894h-.94l.761.553-.291.894.761-.553.76.553-.291-.894.761-.553Z" transform="translate(-78.388 -199.941)" fill="#f0f0f0"/><path d="M27.523,207.291l-.29-.894-.291.894H26l.761.553-.291.894.761-.553.761.553-.291-.894.761-.553Z" transform="translate(-26.001 -199.941)" fill="#f0f0f0"/><path d="M27.232,160.624l-.291.894H26l.761.553-.291.894.761-.553.761.553-.291-.894.761-.553h-.94Z" transform="translate(-26.001 -157.396)" fill="#f0f0f0"/><path d="M83.594,114.85l-.291.895h-.94l.761.553-.291.894.761-.553.76.553-.291-.894.761-.553h-.94Z" transform="translate(-78.388 -114.85)" fill="#f0f0f0"/><path d="M27.232,114.85l-.291.895H26l.761.553-.291.894.761-.553.761.553L27.7,116.3l.761-.553h-.94Z" transform="translate(-26.001 -114.85)" fill="#f0f0f0"/><path d="M139.956,160.624l-.291.894h-.94l.761.553-.291.894.761-.553.761.553-.291-.894.761-.553h-.94Z" transform="translate(-130.776 -157.396)" fill="#f0f0f0"/><path d="M140.247,207.291l-.29-.894-.291.894h-.94l.761.553-.291.894.761-.553.761.553-.291-.894.761-.553Z" transform="translate(-130.776 -199.941)" fill="#f0f0f0"/><path d="M196.609,207.291l-.29-.894-.291.894h-.94l.761.553-.291.894.761-.553.761.553-.291-.894.761-.553Z" transform="translate(-183.164 -199.941)" fill="#f0f0f0"/><path d="M196.319,160.624l-.291.894h-.94l.761.553-.291.894.761-.553.761.553-.291-.894.761-.553h-.94Z" transform="translate(-183.164 -157.396)" fill="#f0f0f0"/><path d="M139.956,114.85l-.291.895h-.94l.761.553-.291.894.761-.553.761.553-.291-.894.761-.553h-.94Z" transform="translate(-130.776 -114.85)" fill="#f0f0f0"/><path d="M196.319,114.85l-.291.895h-.94l.761.553-.291.894.761-.553.761.553-.291-.894.761-.553h-.94Z" transform="translate(-183.164 -114.85)" fill="#f0f0f0"/></g></g></svg>