<svg xmlns="http://www.w3.org/2000/svg" width="35.788" height="35.788" viewBox="0 0 35.788 35.788"><path d="M23.905,16.644c-.619-.31-3.666-1.809-4.234-2.016s-.981-.31-1.394.31-1.6,2.016-1.962,2.429-.723.465-1.342.155A16.923,16.923,0,0,1,9.99,14.447a18.69,18.69,0,0,1-3.447-4.292c-.361-.621,0-.924.272-1.265A17.527,17.527,0,0,0,8.364,6.771a1.14,1.14,0,0,0-.052-1.086c-.155-.31-1.394-3.36-1.91-4.6C5.9-.122,5.389.041,5.008.022,4.647,0,4.234,0,3.821,0A2.276,2.276,0,0,0,2.168.775,6.949,6.949,0,0,0,0,5.944c0,3.05,2.22,6,2.53,6.41S6.9,19.026,13.114,21.709a35.465,35.465,0,0,0,3.532,1.305,8.494,8.494,0,0,0,3.9.246c1.191-.178,3.666-1.5,4.182-2.946a5.177,5.177,0,0,0,.361-2.947c-.155-.258-.568-.413-1.187-.724Zm0,0" transform="translate(17.236 0.707) rotate(45)" fill="none" stroke="#000" stroke-width="1" fill-rule="evenodd"/></svg>