<svg width="86" height="59" viewBox="0 0 86 59" fill="none" xmlns="http://www.w3.org/2000/svg">
<rect width="86" height="59" fill="white"/>
<path d="M84.6189 51.2088H81.2355C79.3746 51.2088 77.6226 51.1 75.7737 51.1C75.4474 50.8823 75.4474 50.3381 75.7737 50.0114L80.148 49.5762C80.8005 49.5762 81.1267 49.3584 81.3443 49.0319C81.888 48.4877 81.9968 44.9805 81.9968 41.3765V19.9342C81.9968 16.3302 81.888 12.823 81.3443 12.2788C81.0179 11.9523 80.8005 11.8434 80.148 11.8434L75.7737 11.2992C75.4474 10.9727 75.4474 10.4285 75.7737 10.2108C77.6226 10.1987 79.3746 10.0898 81.2355 10.0898H84.6189V51.2088Z" fill="black"/>
<path d="M1 10.0898H4.38342C6.24429 10.0898 7.99642 10.1987 9.84523 10.1987C10.1715 10.4164 10.1715 10.9606 9.84523 11.2871L5.47095 11.8314C4.81843 11.8314 4.60093 11.9402 4.27467 12.2667C3.7309 12.811 3.62215 16.3182 3.62215 19.9221V41.3524C3.62215 44.9563 3.7309 48.4635 4.27467 49.0077C4.49217 49.3342 4.81843 49.5519 5.47095 49.5519L9.84523 49.9874C10.1715 50.3139 10.1715 50.8581 9.84523 51.0758C7.98435 51.0758 6.23222 51.1846 4.38342 51.1846H1V10.0898Z" fill="black"/>
<path d="M54.6636 40.2754C52.5852 40.2754 50.5067 39.5134 49.3104 38.8483C48.8755 38.6306 48.4405 38.7394 48.2229 39.1748C48.0054 39.5013 47.788 39.9368 47.788 40.2632H46.5917V32.9465H47.9087C48.3438 36.4416 51.5218 38.5218 55.1228 38.5218C57.0924 38.5218 58.9533 37.5422 58.9533 36.0062C58.9533 34.5792 57.5273 33.5995 55.014 32.62L51.2921 31.193C48.7788 30.2133 46.9179 28.4597 46.9179 26.1619C46.9179 23.6464 49.9751 21.4574 53.8056 21.4574C55.449 21.4574 57.7449 21.8928 58.8324 22.437C59.2674 22.6547 59.8111 22.437 60.0408 22.0016C60.1496 21.7839 60.2582 21.3486 60.2582 21.1309H61.4666V27.5889H60.0408C59.6058 25.0734 57.2011 23.1022 53.9144 23.1022C52.1622 23.1022 50.1927 23.9729 50.1927 25.2911C50.1927 26.7182 51.7272 27.3712 54.7843 28.5686L57.9503 29.9956C60.8988 31.193 62.3246 33.1642 62.3246 34.7001C62.4334 37.9776 58.7116 40.2754 54.6636 40.2754Z" fill="black"/>
<path d="M22.7505 39.284C25.264 39.284 25.6989 38.7398 25.6989 35.6801V26.1621C25.6989 23.1025 25.3726 22.5583 22.7505 22.5583V21.6875H32.9129C40.1268 21.6875 43.1838 25.8478 43.1838 30.9876C43.1838 36.1275 40.018 40.2877 32.9129 40.2877H22.7505V39.284ZM29.5294 35.2447C29.5294 38.1956 29.9644 38.7398 32.4779 38.7398H33.0216C38.0484 38.7398 39.0393 34.3619 39.0393 30.8667C39.0393 27.3716 38.0604 22.9936 33.0216 22.9936H29.5294V35.2447Z" fill="black"/>
</svg>
