<svg width="428" height="342" viewBox="0 0 428 342" fill="none" xmlns="http://www.w3.org/2000/svg">
<g clip-path="url(#clip0)">
<g filter="url(#filter0_ddd)">
<path fill-rule="evenodd" clip-rule="evenodd" d="M214 321.836C297.304 321.836 364.836 254.304 364.836 171C364.836 87.6957 297.304 20.1642 214 20.1642C130.696 20.1642 63.1642 87.6957 63.1642 171C63.1642 254.304 130.696 321.836 214 321.836ZM214 334C304.022 334 377 261.022 377 171C377 80.9776 304.022 8 214 8C123.978 8 51 80.9776 51 171C51 261.022 123.978 334 214 334Z" fill="url(#paint0_linear)"/>
<path d="M214 325.336C299.237 325.336 368.336 256.237 368.336 171C368.336 85.7627 299.237 16.6642 214 16.6642C128.763 16.6642 59.6642 85.7627 59.6642 171C59.6642 256.237 128.763 325.336 214 325.336ZM373.5 171C373.5 259.089 302.089 330.5 214 330.5C125.911 330.5 54.5 259.089 54.5 171C54.5 82.9106 125.911 11.5 214 11.5C302.089 11.5 373.5 82.9106 373.5 171Z" stroke="#220347" stroke-width="7"/>
</g>
<mask id="mask0" mask-type="alpha" maskUnits="userSpaceOnUse" x="63" y="20" width="302" height="302">
<circle cx="214.084" cy="171.084" r="150.836" fill="url(#paint1_linear)"/>
</mask>
<g mask="url(#mask0)">
<path d="M197.237 288.615C220.025 357.302 164.988 391.366 116.722 388.186C68.4565 385.006 32.386 336.031 36.1564 278.797C39.9268 221.563 60.1928 207.806 130.376 180.923C200.559 154.039 174.449 219.929 197.237 288.615Z" fill="#ECF3FF"/>
<path d="M393.152 340.633C357.84 388.883 297.572 404.839 258.538 376.272C219.504 347.706 240.167 293.357 251.799 237.184C263.43 181.01 347.379 172.977 386.413 201.544C425.446 230.111 428.464 292.383 393.152 340.633Z" fill="#ECF3FF"/>
<path d="M332.86 96.8113C306.038 150.249 267.706 218.538 183.857 143.155C100.007 67.7723 105.162 49.4228 131.984 -4.01458C158.806 -57.4519 225.517 -78.2008 280.987 -50.3585C336.458 -22.5162 359.682 43.3739 332.86 96.8113Z" fill="#ECF3FF"/>
</g>
<path fill-rule="evenodd" clip-rule="evenodd" d="M272.011 221.278C272.887 220.897 273.697 220.406 274.426 219.822L276.821 220.873L279.392 217.394L277.684 215.414C278.027 214.546 278.26 213.627 278.364 212.677L280.798 211.727L280.154 207.448L277.548 207.256C277.167 206.379 276.676 205.569 276.092 204.84L277.143 202.446L273.661 199.875L271.681 201.584C270.813 201.24 269.894 201.007 268.944 200.904L267.993 198.468L263.714 199.112L263.525 201.719C262.648 202.1 261.838 202.591 261.109 203.175L258.714 202.125L256.143 205.606L257.852 207.586C257.508 208.454 257.276 209.373 257.172 210.323L254.735 211.274L255.379 215.552L257.985 215.744C258.366 216.621 258.857 217.431 259.441 218.16L258.391 220.555L261.872 223.123L263.852 221.414C264.72 221.757 265.639 221.99 266.589 222.094L267.542 224.53L271.819 223.886L272.011 221.278ZM268.653 216.06C266.119 216.441 263.753 214.697 263.372 212.16C262.99 209.626 264.735 207.261 267.271 206.879C269.805 206.498 272.171 208.242 272.553 210.779C272.934 213.312 271.187 215.678 268.653 216.06Z" fill="#455CA5"/>
<path fill-rule="evenodd" clip-rule="evenodd" d="M289.782 206.968C290.257 206.761 290.696 206.496 291.09 206.179L292.387 206.748L293.779 204.864L292.854 203.793C293.04 203.322 293.166 202.825 293.222 202.311L294.54 201.796L294.192 199.479L292.78 199.375C292.574 198.901 292.308 198.462 291.992 198.067L292.561 196.771L290.676 195.379L289.604 196.304C289.134 196.118 288.636 195.992 288.122 195.936L287.607 194.617L285.29 194.965L285.188 196.378C284.713 196.584 284.274 196.85 283.88 197.166L282.583 196.597L281.191 198.482L282.116 199.554C281.93 200.024 281.804 200.522 281.748 201.036L280.429 201.551L280.777 203.867L282.188 203.971C282.395 204.446 282.66 204.885 282.976 205.279L282.408 206.576L284.293 207.966L285.365 207.041C285.835 207.227 286.332 207.353 286.847 207.409L287.363 208.728L289.678 208.38L289.782 206.968ZM287.964 204.142C286.592 204.349 285.311 203.404 285.105 202.031C284.898 200.659 285.843 199.378 287.216 199.171C288.588 198.965 289.869 199.909 290.076 201.283C290.282 202.655 289.336 203.935 287.964 204.142Z" fill="#455CA5"/>
<path fill-rule="evenodd" clip-rule="evenodd" d="M101.473 177.937C102.35 177.556 103.16 177.065 103.889 176.482L106.284 177.532L108.855 174.053L107.146 172.073C107.489 171.205 107.722 170.286 107.826 169.336L110.26 168.386L109.616 164.107L107.01 163.915C106.629 163.038 106.138 162.228 105.555 161.5L106.605 159.105L103.123 156.534L101.144 158.243C100.275 157.9 99.3563 157.667 98.4065 157.563L97.4555 155.127L93.1765 155.771L92.9869 158.379C92.1102 158.76 91.3002 159.25 90.5714 159.834L88.1762 158.784L85.6056 162.265L87.3143 164.245C86.9708 165.113 86.7378 166.032 86.6341 166.982L84.1976 167.933L84.8416 172.211L87.4477 172.404C87.8287 173.28 88.3195 174.09 88.9034 174.819L87.8531 177.214L91.3341 179.782L93.314 178.073C94.1825 178.417 95.1013 178.65 96.051 178.753L97.0045 181.189L101.281 180.545L101.473 177.937ZM98.1152 172.719C95.581 173.1 93.2156 171.356 92.8339 168.82C92.4525 166.286 94.197 163.92 96.7335 163.539C99.2677 163.157 101.633 164.901 102.015 167.438C102.396 169.972 100.649 172.337 98.1152 172.719Z" fill="#455CA5"/>
<path fill-rule="evenodd" clip-rule="evenodd" d="M119.245 163.627C119.719 163.42 120.158 163.155 120.553 162.839L121.849 163.407L123.241 161.524L122.316 160.452C122.502 159.982 122.628 159.484 122.685 158.97L124.003 158.455L123.654 156.138L122.243 156.034C122.036 155.56 121.771 155.121 121.455 154.727L122.023 153.43L120.138 152.038L119.066 152.963C118.596 152.777 118.099 152.651 117.584 152.595L117.069 151.276L114.752 151.625L114.65 153.037C114.175 153.243 113.737 153.509 113.342 153.825L112.045 153.256L110.653 155.141L111.578 156.213C111.392 156.683 111.266 157.181 111.21 157.695L109.891 158.21L110.24 160.526L111.651 160.631C111.857 161.105 112.123 161.544 112.439 161.938L111.87 163.235L113.755 164.625L114.827 163.7C115.297 163.886 115.795 164.012 116.309 164.069L116.825 165.387L119.141 165.039L119.245 163.627ZM117.427 160.801C116.054 161.008 114.774 160.063 114.567 158.69C114.36 157.318 115.305 156.037 116.678 155.831C118.051 155.624 119.331 156.569 119.538 157.942C119.745 159.314 118.799 160.595 117.427 160.801Z" fill="#455CA5"/>
<path fill-rule="evenodd" clip-rule="evenodd" d="M190.982 79.9489C191.858 79.5679 192.668 79.0772 193.397 78.4933L195.792 79.5434L198.363 76.0646L196.655 74.0849C196.998 73.2166 197.231 72.2978 197.335 71.3481L199.769 70.3974L199.125 66.1188L196.519 65.9267C196.138 65.05 195.647 64.2402 195.063 63.5114L196.114 61.1164L192.632 58.5461L190.652 60.2547C189.784 59.9113 188.865 59.6783 187.915 59.5746L186.964 57.1384L182.685 57.7824L182.496 60.3903C181.619 60.7713 180.809 61.262 180.08 61.8459L177.685 60.7958L175.114 64.2769L176.823 66.2566C176.479 67.125 176.247 68.0438 176.143 68.9934L173.706 69.9445L174.35 74.2231L176.956 74.4152C177.337 75.2919 177.828 76.1018 178.412 76.8306L177.362 79.2255L180.843 81.7934L182.823 80.0848C183.691 80.4283 184.61 80.6612 185.56 80.765L186.513 83.2008L190.79 82.5572L190.982 79.9489ZM187.624 74.7304C185.09 75.1118 182.724 73.3675 182.343 70.8312C181.961 68.2973 183.706 65.932 186.242 65.5503C188.776 65.1689 191.142 66.9132 191.524 69.4495C191.905 71.9834 190.158 74.349 187.624 74.7304Z" fill="#455CA5"/>
<path fill-rule="evenodd" clip-rule="evenodd" d="M208.753 65.6385C209.228 65.4322 209.667 65.1665 210.061 64.8503L211.358 65.4189L212.75 63.5353L211.825 62.4634C212.011 61.9932 212.137 61.4957 212.193 60.9816L213.511 60.4668L213.163 58.1501L211.751 58.0461C211.545 57.5714 211.279 57.1329 210.963 56.7383L211.532 55.4416L209.647 54.0499L208.575 54.975C208.105 54.7891 207.607 54.6629 207.093 54.6068L206.578 53.2877L204.261 53.6364L204.158 55.0484C203.684 55.2547 203.245 55.5204 202.851 55.8366L201.554 55.268L200.162 57.1528L201.087 58.2248C200.901 58.6949 200.775 59.1924 200.719 59.7066L199.4 60.2216L199.748 62.5382L201.159 62.6422C201.366 63.1169 201.631 63.5554 201.947 63.95L201.379 65.2468L203.264 66.6372L204.336 65.712C204.806 65.898 205.303 66.0241 205.818 66.0803L206.334 67.3992L208.649 67.0507L208.753 65.6385ZM206.935 62.8129C205.563 63.0194 204.282 62.0749 204.076 60.7017C203.869 59.3297 204.814 58.049 206.187 57.8423C207.559 57.6358 208.84 58.5803 209.047 59.9535C209.253 61.3255 208.307 62.6064 206.935 62.8129Z" fill="#455CA5"/>
<path d="M283.638 220.214C283.638 219.295 284.383 218.55 285.302 218.55H317.192C318.111 218.55 318.856 219.295 318.856 220.214V224.11C318.856 225.029 318.111 225.774 317.192 225.774H285.302C284.383 225.774 283.638 225.029 283.638 224.11V220.214Z" fill="#455CA5"/>
<path d="M283.637 229.244C283.637 228.325 284.382 227.58 285.301 227.58H317.191C318.11 227.58 318.855 228.325 318.855 229.244V233.14C318.855 234.059 318.11 234.804 317.191 234.804H285.301C284.382 234.804 283.637 234.059 283.637 233.14V229.244Z" fill="#455CA5"/>
<path d="M283.637 238.274C283.637 237.354 284.382 236.609 285.301 236.609H317.191C318.11 236.609 318.855 237.354 318.855 238.274V242.169C318.855 243.089 318.11 243.834 317.191 243.834H285.301C284.382 243.834 283.637 243.089 283.637 242.169V238.274Z" fill="#455CA5"/>
<path d="M283.637 247.304C283.637 246.385 284.382 245.64 285.301 245.64H317.191C318.11 245.64 318.855 246.385 318.855 247.304V251.2C318.855 252.119 318.11 252.864 317.191 252.864H285.301C284.382 252.864 283.637 252.119 283.637 251.2V247.304Z" fill="#455CA5"/>
<path d="M315.243 222.163C315.243 222.662 314.839 223.066 314.34 223.066C313.842 223.066 313.437 222.662 313.437 222.163C313.437 221.664 313.842 221.26 314.34 221.26C314.839 221.26 315.243 221.664 315.243 222.163Z" fill="#64D9B8"/>
<path d="M315.243 231.192C315.243 231.691 314.839 232.095 314.34 232.095C313.842 232.095 313.437 231.691 313.437 231.192C313.437 230.693 313.842 230.289 314.34 230.289C314.839 230.289 315.243 230.693 315.243 231.192Z" fill="#64D9B8"/>
<path d="M315.243 240.223C315.243 240.722 314.839 241.126 314.34 241.126C313.842 241.126 313.437 240.722 313.437 240.223C313.437 239.725 313.842 239.32 314.34 239.32C314.839 239.32 315.243 239.725 315.243 240.223Z" fill="#64D9B8"/>
<path d="M315.243 249.252C315.243 249.75 314.839 250.155 314.34 250.155C313.842 250.155 313.437 249.75 313.437 249.252C313.437 248.753 313.842 248.349 314.34 248.349C314.839 248.349 315.243 248.753 315.243 249.252Z" fill="#64D9B8"/>
<path d="M312.534 222.163C312.534 222.662 312.13 223.066 311.631 223.066C311.132 223.066 310.728 222.662 310.728 222.163C310.728 221.664 311.132 221.26 311.631 221.26C312.13 221.26 312.534 221.664 312.534 222.163Z" fill="white"/>
<path d="M312.071 231.102C312.071 231.601 311.667 232.005 311.168 232.005C310.669 232.005 310.265 231.601 310.265 231.102C310.265 230.604 310.669 230.199 311.168 230.199C311.667 230.199 312.071 230.604 312.071 231.102Z" fill="white"/>
<path d="M312.534 240.223C312.534 240.722 312.13 241.126 311.631 241.126C311.132 241.126 310.728 240.722 310.728 240.223C310.728 239.725 311.132 239.32 311.631 239.32C312.13 239.32 312.534 239.725 312.534 240.223Z" fill="white"/>
<path d="M312.534 249.252C312.534 249.75 312.13 250.155 311.631 250.155C311.132 250.155 310.728 249.75 310.728 249.252C310.728 248.753 311.132 248.349 311.631 248.349C312.13 248.349 312.534 248.753 312.534 249.252Z" fill="white"/>
<path d="M113.1 177.664C113.1 176.745 113.845 176 114.764 176H146.654C147.573 176 148.318 176.745 148.318 177.664V181.56C148.318 182.479 147.573 183.224 146.654 183.224H114.764C113.845 183.224 113.1 182.479 113.1 181.56V177.664Z" fill="#455CA5"/>
<path d="M113.1 186.695C113.1 185.776 113.845 185.031 114.764 185.031H146.654C147.573 185.031 148.318 185.776 148.318 186.695V190.591C148.318 191.51 147.573 192.256 146.654 192.256H114.764C113.845 192.256 113.1 191.51 113.1 190.591V186.695Z" fill="#455CA5"/>
<path d="M113.1 195.725C113.1 194.806 113.845 194.061 114.764 194.061H146.654C147.573 194.061 148.318 194.806 148.318 195.725V199.621C148.318 200.54 147.573 201.285 146.654 201.285H114.764C113.845 201.285 113.1 200.54 113.1 199.621V195.725Z" fill="#455CA5"/>
<path d="M113.1 204.755C113.1 203.836 113.845 203.091 114.764 203.091H146.654C147.573 203.091 148.318 203.836 148.318 204.755V208.651C148.318 209.57 147.573 210.315 146.654 210.315H114.764C113.845 210.315 113.1 209.57 113.1 208.651V204.755Z" fill="#455CA5"/>
<path d="M144.706 179.613C144.706 180.112 144.301 180.516 143.803 180.516C143.304 180.516 142.9 180.112 142.9 179.613C142.9 179.114 143.304 178.71 143.803 178.71C144.301 178.71 144.706 179.114 144.706 179.613Z" fill="#64D9B8"/>
<path d="M144.706 188.643C144.706 189.142 144.301 189.546 143.803 189.546C143.304 189.546 142.9 189.142 142.9 188.643C142.9 188.145 143.304 187.74 143.803 187.74C144.301 187.74 144.706 188.145 144.706 188.643Z" fill="#64D9B8"/>
<path d="M144.706 197.674C144.706 198.172 144.301 198.577 143.803 198.577C143.304 198.577 142.9 198.172 142.9 197.674C142.9 197.175 143.304 196.771 143.803 196.771C144.301 196.771 144.706 197.175 144.706 197.674Z" fill="#64D9B8"/>
<path d="M144.706 206.703C144.706 207.202 144.301 207.606 143.803 207.606C143.304 207.606 142.9 207.202 142.9 206.703C142.9 206.204 143.304 205.8 143.803 205.8C144.301 205.8 144.706 206.204 144.706 206.703Z" fill="#64D9B8"/>
<path d="M141.997 179.613C141.997 180.112 141.592 180.516 141.094 180.516C140.595 180.516 140.19 180.112 140.19 179.613C140.19 179.114 140.595 178.71 141.094 178.71C141.592 178.71 141.997 179.114 141.997 179.613Z" fill="white"/>
<path d="M141.533 188.553C141.533 189.052 141.129 189.456 140.63 189.456C140.132 189.456 139.727 189.052 139.727 188.553C139.727 188.055 140.132 187.65 140.63 187.65C141.129 187.65 141.533 188.055 141.533 188.553Z" fill="white"/>
<path d="M141.997 197.674C141.997 198.172 141.592 198.577 141.094 198.577C140.595 198.577 140.19 198.172 140.19 197.674C140.19 197.175 140.595 196.771 141.094 196.771C141.592 196.771 141.997 197.175 141.997 197.674Z" fill="white"/>
<path d="M141.997 206.703C141.997 207.202 141.592 207.606 141.094 207.606C140.595 207.606 140.19 207.202 140.19 206.703C140.19 206.204 140.595 205.8 141.094 205.8C141.592 205.8 141.997 206.204 141.997 206.703Z" fill="white"/>
<path d="M202.609 78.8849C202.609 77.9658 203.354 77.2207 204.273 77.2207H236.163C237.082 77.2207 237.827 77.9658 237.827 78.8849V82.7807C237.827 83.6999 237.082 84.445 236.163 84.445H204.273C203.354 84.445 202.609 83.6999 202.609 82.7807V78.8849Z" fill="#455CA5"/>
<path d="M202.608 87.9152C202.608 86.9961 203.353 86.251 204.273 86.251H236.162C237.081 86.251 237.827 86.9961 237.827 87.9152V91.811C237.827 92.7301 237.081 93.4752 236.162 93.4752H204.273C203.353 93.4752 202.608 92.7301 202.608 91.811V87.9152Z" fill="#455CA5"/>
<path d="M202.608 96.9445C202.608 96.0254 203.353 95.2803 204.273 95.2803H236.162C237.081 95.2803 237.827 96.0254 237.827 96.9445V100.84C237.827 101.759 237.081 102.505 236.162 102.505H204.273C203.353 102.505 202.608 101.759 202.608 100.84V96.9445Z" fill="#455CA5"/>
<path d="M202.608 105.975C202.608 105.056 203.353 104.311 204.273 104.311H236.162C237.081 104.311 237.827 105.056 237.827 105.975V109.871C237.827 110.79 237.081 111.535 236.162 111.535H204.273C203.353 111.535 202.608 110.79 202.608 109.871V105.975Z" fill="#455CA5"/>
<path d="M234.214 80.8327C234.214 81.3315 233.81 81.7358 233.311 81.7358C232.813 81.7358 232.408 81.3315 232.408 80.8327C232.408 80.334 232.813 79.9297 233.311 79.9297C233.81 79.9297 234.214 80.334 234.214 80.8327Z" fill="#64D9B8"/>
<path d="M234.214 89.863C234.214 90.3617 233.81 90.766 233.311 90.766C232.813 90.766 232.408 90.3617 232.408 89.863C232.408 89.3643 232.813 88.96 233.311 88.96C233.81 88.96 234.214 89.3643 234.214 89.863Z" fill="#64D9B8"/>
<path d="M234.214 98.8942C234.214 99.393 233.81 99.7973 233.311 99.7973C232.813 99.7973 232.408 99.393 232.408 98.8942C232.408 98.3955 232.813 97.9912 233.311 97.9912C233.81 97.9912 234.214 98.3955 234.214 98.8942Z" fill="#64D9B8"/>
<path d="M234.214 107.924C234.214 108.422 233.81 108.827 233.311 108.827C232.813 108.827 232.408 108.422 232.408 107.924C232.408 107.425 232.813 107.021 233.311 107.021C233.81 107.021 234.214 107.425 234.214 107.924Z" fill="#64D9B8"/>
<path d="M231.505 80.8327C231.505 81.3315 231.101 81.7358 230.602 81.7358C230.103 81.7358 229.699 81.3315 229.699 80.8327C229.699 80.334 230.103 79.9297 230.602 79.9297C231.101 79.9297 231.505 80.334 231.505 80.8327Z" fill="white"/>
<path d="M231.042 89.7732C231.042 90.2719 230.638 90.6762 230.139 90.6762C229.64 90.6762 229.236 90.2719 229.236 89.7732C229.236 89.2744 229.64 88.8701 230.139 88.8701C230.638 88.8701 231.042 89.2744 231.042 89.7732Z" fill="white"/>
<path d="M231.505 98.8942C231.505 99.393 231.101 99.7973 230.602 99.7973C230.103 99.7973 229.699 99.393 229.699 98.8942C229.699 98.3955 230.103 97.9912 230.602 97.9912C231.101 97.9912 231.505 98.3955 231.505 98.8942Z" fill="white"/>
<path d="M231.505 107.924C231.505 108.422 231.101 108.827 230.602 108.827C230.103 108.827 229.699 108.422 229.699 107.924C229.699 107.425 230.103 107.021 230.602 107.021C231.101 107.021 231.505 107.425 231.505 107.924Z" fill="white"/>
<path d="M320.014 58.4268L328.615 67.0281L108.306 287.338L99.7046 278.736L320.014 58.4268Z" fill="#220347"/>
</g>
<defs>
<filter id="filter0_ddd" x="21" y="0" width="386" height="394" filterUnits="userSpaceOnUse" color-interpolation-filters="sRGB">
<feFlood flood-opacity="0" result="BackgroundImageFix"/>
<feColorMatrix in="SourceAlpha" type="matrix" values="0 0 0 0 0 0 0 0 0 0 0 0 0 0 0 0 0 0 127 0"/>
<feOffset dy="30"/>
<feGaussianBlur stdDeviation="15"/>
<feColorMatrix type="matrix" values="0 0 0 0 0 0 0 0 0 0 0 0 0 0 0 0 0 0 0.02 0"/>
<feBlend mode="normal" in2="BackgroundImageFix" result="effect1_dropShadow"/>
<feColorMatrix in="SourceAlpha" type="matrix" values="0 0 0 0 0 0 0 0 0 0 0 0 0 0 0 0 0 0 127 0"/>
<feOffset/>
<feGaussianBlur stdDeviation="4"/>
<feColorMatrix type="matrix" values="0 0 0 0 0 0 0 0 0 0 0 0 0 0 0 0 0 0 0.03 0"/>
<feBlend mode="normal" in2="effect1_dropShadow" result="effect2_dropShadow"/>
<feColorMatrix in="SourceAlpha" type="matrix" values="0 0 0 0 0 0 0 0 0 0 0 0 0 0 0 0 0 0 127 0"/>
<feOffset dy="1"/>
<feColorMatrix type="matrix" values="0 0 0 0 0 0 0 0 0 0 0 0 0 0 0 0 0 0 0.05 0"/>
<feBlend mode="normal" in2="effect2_dropShadow" result="effect3_dropShadow"/>
<feBlend mode="normal" in="SourceGraphic" in2="effect3_dropShadow" result="shape"/>
</filter>
<linearGradient id="paint0_linear" x1="214" y1="8" x2="214" y2="334" gradientUnits="userSpaceOnUse">
<stop stop-color="white"/>
<stop offset="1" stop-color="#F9FAFF"/>
</linearGradient>
<linearGradient id="paint1_linear" x1="214.084" y1="20.248" x2="214.084" y2="321.92" gradientUnits="userSpaceOnUse">
<stop stop-color="white"/>
<stop offset="1" stop-color="#F9FAFF"/>
</linearGradient>
<clipPath id="clip0">
<rect width="428" height="342" fill="white"/>
</clipPath>
</defs>
</svg>
