<?xml version="1.0" encoding="utf-8"?>
<!-- Generator: Adobe Illustrator 24.3.0, SVG Export Plug-In . SVG Version: 6.00 Build 0)  -->
<svg version="1.1" id="Layer_1" xmlns="http://www.w3.org/2000/svg" xmlns:xlink="http://www.w3.org/1999/xlink" x="0px" y="0px"
	 viewBox="0 0 404 228" style="enable-background:new 0 0 404 228;" xml:space="preserve">
<style type="text/css">
	.st0{fill:#220347;}
	.st1{fill:#7D4BB8;fill-opacity:0.8;}
	.st2{fill:#FFFFFF;}
	.st3{fill:#EE58EC;}
	.st4{fill:#64D9B8;}
	.st5{fill-rule:evenodd;clip-rule:evenodd;fill:#FFFFFF;}
	.st6{fill-rule:evenodd;clip-rule:evenodd;fill:#220347;}
	.st7{fill:#FFFFFF;fill-opacity:0.2;}
</style>
<path class="st0" d="M95,99c0-2.8,2.2-5,5-5h196.1c2.8,0,5,2.2,5,5v124c0,2.8-2.2,5-5,5H100c-2.8,0-5-2.2-5-5V99z"/>
<path class="st1" d="M296,94c2.8,0,5,2.2,5,5v8H95v-8c0-2.8,2.2-5,5-5H296z"/>
<path class="st2" d="M127,141.5c0-1.6,1.3-2.9,2.9-2.9h72.4c1.6,0,2.9,1.3,2.9,2.9c0,1.6-1.3,2.9-2.9,2.9h-72.4
	C128.3,144.5,127,143.2,127,141.5z"/>
<path class="st3" d="M127,123.9c0-1.6,1.3-2.9,2.9-2.9h12.5c1.6,0,2.9,1.3,2.9,2.9c0,1.6-1.3,2.9-2.9,2.9h-12.5
	C128.3,126.8,127,125.5,127,123.9z"/>
<path class="st4" d="M127,158.8c0-1.6,1.3-2.9,2.9-2.9h35.8c1.6,0,2.9,1.3,2.9,2.9s-1.3,2.9-2.9,2.9h-35.8
	C128.3,161.7,127,160.4,127,158.8z"/>
<path class="st4" d="M127,176.1c0-1.6,1.3-2.9,2.9-2.9h12.5c1.6,0,2.9,1.3,2.9,2.9c0,1.6-1.3,2.9-2.9,2.9h-12.5
	C128.3,179,127,177.7,127,176.1z"/>
<path class="st4" d="M211.9,141.5c0-1.6,1.3-2.9,2.9-2.9h4.1c1.6,0,2.9,1.3,2.9,2.9c0,1.6-1.3,2.9-2.9,2.9h-4.1
	C213.2,144.5,211.9,143.2,211.9,141.5z"/>
<path class="st4" d="M173.6,158.8c0-1.6,1.3-2.9,2.9-2.9h37.4c1.6,0,2.9,1.3,2.9,2.9s-1.3,2.9-2.9,2.9h-37.4
	C174.9,161.7,173.6,160.4,173.6,158.8z"/>
<path class="st2" d="M152,176.1c0-1.6,1.3-2.9,2.9-2.9h12.5c1.6,0,2.9,1.3,2.9,2.9c0,1.6-1.3,2.9-2.9,2.9h-12.5
	C153.3,179,152,177.7,152,176.1z"/>
<path class="st3" d="M228.5,141.5c0-1.6,1.3-2.9,2.9-2.9h12.5c1.6,0,2.9,1.3,2.9,2.9c0,1.6-1.3,2.9-2.9,2.9h-12.5
	C229.8,144.5,228.5,143.2,228.5,141.5z"/>
<path class="st2" d="M221.9,158.8c0-1.6,1.3-2.9,2.9-2.9h42.4c1.6,0,2.9,1.3,2.9,2.9s-1.3,2.9-2.9,2.9h-42.4
	C223.2,161.7,221.9,160.4,221.9,158.8z"/>
<path class="st4" d="M176.9,176.1c0-1.6,1.3-2.9,2.9-2.9h34.1c1.6,0,2.9,1.3,2.9,2.9c0,1.6-1.3,2.9-2.9,2.9h-34.1
	C178.2,179,176.9,177.7,176.9,176.1z"/>
<path class="st5" d="M128,210.2c0.6,0.6,1.5,0.6,2.1,0l6.1-6.1c0.6-0.6,0.6-1.5,0-2.1l-6.1-6.1c-0.6-0.6-1.5-0.6-2.1,0
	c-0.6,0.6-0.6,1.5,0,2.1l5,5l-5,5C127.4,208.7,127.4,209.6,128,210.2z"/>
<path class="st2" d="M139,209.5c0-0.8,0.7-1.5,1.5-1.5h11c0.8,0,1.5,0.7,1.5,1.5s-0.7,1.5-1.5,1.5h-11
	C139.7,211,139,210.3,139,209.5z"/>
<path class="st0" d="M57.4,202.2c1.5,0,2.8-1.3,2.8-2.8c0-1.5-1.3-2.8-2.8-2.8c-1.5,0-2.8,1.3-2.8,2.8
	C54.6,201,55.8,202.2,57.4,202.2z"/>
<path class="st0" d="M66.5,202.2c1.5,0,2.8-1.3,2.8-2.8c0-1.5-1.3-2.8-2.8-2.8s-2.8,1.3-2.8,2.8C63.7,201,65,202.2,66.5,202.2z"/>
<path class="st0" d="M75.6,202.2c1.5,0,2.8-1.3,2.8-2.8c0-1.5-1.3-2.8-2.8-2.8s-2.8,1.3-2.8,2.8C72.8,201,74.1,202.2,75.6,202.2z"/>
<path class="st0" d="M320.4,202.2c1.5,0,2.8-1.3,2.8-2.8c0-1.5-1.3-2.8-2.8-2.8s-2.8,1.3-2.8,2.8C317.6,201,318.8,202.2,320.4,202.2
	z"/>
<path class="st0" d="M329.5,202.2c1.5,0,2.8-1.3,2.8-2.8c0-1.5-1.3-2.8-2.8-2.8s-2.8,1.3-2.8,2.8C326.7,201,328,202.2,329.5,202.2z"
	/>
<path class="st0" d="M338.6,202.2c1.5,0,2.8-1.3,2.8-2.8c0-1.5-1.3-2.8-2.8-2.8s-2.8,1.3-2.8,2.8C335.8,201,337.1,202.2,338.6,202.2
	z"/>
<path class="st0" d="M57.4,125.2c1.5,0,2.8-1.3,2.8-2.8c0-1.5-1.3-2.8-2.8-2.8c-1.5,0-2.8,1.3-2.8,2.8
	C54.6,124,55.8,125.2,57.4,125.2z"/>
<path class="st0" d="M66.5,125.2c1.5,0,2.8-1.3,2.8-2.8c0-1.5-1.3-2.8-2.8-2.8s-2.8,1.3-2.8,2.8C63.7,124,65,125.2,66.5,125.2z"/>
<path class="st0" d="M75.6,125.2c1.5,0,2.8-1.3,2.8-2.8c0-1.5-1.3-2.8-2.8-2.8s-2.8,1.3-2.8,2.8C72.8,124,74.1,125.2,75.6,125.2z"/>
<path class="st0" d="M320.4,125.2c1.5,0,2.8-1.3,2.8-2.8c0-1.5-1.3-2.8-2.8-2.8s-2.8,1.3-2.8,2.8C317.6,124,318.8,125.2,320.4,125.2
	z"/>
<path class="st0" d="M329.5,125.2c1.5,0,2.8-1.3,2.8-2.8c0-1.5-1.3-2.8-2.8-2.8s-2.8,1.3-2.8,2.8C326.7,124,328,125.2,329.5,125.2z"
	/>
<path class="st0" d="M338.6,125.2c1.5,0,2.8-1.3,2.8-2.8c0-1.5-1.3-2.8-2.8-2.8s-2.8,1.3-2.8,2.8C335.8,124,337.1,125.2,338.6,125.2
	z"/>
<path class="st0" d="M139.8,66.4c0,1.5,1.3,2.8,2.8,2.8c1.5,0,2.8-1.3,2.8-2.8c0-1.5-1.3-2.8-2.8-2.8
	C141,63.6,139.8,64.8,139.8,66.4z"/>
<path class="st0" d="M139.8,75.5c0,1.5,1.3,2.8,2.8,2.8c1.5,0,2.8-1.3,2.8-2.8s-1.3-2.8-2.8-2.8C141,72.7,139.8,74,139.8,75.5z"/>
<path class="st0" d="M139.8,84.6c0,1.5,1.3,2.8,2.8,2.8c1.5,0,2.8-1.3,2.8-2.8s-1.3-2.8-2.8-2.8C141,81.8,139.8,83.1,139.8,84.6z"/>
<path class="st0" d="M248.8,66.4c0,1.5,1.3,2.8,2.8,2.8c1.5,0,2.8-1.3,2.8-2.8c0-1.5-1.3-2.8-2.8-2.8
	C250,63.6,248.8,64.8,248.8,66.4z"/>
<path class="st0" d="M248.8,75.5c0,1.5,1.3,2.8,2.8,2.8c1.5,0,2.8-1.3,2.8-2.8s-1.3-2.8-2.8-2.8C250,72.7,248.8,74,248.8,75.5z"/>
<path class="st0" d="M248.8,84.6c0,1.5,1.3,2.8,2.8,2.8c1.5,0,2.8-1.3,2.8-2.8s-1.3-2.8-2.8-2.8C250,81.8,248.8,83.1,248.8,84.6z"/>
<path class="st0" d="M24.7,97H7.1c-1.2,0-2.3,0.5-3.1,1.3s-1.3,2-1.3,3.1v35.4c0,1.2,0.5,2.3,1.3,3.1s2,1.3,3.1,1.3h26.5
	c1.2,0,2.3-0.5,3.1-1.3c0.8-0.8,1.3-2,1.3-3.1v-26.5L24.7,97z M33.6,136.8H7.1v-35.4h15.5v11.1h11.1V136.8z"/>
<path class="st0" d="M0,180.5h41v6.2H0V180.5z"/>
<path class="st0" d="M0,190.4h11.2v6.2H0V190.4z"/>
<path class="st0" d="M0,200.4h11.2v6.2H0V200.4z"/>
<path class="st0" d="M0,210.3h11.2v6.2H0V210.3z"/>
<path class="st0" d="M14.9,190.4h11.2v6.2H14.9V190.4z"/>
<path class="st0" d="M14.9,200.4h11.2v6.2H14.9V200.4z"/>
<path class="st0" d="M14.9,210.3h11.2v6.2H14.9V210.3z"/>
<path class="st0" d="M29.8,190.4H41v6.2H29.8V190.4z"/>
<path class="st0" d="M29.8,200.4H41v6.2H29.8V200.4z"/>
<path class="st0" d="M29.8,210.3H41v6.2H29.8V210.3z"/>
<path class="st0" d="M122.5,38.2l1.9,1.1l21-36.5l-1.9-1.1L122.5,38.2z"/>
<path class="st0" d="M164.1,35.2h-42.1v2.2h42.1V35.2z"/>
<path class="st0" d="M122.9,36.5l21,12.2l1.1-1.9l-21-12.2L122.9,36.5z"/>
<path class="st0" d="M141.2,4.8l21,12.2l1.1-1.9l-21-12.2L141.2,4.8z"/>
<path class="st0" d="M122.9,15l1.1,1.9l21-12.2L144,2.9L122.9,15z"/>
<path class="st0" d="M140.8,2.8l21,36.5l1.9-1.1l-21-36.5L140.8,2.8z"/>
<path class="st0" d="M125.9,13.6h-2.2v24.3h2.2V13.6z"/>
<path class="st0" d="M162.5,13.6h-2.2v24.3h2.2V13.6z"/>
<path class="st0" d="M142.6,46.1l1,1.7l18.3-10.6l-1-1.7L142.6,46.1z"/>
<path class="st0" d="M165.4,38.6c-1.3,2.2-4.1,2.9-6.3,1.7c-2.2-1.3-2.9-4.1-1.7-6.3c1.3-2.2,4.1-2.9,6.3-1.7
	C165.9,33.6,166.6,36.4,165.4,38.6z"/>
<path class="st0" d="M128.8,17.5c-1.3,2.2-4.1,2.9-6.3,1.7c-2.2-1.3-2.9-4.1-1.7-6.3s4.1-2.9,6.3-1.7
	C129.3,12.5,130,15.3,128.8,17.5z"/>
<path class="st0" d="M120.8,38.6c-1.3-2.2-0.5-5,1.7-6.3c2.2-1.3,5-0.5,6.3,1.7c1.3,2.2,0.5,5-1.7,6.3
	C124.9,41.6,122.1,40.8,120.8,38.6z"/>
<path class="st0" d="M157.4,17.5c-1.3-2.2-0.5-5,1.7-6.3c2.2-1.3,5-0.5,6.3,1.7c1.3,2.2,0.5,5-1.7,6.3
	C161.5,20.4,158.7,19.7,157.4,17.5z"/>
<path class="st0" d="M143.1,51.5c-2.5,0-4.6-2.1-4.6-4.6c0-2.5,2-4.6,4.6-4.6c2.5,0,4.6,2.1,4.6,4.6
	C147.7,49.4,145.6,51.5,143.1,51.5z"/>
<path class="st0" d="M143.1,9.2c-2.5,0-4.6-2.1-4.6-4.6c0-2.5,2-4.6,4.6-4.6s4.6,2.1,4.6,4.6C147.7,7.1,145.6,9.2,143.1,9.2z"/>
<path class="st0" d="M247.3,38c0,1.8-1.4,3.2-3.2,3.2c-1.8,0-3.2-1.4-3.2-3.2c0-1.8,1.4-3.2,3.2-3.2C245.9,34.8,247.3,36.3,247.3,38
	z"/>
<path class="st0" d="M255.9,38c0,1.8-1.4,3.2-3.2,3.2c-1.8,0-3.2-1.4-3.2-3.2c0-1.8,1.4-3.2,3.2-3.2C254.4,34.8,255.9,36.3,255.9,38
	z"/>
<path class="st0" d="M264.5,38c0,1.8-1.4,3.2-3.2,3.2S258,39.8,258,38c0-1.8,1.4-3.2,3.2-3.2S264.5,36.3,264.5,38z"/>
<path class="st0" d="M222,29.9c4.5,0,5,2.1,5,4.9v5.7c0,5.7,3.9,7.8,8,7.8h1V45h-0.6c-2.6,0-4.3-1.7-4.3-4.9v-5.2
	c0-3.8-1.3-6-4.6-6.7c3.2-0.6,4.6-3,4.6-6.6v-5.3c0-3,1.1-4.8,4.2-4.8h0.7V8.2h-1c-4.6,0-8,2.5-8,7.8v5.6c0,3-0.6,4.9-5,4.9V29.9z"
	/>
<path class="st0" d="M283,29.9c-4.5,0-5,2.1-5,4.9v5.7c0,5.7-3.9,7.8-8,7.8h-1V45h0.6c2.6,0,4.3-1.7,4.3-4.9v-5.2
	c0-3.8,1.3-6,4.6-6.7c-3.2-0.6-4.6-3-4.6-6.6v-5.3c0-3-1.1-4.8-4.2-4.8H269V8.2h1c4.6,0,8,2.5,8,7.8v5.6c0,3,0.6,4.9,5,4.9V29.9z"/>
<path class="st6" d="M381.7,140.1c-10.4,0-18.8-8.4-18.8-18.8c0-10.4,8.4-18.8,18.8-18.8c10.4,0,18.8,8.4,18.8,18.8
	C400.5,131.7,392.1,140.1,381.7,140.1z M381.7,143.6c-12.3,0-22.3-10-22.3-22.3c0-12.3,10-22.3,22.3-22.3c12.3,0,22.3,10,22.3,22.3
	C404,133.6,394,143.6,381.7,143.6z"/>
<path class="st0" d="M378.5,125.5l-4.3-4.3l-1.8,1.8l6.1,6.1l12.6-12.5l-1.8-1.8L378.5,125.5z"/>
<path class="st0" d="M382.6,224l-10.6-5.6c-3-1.6-5.5-4-7.3-6.9c-1.8-2.9-2.7-6.3-2.7-9.7v-22.3c0-0.9,0.4-1.8,1-2.4
	c0.6-0.6,1.5-1,2.4-1h34.3c0.9,0,1.8,0.4,2.4,1c0.6,0.6,1,1.5,1,2.4v22.3c0,3.4-0.9,6.8-2.7,9.7c-1.8,2.9-4.3,5.3-7.3,6.9L382.6,224
	z M365.4,179.4v22.3c0,2.8,0.8,5.5,2.2,7.9s3.5,4.4,6,5.7l9,4.8l9-4.8c2.5-1.3,4.5-3.3,6-5.7c1.4-2.4,2.2-5.1,2.2-7.9v-22.3H365.4z"
	/>
<path class="st0" d="M388.3,194.9h-1.1v-2.4c0-1.3-0.5-2.5-1.3-3.4c-0.8-0.9-1.9-1.4-3.1-1.4s-2.3,0.5-3.1,1.4
	c-0.8,0.9-1.3,2.1-1.3,3.4v2.4h-1.1l-1.1,1.2v7.2l1.1,1.2h11l1.1-1.2v-7.2L388.3,194.9z M379.5,192.5c0-1,0.3-1.9,1-2.5
	c0.6-0.7,1.5-1.1,2.3-1.1c0.9,0,1.7,0.4,2.3,1.1c0.6,0.7,1,1.6,1,2.5v2.4h-6.6V192.5z"/>
<path class="st7" d="M109,118.8h2.5v-2.1H109V118.8z"/>
<path class="st7" d="M109,129.8h2.5v-2.1H109V129.8z"/>
<path class="st7" d="M109,140.9h2.5v-2.1H109V140.9z"/>
<path class="st7" d="M109,151.9h2.5v-2.1H109V151.9z"/>
<path class="st7" d="M109,162.9h2.5v-2.1H109V162.9z"/>
<path class="st7" d="M109,173.9h2.5v-2.1H109V173.9z"/>
<path class="st7" d="M109,184.9h2.5v-2.1H109V184.9z"/>
<path class="st7" d="M109,195.9h2.5v-2.1H109V195.9z"/>
<path class="st7" d="M109,206.9h2.5v-2.1H109V206.9z"/>
<path class="st7" d="M109,218h2.5v-2.1H109V218z"/>
<path class="st0" d="M127,103c0-1.1,0.9-2,2-2h31c1.1,0,2,0.9,2,2v8c0,1.1-0.9,2-2,2h-31c-1.1,0-2-0.9-2-2V103z"/>
</svg>
