<?xml version="1.0" encoding="utf-8"?>
<!-- Generator: Adobe Illustrator 24.3.0, SVG Export Plug-In . SVG Version: 6.00 Build 0)  -->
<svg version="1.1" id="Layer_1" xmlns="http://www.w3.org/2000/svg" xmlns:xlink="http://www.w3.org/1999/xlink" x="0px" y="0px"
	 viewBox="0 0 497.6 270.6" style="enable-background:new 0 0 497.6 270.6;" xml:space="preserve">
<style type="text/css">
	.st0{fill:#220347;}
	.st1{fill:#FFFFFF;}
</style>
<path class="st0" d="M247.2,213.6h2v34h-2V213.6z"/>
<path class="st0" d="M215.2,184.6v2h-34v-2H215.2z"/>
<path class="st0" d="M41.2,88.6l1.4,1.4l-24,24l-1.4-1.4L41.2,88.6z"/>
<path class="st0" d="M456.6,88.6l-1.4,1.4l24,24l1.4-1.4L456.6,88.6z"/>
<path class="st0" d="M115.2,16.6l1.4,1.4l-24,24l-1.4-1.4L115.2,16.6z"/>
<path class="st0" d="M382.6,16.6l-1.4,1.4l24,24l1.4-1.4L382.6,16.6z"/>
<path class="st0" d="M42.6,43.6L41.2,45l-24-24l1.4-1.4L42.6,43.6z"/>
<path class="st0" d="M455.2,43.6l1.4,1.4l24-24l-1.4-1.4L455.2,43.6z"/>
<path class="st0" d="M313.2,184.6v2h-34v-2H313.2z"/>
<g>
	<path class="st0" d="M108.2,65.6c0,24.3-19.7,44-44,44s-44-19.7-44-44s19.7-44,44-44C88.5,21.6,108.2,41.3,108.2,65.6z"/>
</g>
<path class="st1" d="M58.6,71.5l-7.3-7.1l-3.1,3.1l10.4,10.2l21.6-20.9L77,53.6L58.6,71.5z"/>
<g>
	<path class="st0" d="M292.2,184.6c0,24.3-19.7,44-44,44s-44-19.7-44-44s19.7-44,44-44S292.2,160.3,292.2,184.6z"/>
</g>
<g>
	<path class="st0" d="M476.2,65.6c0,24.3-19.7,44-44,44s-44-19.7-44-44s19.7-44,44-44S476.2,41.3,476.2,65.6z"/>
</g>
<g>
	<path class="st0" d="M492.8,106.6c5.1,5.1,5.1,13.3,0,18.4c-5.1,5.1-13.3,5.1-18.4,0c-5.1-5.1-5.1-13.3,0-18.4
		C479.5,101.6,487.8,101.6,492.8,106.6z"/>
</g>
<g>
	<path class="st0" d="M176.2,198.6c-7.2,0-13-5.8-13-13s5.8-13,13-13s13,5.8,13,13S183.4,198.6,176.2,198.6z"/>
</g>
<g>
	<path class="st0" d="M23.2,126.1c-5.1,5.1-13.3,5.1-18.4,0s-5.1-13.3,0-18.4s13.3-5.1,18.4,0C28.3,112.8,28.3,121,23.2,126.1z"/>
</g>
<g>
	<path class="st0" d="M492.8,4.8c5.1,5.1,5.1,13.3,0,18.4s-13.3,5.1-18.4,0s-5.1-13.3,0-18.4S487.8-0.3,492.8,4.8z"/>
</g>
<g>
	<path class="st0" d="M261.2,256.6c0,7.2-5.8,13-13,13s-13-5.8-13-13c0-7.2,5.8-13,13-13S261.2,249.4,261.2,256.6z"/>
</g>
<g>
	<path class="st0" d="M23.2,24.3c-5.1,5.1-13.3,5.1-18.4,0S-0.3,11,4.8,5.9s13.3-5.1,18.4,0S28.3,19.2,23.2,24.3z"/>
</g>
<g>
	<path class="st0" d="M391,4.8c5.1,5.1,5.1,13.3,0,18.4s-13.3,5.1-18.4,0s-5.1-13.3,0-18.4S385.9-0.3,391,4.8z"/>
</g>
<g>
	<path class="st0" d="M320.2,198.6c-7.2,0-13-5.8-13-13s5.8-13,13-13s13,5.8,13,13S327.4,198.6,320.2,198.6z"/>
</g>
<g>
	<path class="st0" d="M125,24.3c-5.1,5.1-13.3,5.1-18.4,0s-5.1-13.3,0-18.4s13.3-5.1,18.4,0C130.1,11,130.1,19.2,125,24.3z"/>
</g>
<path class="st1" d="M242.6,190.5l-7.3-7.1l-3.1,3.1l10.5,10.2l21.6-20.9l-3.1-3.1L242.6,190.5z"/>
<path class="st1" d="M426.6,71.5l-7.3-7.1l-3.1,3.1l10.5,10.2l21.5-20.9l-3.1-3.1L426.6,71.5z"/>
<path class="st0" d="M105.5,101.6c1.3,0.8,3.1,0.3,3.8-1c0.8-1.3,0.3-3.1-1-3.8c-1.3-0.8-3.1-0.3-3.8,1
	C103.7,99.1,104.2,100.8,105.5,101.6z"/>
<path class="st0" d="M113.4,106.2c1.3,0.8,3.1,0.3,3.8-1c0.8-1.3,0.3-3.1-1-3.8c-1.3-0.8-3.1-0.3-3.8,1
	C111.6,103.7,112.1,105.4,113.4,106.2z"/>
<path class="st0" d="M121.3,110.7c1.3,0.8,3.1,0.3,3.8-1c0.8-1.3,0.3-3.1-1-3.8c-1.3-0.8-3.1-0.3-3.8,1
	C119.5,108.2,120,109.9,121.3,110.7z"/>
<path class="st0" d="M129.2,115.3c1.3,0.8,3.1,0.3,3.8-1c0.8-1.3,0.3-3.1-1-3.8c-1.3-0.8-3.1-0.3-3.8,1
	C127.4,112.8,127.9,114.5,129.2,115.3z"/>
<path class="st0" d="M137.1,119.8c1.3,0.8,3.1,0.3,3.8-1c0.8-1.3,0.3-3.1-1-3.8c-1.3-0.8-3.1-0.3-3.8,1
	C135.3,117.3,135.8,119.1,137.1,119.8z"/>
<path class="st0" d="M145,124.4c1.3,0.8,3.1,0.3,3.8-1c0.8-1.3,0.3-3.1-1-3.8c-1.3-0.8-3.1-0.3-3.8,1
	C143.2,121.9,143.7,123.6,145,124.4z"/>
<path class="st0" d="M152.9,129c1.3,0.8,3.1,0.3,3.8-1c0.8-1.3,0.3-3.1-1-3.8c-1.3-0.8-3.1-0.3-3.8,1
	C151.1,126.5,151.5,128.2,152.9,129z"/>
<path class="st0" d="M160.8,133.5c1.3,0.8,3.1,0.3,3.8-1c0.8-1.3,0.3-3.1-1-3.8c-1.3-0.8-3.1-0.3-3.8,1
	C159,131,159.4,132.7,160.8,133.5z"/>
<path class="st0" d="M168.7,138.1c1.3,0.8,3.1,0.3,3.8-1c0.8-1.3,0.3-3.1-1-3.8c-1.3-0.8-3.1-0.3-3.8,1
	C166.9,135.6,167.3,137.3,168.7,138.1z"/>
<path class="st0" d="M176.6,142.6c1.3,0.8,3.1,0.3,3.8-1c0.8-1.3,0.3-3.1-1-3.8c-1.3-0.8-3.1-0.3-3.8,1
	C174.8,140.1,175.2,141.9,176.6,142.6z"/>
<path class="st0" d="M184.5,147.2c1.3,0.8,3.1,0.3,3.8-1c0.8-1.3,0.3-3.1-1-3.8c-1.3-0.8-3.1-0.3-3.8,1
	C182.7,144.7,183.1,146.4,184.5,147.2z"/>
<path class="st0" d="M192.4,151.7c1.3,0.8,3.1,0.3,3.8-1c0.8-1.3,0.3-3.1-1-3.8c-1.3-0.8-3.1-0.3-3.8,1
	C190.6,149.2,191,151,192.4,151.7z"/>
<path class="st0" d="M200.3,156.3c1.3,0.8,3.1,0.3,3.8-1c0.8-1.3,0.3-3.1-1-3.8c-1.3-0.8-3.1-0.3-3.8,1
	C198.5,153.8,198.9,155.5,200.3,156.3z"/>
<path class="st0" d="M389.5,101.6c-1.3,0.8-3.1,0.3-3.8-1c-0.8-1.3-0.3-3.1,1-3.8c1.3-0.8,3.1-0.3,3.8,1
	C391.3,99.1,390.8,100.8,389.5,101.6z"/>
<path class="st0" d="M381.6,106.2c-1.3,0.8-3.1,0.3-3.8-1c-0.8-1.3-0.3-3.1,1-3.8c1.3-0.8,3.1-0.3,3.8,1
	C383.4,103.7,383,105.4,381.6,106.2z"/>
<path class="st0" d="M373.7,110.7c-1.3,0.8-3.1,0.3-3.8-1c-0.8-1.3-0.3-3.1,1-3.8c1.3-0.8,3.1-0.3,3.8,1
	C375.5,108.2,375.1,109.9,373.7,110.7z"/>
<path class="st0" d="M365.8,115.3c-1.3,0.8-3.1,0.3-3.8-1c-0.8-1.3-0.3-3.1,1-3.8c1.3-0.8,3.1-0.3,3.8,1
	C367.6,112.8,367.2,114.5,365.8,115.3z"/>
<path class="st0" d="M357.9,119.8c-1.3,0.8-3.1,0.3-3.8-1c-0.8-1.3-0.3-3.1,1-3.8c1.3-0.8,3.1-0.3,3.8,1
	C359.7,117.3,359.3,119.1,357.9,119.8z"/>
<path class="st0" d="M350,124.4c-1.3,0.8-3.1,0.3-3.8-1c-0.8-1.3-0.3-3.1,1-3.8c1.3-0.8,3.1-0.3,3.8,1
	C351.8,121.9,351.4,123.6,350,124.4z"/>
<path class="st0" d="M342.1,129c-1.3,0.8-3.1,0.3-3.8-1c-0.8-1.3-0.3-3.1,1-3.8c1.3-0.8,3.1-0.3,3.8,1
	C343.9,126.5,343.5,128.2,342.1,129z"/>
<path class="st0" d="M334.2,133.5c-1.3,0.8-3.1,0.3-3.8-1c-0.8-1.3-0.3-3.1,1-3.8c1.3-0.8,3.1-0.3,3.8,1
	C336,131,335.6,132.7,334.2,133.5z"/>
<path class="st0" d="M326.3,138.1c-1.3,0.8-3.1,0.3-3.8-1c-0.8-1.3-0.3-3.1,1-3.8c1.3-0.8,3.1-0.3,3.8,1
	C328.1,135.6,327.7,137.3,326.3,138.1z"/>
<path class="st0" d="M318.4,142.6c-1.3,0.8-3.1,0.3-3.8-1c-0.8-1.3-0.3-3.1,1-3.8c1.3-0.8,3.1-0.3,3.8,1
	C320.2,140.1,319.8,141.9,318.4,142.6z"/>
<path class="st0" d="M310.5,147.2c-1.3,0.8-3.1,0.3-3.8-1c-0.8-1.3-0.3-3.1,1-3.8c1.3-0.8,3.1-0.3,3.8,1
	C312.4,144.7,311.9,146.4,310.5,147.2z"/>
<path class="st0" d="M302.7,151.7c-1.3,0.8-3.1,0.3-3.8-1c-0.8-1.3-0.3-3.1,1-3.8c1.3-0.8,3.1-0.3,3.8,1
	C304.5,149.2,304,151,302.7,151.7z"/>
<path class="st0" d="M294.8,156.3c-1.3,0.8-3.1,0.3-3.8-1c-0.8-1.3-0.3-3.1,1-3.8c1.3-0.8,3.1-0.3,3.8,1
	C296.6,153.8,296.1,155.5,294.8,156.3z"/>
</svg>
