<svg width="69" height="59" viewBox="0 0 69 59" fill="none" xmlns="http://www.w3.org/2000/svg">
<rect width="69" height="59" fill="white"/>
<path fill-rule="evenodd" clip-rule="evenodd" d="M1 11.5996V18.7845H2.21748V14.4998L4.30319 18.7893L6.37921 14.4998V18.7893H7.59668V11.5996H6.42286L4.30319 15.9523L2.17382 11.5996H1ZM16.5944 11.5996H17.9283L20.8531 18.7845H19.5532L17.2637 12.8918L14.9791 18.7845H13.6792L16.5944 11.5996ZM26.8095 11.5996V12.8189H28.8225V18.7893H30.04V12.8189H32.0529V11.5996H26.8095ZM38.7806 11.5996V12.8189H40.7935V18.7893H42.011V12.8189H44.024V11.5996H38.7806ZM50.5285 11.5996V18.7845H55.767V17.5651H51.746V15.5005H53.8414V14.2812H51.746V12.8189H55.6506V11.5996H50.5285ZM61.9126 11.5996H64.8617C65.7542 11.5996 65.9385 11.6336 66.3266 11.8279C67.0784 12.2166 67.544 12.9598 67.544 13.776C67.544 14.6358 67.0687 15.3694 66.2975 15.7045L67.6508 18.7845H66.2975L65.0606 15.9426H63.1349V18.7845H61.9175V11.5996H61.9126ZM63.1301 14.7232H65.0363C65.468 14.7232 65.6621 14.6795 65.8658 14.5629C66.1326 14.4026 66.3072 14.0869 66.3072 13.776C66.3072 13.4213 66.0598 13.0424 65.7348 12.9015C65.5844 12.8384 65.4001 12.8141 65.0557 12.8141H63.1301V14.7232ZM6.93702 28.0971C6.3016 27.4073 5.28784 26.9749 4.31774 26.9749C2.81409 26.9749 1.43169 27.7036 1.43169 28.9618C1.43169 29.6711 1.75183 30.2346 2.35329 30.5503C2.67827 30.7204 3.22638 30.9438 4.32744 31.2645C5.23934 31.5316 5.40426 31.5997 5.54492 31.6725C5.75834 31.7891 5.85535 31.9397 5.85535 32.168C5.85535 32.7607 5.16658 33.193 4.24014 33.193C3.89575 33.193 3.48346 33.1105 3.16332 32.989C2.72193 32.8044 2.52791 32.5518 2.12047 32.1535L2.03316 32.066L1 32.7753C1.77608 33.9703 3.07116 34.4561 4.21103 34.4561C5.8699 34.4561 7.12618 33.4845 7.12618 32.2166C7.12618 31.7308 6.93216 31.2256 6.63143 30.9438C6.27735 30.6086 5.70499 30.3512 4.64273 30.0597C3.74053 29.8022 3.25063 29.6273 3.05661 29.5302C2.77528 29.3893 2.67342 29.2241 2.67342 28.9327C2.67342 28.4274 3.42525 28.102 4.18678 28.102C4.81249 28.102 5.34605 28.2088 6.06878 28.9035L6.93702 28.0971ZM14.4456 26.9895V31.3082C14.4456 31.964 14.5232 32.3089 14.7463 32.7753C15.2411 33.7663 16.1578 34.3152 17.3171 34.3152C18.4667 34.3152 19.3834 33.7663 19.8782 32.7753C20.1061 32.3138 20.1789 31.9689 20.1789 31.3082V26.9895H18.9614V31.2985C18.9614 31.6531 18.8547 32.0612 18.714 32.3089C18.4473 32.7607 17.8652 33.0716 17.3171 33.0716C16.7593 33.0716 16.1772 32.7607 15.9056 32.3089C15.7649 32.0612 15.6582 31.6531 15.6582 31.2985V26.9895H14.4456ZM26.7513 26.9895H29.5598C30.656 26.9895 30.6802 26.9895 31.078 27.1498C31.9608 27.4947 32.4895 28.2574 32.4895 29.1853C32.4895 30.1666 31.9171 30.939 30.9616 31.245C30.6802 31.3325 30.5832 31.3422 29.7441 31.3422H27.9688V34.1743H26.7513V26.9895ZM27.9688 30.1228H30.0788C30.4134 30.1228 30.5735 30.0888 30.7578 29.982C31.0489 29.8217 31.2332 29.5059 31.2332 29.1755C31.2332 28.8306 31.0295 28.4954 30.7287 28.3351C30.525 28.2185 30.4474 28.204 29.9672 28.204H27.9785V30.1228H27.9688ZM38.6933 26.9895H41.5017C42.5979 26.9895 42.6222 26.9895 43.0199 27.1498C43.9027 27.4947 44.4314 28.2574 44.4314 29.1853C44.4314 30.1666 43.859 30.939 42.9035 31.245C42.6222 31.3325 42.5252 31.3422 41.686 31.3422H39.9107V34.1743H38.6933V26.9895ZM39.9107 30.1228H42.0207C42.3554 30.1228 42.5155 30.0888 42.6998 29.982C42.9908 29.8217 43.1751 29.5059 43.1751 29.1755C43.1751 28.8306 42.9714 28.4954 42.6707 28.3351C42.4669 28.2185 42.3893 28.204 41.9091 28.204H39.9204V30.1228H39.9107ZM50.5915 26.9895V34.1743H55.8301V32.955H51.809V26.9895H50.5915ZM60.9377 26.9895L63.9159 31.245V34.1743H65.1333V31.245L68.1115 26.9895H66.6176L64.5319 30.0063L62.4365 26.9895H60.9377ZM7.11648 44.1768C6.66539 43.0449 5.65163 42.3794 4.40505 42.3794C3.54651 42.3794 2.62977 42.6903 2.12532 43.2829C1.55296 43.929 1.16977 44.9784 1.16977 46.1005C1.16977 47.2324 1.55781 48.272 2.12532 48.9181C2.62977 49.5108 3.54166 49.846 4.40505 49.846C5.65163 49.846 6.66539 49.1804 7.11648 48.0486L5.97662 47.6405C5.58858 48.306 5.11808 48.6121 4.44871 48.6121C2.9208 48.6121 2.35814 47.3636 2.33874 46.0811C2.35814 44.7695 2.78013 43.6278 4.44871 43.6278C5.11323 43.6278 5.58858 43.929 5.97662 44.5994L7.11648 44.1768ZM17.4675 42.3794C18.2726 42.3794 19.0681 42.7777 19.6308 43.4481C20.1158 44.0408 20.3923 44.9881 20.3923 46.0665C20.3923 47.3053 20.0916 48.2769 19.5192 48.9084C18.9905 49.5011 18.2047 49.846 17.4238 49.846C16.6283 49.846 15.8425 49.4914 15.3041 48.9084C14.7463 48.272 14.4456 47.315 14.4456 46.1297C14.4456 44.9006 14.756 43.9193 15.3381 43.2975C15.8862 42.7048 16.638 42.3794 17.4675 42.3794ZM17.4675 43.6084C16.3615 43.6084 15.7164 44.5217 15.7164 46.0957C15.7164 47.6162 16.3712 48.5538 17.4384 48.5538C18.5055 48.5538 19.1506 47.6162 19.1506 46.0762C19.1457 44.5703 18.5006 43.6084 17.4675 43.6084Z" fill="#2D2F45"/>
<path fill-rule="evenodd" clip-rule="evenodd" d="M67.39 50.5678H26.9787V41.9082H67.39V50.5678Z" fill="#2D2F45"/>
</svg>
