<svg width="130" height="59" viewBox="0 0 130 59" fill="none" xmlns="http://www.w3.org/2000/svg">
<rect width="130" height="59" fill="white"/>
<path d="M1 11H12.6367C12.6367 26.6 39.7891 26.6 39.7891 50H28.1524C28.1524 34.4 1 34.4 1 11ZM36.028 24.0789C38.3041 20.6664 39.7891 16.4739 39.7891 11H28.1524C28.1524 13.528 27.439 15.6466 26.2448 17.5214L36.028 24.0789ZM1 50H12.6367C12.6367 47.472 13.3502 45.3534 14.5443 43.4786L4.76116 36.9211C2.48507 40.3336 1 44.5261 1 50ZM117.606 22.7H113.484L118.818 30.5L113.484 38.3H117.606L121 33.425H121.485L124.879 38.3H129L123.666 30.5L129 22.7H124.879L121.485 27.575H121L117.606 22.7ZM100.878 25.625H98.4535V24.65C98.4535 23.675 98.9384 23.1875 99.9081 23.1875C100.393 23.1875 100.878 23.4313 100.878 23.4313L101.605 20.5063C101.605 20.5063 100.392 20.0188 99.1808 20.0188C96.5141 20.0188 94.5732 21.4813 94.5746 24.65V25.625H92.6352V28.55H94.5746V38.3H98.4535V28.55H100.878V25.625ZM111.064 28.55H108.64V33.9125C108.64 34.8875 109.125 35.375 110.094 35.375C110.579 35.375 111.064 35.1313 111.064 35.1313L111.791 38.0562C111.791 38.0562 110.579 38.5438 109.367 38.5438C106.7 38.5438 104.761 37.0813 104.761 33.9125V28.55H102.821V25.625H104.761V22.7H108.155C108.155 25.1375 108.64 25.625 111.064 25.625V28.55ZM86.3403 38.3H90.2192V25.625H86.3403V38.3ZM90.4616 22.2125C90.4616 23.4313 89.4919 24.4063 88.2797 24.4063C87.0676 24.4063 86.0978 23.4313 86.0978 22.2125C86.0978 20.9938 87.0676 20.0188 88.2797 20.0188C89.4919 20.0188 90.4616 20.9938 90.4616 22.2125ZM64.0282 26.6H67.6647C67.4222 23.675 64.9979 21.9688 61.6039 21.9688C58.4523 21.9688 55.7855 23.4312 55.7855 26.6C55.7855 29.525 58.4523 30.7437 61.119 31.475C62.816 31.9402 64.0351 32.6938 64.0282 33.6688C64.0213 34.8847 63.0585 35.6187 61.6039 35.6187C60.1493 35.6187 59.1795 34.8875 58.9371 33.6688H55.3006C55.5431 36.8375 58.2098 38.5438 61.3614 38.5438C65.4024 38.5438 67.9002 36.708 67.9071 33.6688C67.9071 30.5 64.7555 29.2813 61.8463 28.55C60.1493 28.1238 59.422 27.3313 59.422 26.6C59.422 25.8688 60.1493 25.1375 61.3614 25.1375C62.816 25.1375 63.7858 25.625 64.0282 26.6ZM74.6952 31.9625C74.6952 29.7688 75.6649 28.7938 76.8771 28.7938C78.0892 28.7938 79.059 29.7688 79.059 31.9625V38.3H82.9379V30.9875C82.9379 27.3313 80.9984 25.3813 78.0892 25.3813C76.6347 25.3813 75.4225 26.1125 74.9362 26.6014H74.6938V20.75H70.8149V38.3H74.6938V31.9625H74.6952Z" fill="black"/>
</svg>
